<svg width="644" height="46" viewBox="0 0 644 46" fill="none" xmlns="http://www.w3.org/2000/svg">
<path d="M0.5875 5.52V46H10.6675V27.6H26.1875V18.48H10.6675V9.04H26.1875V-3.8147e-06H9.7075L0.5875 5.52ZM55.7075 5.52V46H45.6275V27.6H29.7875V18.48H45.6275V9.04H29.7875V-3.8147e-06H46.2675L55.7075 5.52ZM94.0625 -3.8147e-06H119.663V9.04H104.143V18.48H119.663V27.6H104.143V36.64H119.663V46H94.0625V-3.8147e-06ZM149.183 40.56V26.56L141.663 23.04L149.183 19.44V5.52L140.143 -3.8147e-06H123.583V9.04H139.103V18.48H123.583V27.6H139.103V36.64H123.583V46H140.143L149.183 40.56ZM157.072 5.52V46H167.152V27.6H182.672V18.48H167.152V9.04H182.672V-3.8147e-06H166.192L157.072 5.52ZM212.192 5.52V46H202.112V27.6H186.272V18.48H202.112V9.04H186.272V-3.8147e-06H202.752L212.192 5.52ZM226.563 -3.8147e-06H252.163V9.44H236.643V18.48H252.163V27.84H236.643V46H226.563V-3.8147e-06ZM281.683 46V26.96L274.163 23.04L281.683 19.44V5.52L272.243 -3.8147e-06H255.763V9.44H271.603V18.48H255.763V27.84H271.603V46H281.683ZM295.313 -3.8147e-06H320.913V9.04H305.393V18.48H320.913V27.6H305.393V36.64H320.913V46H295.313V-3.8147e-06ZM350.433 40.56V26.56L342.913 23.04L350.433 19.44V5.52L341.393 -3.8147e-06H324.833V9.04H340.353V18.48H324.833V27.6H340.353V36.64H324.833V46H341.393L350.433 40.56ZM364.844 -3.8147e-06H390.444V9.44H374.924V18.48H390.444V27.6H374.924V36.96H390.124V46H364.844V-3.8147e-06ZM394.364 36.96V46H419.964V36.96H394.364ZM419.964 9.44V-3.8147e-06H394.044V9.44H419.964ZM407.004 27.6V18.48H394.044V27.6H407.004ZM428.791 5.52V46H438.871V27.6H454.391V18.48H438.871V9.04H454.391V-3.8147e-06H437.911L428.791 5.52ZM483.911 5.52V46H473.831V27.6H457.991V18.48H473.831V9.04H457.991V-3.8147e-06H474.471L483.911 5.52ZM498.281 -3.8147e-06H523.881V9.44H508.361V18.48H523.881V27.84H508.361V46H498.281V-3.8147e-06ZM553.401 46V26.96L545.881 23.04L553.401 19.44V5.52L543.961 -3.8147e-06H527.481V9.44H543.321V18.48H527.481V27.84H543.321V46H553.401ZM565.431 -3.8147e-06H575.511V46H565.431V-3.8147e-06ZM588.322 5.52V46H598.402V27.6H613.922V18.48H598.402V9.04H613.922V-3.8147e-06H597.442L588.322 5.52ZM643.442 5.52V46H633.362V27.6H617.522V18.48H633.362V9.04H617.522V-3.8147e-06H634.002L643.442 5.52Z" fill="#FF5656"/>
<path d="M0.5875 5.52L0.0696977 4.6645L-0.4125 4.95635V5.52H0.5875ZM0.5875 46H-0.4125V47H0.5875V46ZM10.6675 46V47H11.6675V46H10.6675ZM10.6675 27.6V26.6H9.6675V27.6H10.6675ZM26.1875 27.6V28.6H27.1875V27.6H26.1875ZM26.1875 18.48H27.1875V17.48H26.1875V18.48ZM10.6675 18.48H9.6675V19.48H10.6675V18.48ZM10.6675 9.04V8.04H9.6675V9.04H10.6675ZM26.1875 9.04V10.04H27.1875V9.04H26.1875ZM26.1875 -3.8147e-06H27.1875V-1H26.1875V-3.8147e-06ZM9.7075 -3.8147e-06V-1H9.42844L9.1897 -0.855504L9.7075 -3.8147e-06ZM55.7075 5.52H56.7075V4.94633L56.2123 4.65675L55.7075 5.52ZM55.7075 46V47H56.7075V46H55.7075ZM45.6275 46H44.6275V47H45.6275V46ZM45.6275 27.6H46.6275V26.6H45.6275V27.6ZM29.7875 27.6H28.7875V28.6H29.7875V27.6ZM29.7875 18.48V17.48H28.7875V18.48H29.7875ZM45.6275 18.48V19.48H46.6275V18.48H45.6275ZM45.6275 9.04H46.6275V8.04H45.6275V9.04ZM29.7875 9.04H28.7875V10.04H29.7875V9.04ZM29.7875 -3.8147e-06V-1H28.7875V-3.8147e-06H29.7875ZM46.2675 -3.8147e-06L46.7723 -0.863252L46.5384 -1H46.2675V-3.8147e-06ZM-0.4125 5.52V46H1.5875V5.52H-0.4125ZM0.5875 47H10.6675V45H0.5875V47ZM11.6675 46V27.6H9.6675V46H11.6675ZM10.6675 28.6H26.1875V26.6H10.6675V28.6ZM27.1875 27.6V18.48H25.1875V27.6H27.1875ZM26.1875 17.48H10.6675V19.48H26.1875V17.48ZM11.6675 18.48V9.04H9.6675V18.48H11.6675ZM10.6675 10.04H26.1875V8.04H10.6675V10.04ZM27.1875 9.04V-3.8147e-06H25.1875V9.04H27.1875ZM26.1875 -1H9.7075V0.999996H26.1875V-1ZM9.1897 -0.855504L0.0696977 4.6645L1.1053 6.3755L10.2253 0.855496L9.1897 -0.855504ZM54.7075 5.52V46H56.7075V5.52H54.7075ZM55.7075 45H45.6275V47H55.7075V45ZM46.6275 46V27.6H44.6275V46H46.6275ZM45.6275 26.6H29.7875V28.6H45.6275V26.6ZM30.7875 27.6V18.48H28.7875V27.6H30.7875ZM29.7875 19.48H45.6275V17.48H29.7875V19.48ZM46.6275 18.48V9.04H44.6275V18.48H46.6275ZM45.6275 8.04H29.7875V10.04H45.6275V8.04ZM30.7875 9.04V-3.8147e-06H28.7875V9.04H30.7875ZM29.7875 0.999996H46.2675V-1H29.7875V0.999996ZM45.7627 0.863244L55.2027 6.38324L56.2123 4.65675L46.7723 -0.863252L45.7627 0.863244ZM94.0625 -3.8147e-06V-1H93.0625V-3.8147e-06H94.0625ZM119.663 -3.8147e-06H120.663V-1H119.663V-3.8147e-06ZM119.663 9.04V10.04H120.663V9.04H119.663ZM104.143 9.04V8.04H103.143V9.04H104.143ZM104.143 18.48H103.143V19.48H104.143V18.48ZM119.663 18.48H120.663V17.48H119.663V18.48ZM119.663 27.6V28.6H120.663V27.6H119.663ZM104.143 27.6V26.6H103.143V27.6H104.143ZM104.143 36.64H103.143V37.64H104.143V36.64ZM119.663 36.64H120.663V35.64H119.663V36.64ZM119.663 46V47H120.663V46H119.663ZM94.0625 46H93.0625V47H94.0625V46ZM149.183 40.56L149.698 41.4168L150.183 41.1253V40.56H149.183ZM149.183 26.56H150.183V25.924L149.606 25.6543L149.183 26.56ZM141.663 23.04L141.231 22.138L139.325 23.0502L141.239 23.9457L141.663 23.04ZM149.183 19.44L149.614 20.342L150.183 20.07V19.44H149.183ZM149.183 5.52H150.183V4.95893L149.704 4.66653L149.183 5.52ZM140.143 -3.8147e-06L140.664 -0.853472L140.424 -1H140.143V-3.8147e-06ZM123.583 -3.8147e-06V-1H122.583V-3.8147e-06H123.583ZM123.583 9.04H122.583V10.04H123.583V9.04ZM139.103 9.04H140.103V8.04H139.103V9.04ZM139.103 18.48V19.48H140.103V18.48H139.103ZM123.583 18.48V17.48H122.583V18.48H123.583ZM123.583 27.6H122.583V28.6H123.583V27.6ZM139.103 27.6H140.103V26.6H139.103V27.6ZM139.103 36.64V37.64H140.103V36.64H139.103ZM123.583 36.64V35.64H122.583V36.64H123.583ZM123.583 46H122.583V47H123.583V46ZM140.143 46V47H140.42L140.658 46.8568L140.143 46ZM94.0625 0.999996H119.663V-1H94.0625V0.999996ZM118.663 -3.8147e-06V9.04H120.663V-3.8147e-06H118.663ZM119.663 8.04H104.143V10.04H119.663V8.04ZM103.143 9.04V18.48H105.143V9.04H103.143ZM104.143 19.48H119.663V17.48H104.143V19.48ZM118.663 18.48V27.6H120.663V18.48H118.663ZM119.663 26.6H104.143V28.6H119.663V26.6ZM103.143 27.6V36.64H105.143V27.6H103.143ZM104.143 37.64H119.663V35.64H104.143V37.64ZM118.663 36.64V46H120.663V36.64H118.663ZM119.663 45H94.0625V47H119.663V45ZM95.0625 46V-3.8147e-06H93.0625V46H95.0625ZM150.183 40.56V26.56H148.183V40.56H150.183ZM149.606 25.6543L142.086 22.1343L141.239 23.9457L148.759 27.4657L149.606 25.6543ZM142.094 23.942L149.614 20.342L148.751 18.538L141.231 22.138L142.094 23.942ZM150.183 19.44V5.52H148.183V19.44H150.183ZM149.704 4.66653L140.664 -0.853472L139.621 0.853465L148.661 6.37347L149.704 4.66653ZM140.143 -1H123.583V0.999996H140.143V-1ZM122.583 -3.8147e-06V9.04H124.583V-3.8147e-06H122.583ZM123.583 10.04H139.103V8.04H123.583V10.04ZM138.103 9.04V18.48H140.103V9.04H138.103ZM139.103 17.48H123.583V19.48H139.103V17.48ZM122.583 18.48V27.6H124.583V18.48H122.583ZM123.583 28.6H139.103V26.6H123.583V28.6ZM138.103 27.6V36.64H140.103V27.6H138.103ZM139.103 35.64H123.583V37.64H139.103V35.64ZM122.583 36.64V46H124.583V36.64H122.583ZM123.583 47H140.143V45H123.583V47ZM140.658 46.8568L149.698 41.4168L148.667 39.7032L139.627 45.1432L140.658 46.8568ZM157.072 5.52L156.554 4.6645L156.072 4.95635V5.52H157.072ZM157.072 46H156.072V47H157.072V46ZM167.152 46V47H168.152V46H167.152ZM167.152 27.6V26.6H166.152V27.6H167.152ZM182.672 27.6V28.6H183.672V27.6H182.672ZM182.672 18.48H183.672V17.48H182.672V18.48ZM167.152 18.48H166.152V19.48H167.152V18.48ZM167.152 9.04V8.04H166.152V9.04H167.152ZM182.672 9.04V10.04H183.672V9.04H182.672ZM182.672 -3.8147e-06H183.672V-1H182.672V-3.8147e-06ZM166.192 -3.8147e-06V-1H165.913L165.674 -0.855504L166.192 -3.8147e-06ZM212.192 5.52H213.192V4.94633L212.697 4.65675L212.192 5.52ZM212.192 46V47H213.192V46H212.192ZM202.112 46H201.112V47H202.112V46ZM202.112 27.6H203.112V26.6H202.112V27.6ZM186.272 27.6H185.272V28.6H186.272V27.6ZM186.272 18.48V17.48H185.272V18.48H186.272ZM202.112 18.48V19.48H203.112V18.48H202.112ZM202.112 9.04H203.112V8.04H202.112V9.04ZM186.272 9.04H185.272V10.04H186.272V9.04ZM186.272 -3.8147e-06V-1H185.272V-3.8147e-06H186.272ZM202.752 -3.8147e-06L203.257 -0.863252L203.023 -1H202.752V-3.8147e-06ZM156.072 5.52V46H158.072V5.52H156.072ZM157.072 47H167.152V45H157.072V47ZM168.152 46V27.6H166.152V46H168.152ZM167.152 28.6H182.672V26.6H167.152V28.6ZM183.672 27.6V18.48H181.672V27.6H183.672ZM182.672 17.48H167.152V19.48H182.672V17.48ZM168.152 18.48V9.04H166.152V18.48H168.152ZM167.152 10.04H182.672V8.04H167.152V10.04ZM183.672 9.04V-3.8147e-06H181.672V9.04H183.672ZM182.672 -1H166.192V0.999996H182.672V-1ZM165.674 -0.855504L156.554 4.6645L157.59 6.3755L166.71 0.855496L165.674 -0.855504ZM211.192 5.52V46H213.192V5.52H211.192ZM212.192 45H202.112V47H212.192V45ZM203.112 46V27.6H201.112V46H203.112ZM202.112 26.6H186.272V28.6H202.112V26.6ZM187.272 27.6V18.48H185.272V27.6H187.272ZM186.272 19.48H202.112V17.48H186.272V19.48ZM203.112 18.48V9.04H201.112V18.48H203.112ZM202.112 8.04H186.272V10.04H202.112V8.04ZM187.272 9.04V-3.8147e-06H185.272V9.04H187.272ZM186.272 0.999996H202.752V-1H186.272V0.999996ZM202.247 0.863244L211.687 6.38324L212.697 4.65675L203.257 -0.863252L202.247 0.863244ZM226.563 -3.8147e-06V-1H225.563V-3.8147e-06H226.563ZM252.163 -3.8147e-06H253.163V-1H252.163V-3.8147e-06ZM252.163 9.44V10.44H253.163V9.44H252.163ZM236.643 9.44V8.44H235.643V9.44H236.643ZM236.643 18.48H235.643V19.48H236.643V18.48ZM252.163 18.48H253.163V17.48H252.163V18.48ZM252.163 27.84V28.84H253.163V27.84H252.163ZM236.643 27.84V26.84H235.643V27.84H236.643ZM236.643 46V47H237.643V46H236.643ZM226.563 46H225.563V47H226.563V46ZM281.683 46V47H282.683V46H281.683ZM281.683 26.96H282.683V26.3536L282.145 26.0732L281.683 26.96ZM274.163 23.04L273.731 22.138L271.926 23.0019L273.7 23.9268L274.163 23.04ZM281.683 19.44L282.114 20.342L282.683 20.07V19.44H281.683ZM281.683 5.52H282.683V4.94633L282.187 4.65675L281.683 5.52ZM272.243 -3.8147e-06L272.747 -0.863252L272.513 -1H272.243V-3.8147e-06ZM255.763 -3.8147e-06V-1H254.763V-3.8147e-06H255.763ZM255.763 9.44H254.763V10.44H255.763V9.44ZM271.603 9.44H272.603V8.44H271.603V9.44ZM271.603 18.48V19.48H272.603V18.48H271.603ZM255.763 18.48V17.48H254.763V18.48H255.763ZM255.763 27.84H254.763V28.84H255.763V27.84ZM271.603 27.84H272.603V26.84H271.603V27.84ZM271.603 46H270.603V47H271.603V46ZM226.563 0.999996H252.163V-1H226.563V0.999996ZM251.163 -3.8147e-06V9.44H253.163V-3.8147e-06H251.163ZM252.163 8.44H236.643V10.44H252.163V8.44ZM235.643 9.44V18.48H237.643V9.44H235.643ZM236.643 19.48H252.163V17.48H236.643V19.48ZM251.163 18.48V27.84H253.163V18.48H251.163ZM252.163 26.84H236.643V28.84H252.163V26.84ZM235.643 27.84V46H237.643V27.84H235.643ZM236.643 45H226.563V47H236.643V45ZM227.563 46V-3.8147e-06H225.563V46H227.563ZM282.683 46V26.96H280.683V46H282.683ZM282.145 26.0732L274.625 22.1532L273.7 23.9268L281.22 27.8468L282.145 26.0732ZM274.594 23.942L282.114 20.342L281.251 18.538L273.731 22.138L274.594 23.942ZM282.683 19.44V5.52H280.683V19.44H282.683ZM282.187 4.65675L272.747 -0.863252L271.738 0.863244L281.178 6.38324L282.187 4.65675ZM272.243 -1H255.763V0.999996H272.243V-1ZM254.763 -3.8147e-06V9.44H256.763V-3.8147e-06H254.763ZM255.763 10.44H271.603V8.44H255.763V10.44ZM270.603 9.44V18.48H272.603V9.44H270.603ZM271.603 17.48H255.763V19.48H271.603V17.48ZM254.763 18.48V27.84H256.763V18.48H254.763ZM255.763 28.84H271.603V26.84H255.763V28.84ZM270.603 27.84V46H272.603V27.84H270.603ZM271.603 47H281.683V45H271.603V47ZM295.313 -3.8147e-06V-1H294.313V-3.8147e-06H295.313ZM320.913 -3.8147e-06H321.913V-1H320.913V-3.8147e-06ZM320.913 9.04V10.04H321.913V9.04H320.913ZM305.393 9.04V8.04H304.393V9.04H305.393ZM305.393 18.48H304.393V19.48H305.393V18.48ZM320.913 18.48H321.913V17.48H320.913V18.48ZM320.913 27.6V28.6H321.913V27.6H320.913ZM305.393 27.6V26.6H304.393V27.6H305.393ZM305.393 36.64H304.393V37.64H305.393V36.64ZM320.913 36.64H321.913V35.64H320.913V36.64ZM320.913 46V47H321.913V46H320.913ZM295.313 46H294.313V47H295.313V46ZM350.433 40.56L350.948 41.4168L351.433 41.1253V40.56H350.433ZM350.433 26.56H351.433V25.924L350.856 25.6543L350.433 26.56ZM342.913 23.04L342.481 22.138L340.575 23.0502L342.489 23.9457L342.913 23.04ZM350.433 19.44L350.864 20.342L351.433 20.07V19.44H350.433ZM350.433 5.52H351.433V4.95893L350.954 4.66653L350.433 5.52ZM341.393 -3.8147e-06L341.914 -0.853472L341.674 -1H341.393V-3.8147e-06ZM324.833 -3.8147e-06V-1H323.833V-3.8147e-06H324.833ZM324.833 9.04H323.833V10.04H324.833V9.04ZM340.353 9.04H341.353V8.04H340.353V9.04ZM340.353 18.48V19.48H341.353V18.48H340.353ZM324.833 18.48V17.48H323.833V18.48H324.833ZM324.833 27.6H323.833V28.6H324.833V27.6ZM340.353 27.6H341.353V26.6H340.353V27.6ZM340.353 36.64V37.64H341.353V36.64H340.353ZM324.833 36.64V35.64H323.833V36.64H324.833ZM324.833 46H323.833V47H324.833V46ZM341.393 46V47H341.67L341.908 46.8568L341.393 46ZM295.313 0.999996H320.913V-1H295.313V0.999996ZM319.913 -3.8147e-06V9.04H321.913V-3.8147e-06H319.913ZM320.913 8.04H305.393V10.04H320.913V8.04ZM304.393 9.04V18.48H306.393V9.04H304.393ZM305.393 19.48H320.913V17.48H305.393V19.48ZM319.913 18.48V27.6H321.913V18.48H319.913ZM320.913 26.6H305.393V28.6H320.913V26.6ZM304.393 27.6V36.64H306.393V27.6H304.393ZM305.393 37.64H320.913V35.64H305.393V37.64ZM319.913 36.64V46H321.913V36.64H319.913ZM320.913 45H295.313V47H320.913V45ZM296.313 46V-3.8147e-06H294.313V46H296.313ZM351.433 40.56V26.56H349.433V40.56H351.433ZM350.856 25.6543L343.336 22.1343L342.489 23.9457L350.009 27.4657L350.856 25.6543ZM343.344 23.942L350.864 20.342L350.001 18.538L342.481 22.138L343.344 23.942ZM351.433 19.44V5.52H349.433V19.44H351.433ZM350.954 4.66653L341.914 -0.853472L340.871 0.853465L349.911 6.37347L350.954 4.66653ZM341.393 -1H324.833V0.999996H341.393V-1ZM323.833 -3.8147e-06V9.04H325.833V-3.8147e-06H323.833ZM324.833 10.04H340.353V8.04H324.833V10.04ZM339.353 9.04V18.48H341.353V9.04H339.353ZM340.353 17.48H324.833V19.48H340.353V17.48ZM323.833 18.48V27.6H325.833V18.48H323.833ZM324.833 28.6H340.353V26.6H324.833V28.6ZM339.353 27.6V36.64H341.353V27.6H339.353ZM340.353 35.64H324.833V37.64H340.353V35.64ZM323.833 36.64V46H325.833V36.64H323.833ZM324.833 47H341.393V45H324.833V47ZM341.908 46.8568L350.948 41.4168L349.917 39.7032L340.877 45.1432L341.908 46.8568ZM364.844 -3.8147e-06V-1H363.844V-3.8147e-06H364.844ZM390.444 -3.8147e-06H391.444V-1H390.444V-3.8147e-06ZM390.444 9.44V10.44H391.444V9.44H390.444ZM374.924 9.44V8.44H373.924V9.44H374.924ZM374.924 18.48H373.924V19.48H374.924V18.48ZM390.444 18.48H391.444V17.48H390.444V18.48ZM390.444 27.6V28.6H391.444V27.6H390.444ZM374.924 27.6V26.6H373.924V27.6H374.924ZM374.924 36.96H373.924V37.96H374.924V36.96ZM390.124 36.96H391.124V35.96H390.124V36.96ZM390.124 46V47H391.124V46H390.124ZM364.844 46H363.844V47H364.844V46ZM394.364 36.96V35.96H393.364V36.96H394.364ZM394.364 46H393.364V47H394.364V46ZM419.964 46V47H420.964V46H419.964ZM419.964 36.96H420.964V35.96H419.964V36.96ZM419.964 9.44V10.44H420.964V9.44H419.964ZM419.964 -3.8147e-06H420.964V-1H419.964V-3.8147e-06ZM394.044 -3.8147e-06V-1H393.044V-3.8147e-06H394.044ZM394.044 9.44H393.044V10.44H394.044V9.44ZM407.004 27.6V28.6H408.004V27.6H407.004ZM407.004 18.48H408.004V17.48H407.004V18.48ZM394.044 18.48V17.48H393.044V18.48H394.044ZM394.044 27.6H393.044V28.6H394.044V27.6ZM364.844 0.999996H390.444V-1H364.844V0.999996ZM389.444 -3.8147e-06V9.44H391.444V-3.8147e-06H389.444ZM390.444 8.44H374.924V10.44H390.444V8.44ZM373.924 9.44V18.48H375.924V9.44H373.924ZM374.924 19.48H390.444V17.48H374.924V19.48ZM389.444 18.48V27.6H391.444V18.48H389.444ZM390.444 26.6H374.924V28.6H390.444V26.6ZM373.924 27.6V36.96H375.924V27.6H373.924ZM374.924 37.96H390.124V35.96H374.924V37.96ZM389.124 36.96V46H391.124V36.96H389.124ZM390.124 45H364.844V47H390.124V45ZM365.844 46V-3.8147e-06H363.844V46H365.844ZM393.364 36.96V46H395.364V36.96H393.364ZM394.364 47H419.964V45H394.364V47ZM420.964 46V36.96H418.964V46H420.964ZM419.964 35.96H394.364V37.96H419.964V35.96ZM420.964 9.44V-3.8147e-06H418.964V9.44H420.964ZM419.964 -1H394.044V0.999996H419.964V-1ZM393.044 -3.8147e-06V9.44H395.044V-3.8147e-06H393.044ZM394.044 10.44H419.964V8.44H394.044V10.44ZM408.004 27.6V18.48H406.004V27.6H408.004ZM407.004 17.48H394.044V19.48H407.004V17.48ZM393.044 18.48V27.6H395.044V18.48H393.044ZM394.044 28.6H407.004V26.6H394.044V28.6ZM428.791 5.52L428.273 4.6645L427.791 4.95635V5.52H428.791ZM428.791 46H427.791V47H428.791V46ZM438.871 46V47H439.871V46H438.871ZM438.871 27.6V26.6H437.871V27.6H438.871ZM454.391 27.6V28.6H455.391V27.6H454.391ZM454.391 18.48H455.391V17.48H454.391V18.48ZM438.871 18.48H437.871V19.48H438.871V18.48ZM438.871 9.04V8.04H437.871V9.04H438.871ZM454.391 9.04V10.04H455.391V9.04H454.391ZM454.391 -3.8147e-06H455.391V-1H454.391V-3.8147e-06ZM437.911 -3.8147e-06V-1H437.632L437.393 -0.855504L437.911 -3.8147e-06ZM483.911 5.52H484.911V4.94633L484.415 4.65675L483.911 5.52ZM483.911 46V47H484.911V46H483.911ZM473.831 46H472.831V47H473.831V46ZM473.831 27.6H474.831V26.6H473.831V27.6ZM457.991 27.6H456.991V28.6H457.991V27.6ZM457.991 18.48V17.48H456.991V18.48H457.991ZM473.831 18.48V19.48H474.831V18.48H473.831ZM473.831 9.04H474.831V8.04H473.831V9.04ZM457.991 9.04H456.991V10.04H457.991V9.04ZM457.991 -3.8147e-06V-1H456.991V-3.8147e-06H457.991ZM474.471 -3.8147e-06L474.975 -0.863252L474.742 -1H474.471V-3.8147e-06ZM427.791 5.52V46H429.791V5.52H427.791ZM428.791 47H438.871V45H428.791V47ZM439.871 46V27.6H437.871V46H439.871ZM438.871 28.6H454.391V26.6H438.871V28.6ZM455.391 27.6V18.48H453.391V27.6H455.391ZM454.391 17.48H438.871V19.48H454.391V17.48ZM439.871 18.48V9.04H437.871V18.48H439.871ZM438.871 10.04H454.391V8.04H438.871V10.04ZM455.391 9.04V-3.8147e-06H453.391V9.04H455.391ZM454.391 -1H437.911V0.999996H454.391V-1ZM437.393 -0.855504L428.273 4.6645L429.308 6.3755L438.428 0.855496L437.393 -0.855504ZM482.911 5.52V46H484.911V5.52H482.911ZM483.911 45H473.831V47H483.911V45ZM474.831 46V27.6H472.831V46H474.831ZM473.831 26.6H457.991V28.6H473.831V26.6ZM458.991 27.6V18.48H456.991V27.6H458.991ZM457.991 19.48H473.831V17.48H457.991V19.48ZM474.831 18.48V9.04H472.831V18.48H474.831ZM473.831 8.04H457.991V10.04H473.831V8.04ZM458.991 9.04V-3.8147e-06H456.991V9.04H458.991ZM457.991 0.999996H474.471V-1H457.991V0.999996ZM473.966 0.863244L483.406 6.38324L484.415 4.65675L474.975 -0.863252L473.966 0.863244ZM498.281 -3.8147e-06V-1H497.281V-3.8147e-06H498.281ZM523.881 -3.8147e-06H524.881V-1H523.881V-3.8147e-06ZM523.881 9.44V10.44H524.881V9.44H523.881ZM508.361 9.44V8.44H507.361V9.44H508.361ZM508.361 18.48H507.361V19.48H508.361V18.48ZM523.881 18.48H524.881V17.48H523.881V18.48ZM523.881 27.84V28.84H524.881V27.84H523.881ZM508.361 27.84V26.84H507.361V27.84H508.361ZM508.361 46V47H509.361V46H508.361ZM498.281 46H497.281V47H498.281V46ZM553.401 46V47H554.401V46H553.401ZM553.401 26.96H554.401V26.3536L553.863 26.0732L553.401 26.96ZM545.881 23.04L545.449 22.138L543.645 23.0019L545.419 23.9268L545.881 23.04ZM553.401 19.44L553.833 20.342L554.401 20.07V19.44H553.401ZM553.401 5.52H554.401V4.94633L553.906 4.65675L553.401 5.52ZM543.961 -3.8147e-06L544.466 -0.863252L544.232 -1H543.961V-3.8147e-06ZM527.481 -3.8147e-06V-1H526.481V-3.8147e-06H527.481ZM527.481 9.44H526.481V10.44H527.481V9.44ZM543.321 9.44H544.321V8.44H543.321V9.44ZM543.321 18.48V19.48H544.321V18.48H543.321ZM527.481 18.48V17.48H526.481V18.48H527.481ZM527.481 27.84H526.481V28.84H527.481V27.84ZM543.321 27.84H544.321V26.84H543.321V27.84ZM543.321 46H542.321V47H543.321V46ZM498.281 0.999996H523.881V-1H498.281V0.999996ZM522.881 -3.8147e-06V9.44H524.881V-3.8147e-06H522.881ZM523.881 8.44H508.361V10.44H523.881V8.44ZM507.361 9.44V18.48H509.361V9.44H507.361ZM508.361 19.48H523.881V17.48H508.361V19.48ZM522.881 18.48V27.84H524.881V18.48H522.881ZM523.881 26.84H508.361V28.84H523.881V26.84ZM507.361 27.84V46H509.361V27.84H507.361ZM508.361 45H498.281V47H508.361V45ZM499.281 46V-3.8147e-06H497.281V46H499.281ZM554.401 46V26.96H552.401V46H554.401ZM553.863 26.0732L546.343 22.1532L545.419 23.9268L552.939 27.8468L553.863 26.0732ZM546.313 23.942L553.833 20.342L552.969 18.538L545.449 22.138L546.313 23.942ZM554.401 19.44V5.52H552.401V19.44H554.401ZM553.906 4.65675L544.466 -0.863252L543.456 0.863244L552.896 6.38324L553.906 4.65675ZM543.961 -1H527.481V0.999996H543.961V-1ZM526.481 -3.8147e-06V9.44H528.481V-3.8147e-06H526.481ZM527.481 10.44H543.321V8.44H527.481V10.44ZM542.321 9.44V18.48H544.321V9.44H542.321ZM543.321 17.48H527.481V19.48H543.321V17.48ZM526.481 18.48V27.84H528.481V18.48H526.481ZM527.481 28.84H543.321V26.84H527.481V28.84ZM542.321 27.84V46H544.321V27.84H542.321ZM543.321 47H553.401V45H543.321V47ZM565.431 -3.8147e-06V-1H564.431V-3.8147e-06H565.431ZM575.511 -3.8147e-06H576.511V-1H575.511V-3.8147e-06ZM575.511 46V47H576.511V46H575.511ZM565.431 46H564.431V47H565.431V46ZM565.431 0.999996H575.511V-1H565.431V0.999996ZM574.511 -3.8147e-06V46H576.511V-3.8147e-06H574.511ZM575.511 45H565.431V47H575.511V45ZM566.431 46V-3.8147e-06H564.431V46H566.431ZM588.322 5.52L587.804 4.6645L587.322 4.95635V5.52H588.322ZM588.322 46H587.322V47H588.322V46ZM598.402 46V47H599.402V46H598.402ZM598.402 27.6V26.6H597.402V27.6H598.402ZM613.922 27.6V28.6H614.922V27.6H613.922ZM613.922 18.48H614.922V17.48H613.922V18.48ZM598.402 18.48H597.402V19.48H598.402V18.48ZM598.402 9.04V8.04H597.402V9.04H598.402ZM613.922 9.04V10.04H614.922V9.04H613.922ZM613.922 -3.8147e-06H614.922V-1H613.922V-3.8147e-06ZM597.442 -3.8147e-06V-1H597.163L596.924 -0.855504L597.442 -3.8147e-06ZM643.442 5.52H644.442V4.94633L643.947 4.65675L643.442 5.52ZM643.442 46V47H644.442V46H643.442ZM633.362 46H632.362V47H633.362V46ZM633.362 27.6H634.362V26.6H633.362V27.6ZM617.522 27.6H616.522V28.6H617.522V27.6ZM617.522 18.48V17.48H616.522V18.48H617.522ZM633.362 18.48V19.48H634.362V18.48H633.362ZM633.362 9.04H634.362V8.04H633.362V9.04ZM617.522 9.04H616.522V10.04H617.522V9.04ZM617.522 -3.8147e-06V-1H616.522V-3.8147e-06H617.522ZM634.002 -3.8147e-06L634.507 -0.863252L634.273 -1H634.002V-3.8147e-06ZM587.322 5.52V46H589.322V5.52H587.322ZM588.322 47H598.402V45H588.322V47ZM599.402 46V27.6H597.402V46H599.402ZM598.402 28.6H613.922V26.6H598.402V28.6ZM614.922 27.6V18.48H612.922V27.6H614.922ZM613.922 17.48H598.402V19.48H613.922V17.48ZM599.402 18.48V9.04H597.402V18.48H599.402ZM598.402 10.04H613.922V8.04H598.402V10.04ZM614.922 9.04V-3.8147e-06H612.922V9.04H614.922ZM613.922 -1H597.442V0.999996H613.922V-1ZM596.924 -0.855504L587.804 4.6645L588.84 6.3755L597.96 0.855496L596.924 -0.855504ZM642.442 5.52V46H644.442V5.52H642.442ZM643.442 45H633.362V47H643.442V45ZM634.362 46V27.6H632.362V46H634.362ZM633.362 26.6H617.522V28.6H633.362V26.6ZM618.522 27.6V18.48H616.522V27.6H618.522ZM617.522 19.48H633.362V17.48H617.522V19.48ZM634.362 18.48V9.04H632.362V18.48H634.362ZM633.362 8.04H617.522V10.04H633.362V8.04ZM618.522 9.04V-3.8147e-06H616.522V9.04H618.522ZM617.522 0.999996H634.002V-1H617.522V0.999996ZM633.497 0.863244L642.937 6.38324L643.947 4.65675L634.507 -0.863252L633.497 0.863244Z" fill="white"/>
</svg>
