<?xml version="1.0" encoding="UTF-8" standalone="no"?>
<!-- Created with Inkscape (http://www.inkscape.org/) -->

<svg
   width="124.70808mm"
   height="33.061241mm"
   viewBox="0 0 124.70808 33.061241"
   version="1.1"
   id="svg501"
   xml:space="preserve"
   xmlns:inkscape="http://www.inkscape.org/namespaces/inkscape"
   xmlns:sodipodi="http://sodipodi.sourceforge.net/DTD/sodipodi-0.dtd"
   xmlns="http://www.w3.org/2000/svg"
   xmlns:svg="http://www.w3.org/2000/svg"><sodipodi:namedview
     id="namedview503"
     pagecolor="#ffffff"
     bordercolor="#000000"
     borderopacity="0.25"
     inkscape:showpageshadow="2"
     inkscape:pageopacity="0.0"
     inkscape:pagecheckerboard="0"
     inkscape:deskcolor="#d1d1d1"
     inkscape:document-units="mm"
     showgrid="false" /><defs
     id="defs498" /><g
     inkscape:label="Camada 1"
     inkscape:groupmode="layer"
     id="layer1"
     transform="translate(-46.449643,-78.782118)"><path
       style="fill:#ffffff;stroke-width:0.105885"
       d="m 69.044324,111.807 c -0.232944,-0.0227 -0.971492,-0.0931 -1.64121,-0.15646 -7.422168,-0.70221 -14.586678,-3.86427 -18.164683,-8.01699 -2.615046,-3.03508 -3.443682,-6.665288 -2.262021,-9.909783 1.229569,-3.376041 4.761064,-6.051381 8.756925,-6.633948 1.282605,-0.186994 3.874561,-0.08223 4.922727,0.198959 1.229741,0.329909 2.495367,0.991243 3.2894,1.718831 0.586055,0.537011 1.399358,1.555776 1.311865,1.643271 -0.01524,0.01524 -0.741772,-0.110347 -1.61454,-0.279058 -2.726076,-0.526968 -4.301728,-0.374288 -6.294226,0.609917 -1.312738,0.64843 -2.236309,1.535705 -2.806756,2.696454 -0.345805,0.70364 -0.407397,0.941636 -0.453654,1.752938 -0.09557,1.676072 0.439393,2.923424 1.878565,4.380196 1.342245,1.358663 2.974864,2.242063 5.150549,2.786953 1.636556,0.40986 2.754098,0.51689 4.750519,0.45495 1.543511,-0.0479 1.976702,-0.10144 3.03965,-0.37577 3.221191,-0.83136 5.947979,-2.50841 8.934627,-5.49506 1.365875,-1.365877 2.440744,-2.628106 5.434658,-6.381977 1.37069,-1.718617 2.975049,-3.672713 3.565242,-4.342434 3.617534,-4.104998 6.811214,-6.336549 10.408499,-7.27283 1.471689,-0.383043 3.60368,-0.451874 4.98871,-0.16106 1.56391,0.328377 2.04639,0.560173 3.60008,1.729576 1.62715,1.224696 2.07682,1.463323 2.76367,1.466601 0.73986,0.0035 1.0716,-0.157519 2.4647,-1.196554 1.91061,-1.425014 3.24762,-1.966537 5.40492,-2.189128 2.42988,-0.250714 5.42729,0.409064 7.81603,1.720435 1.50481,0.826111 2.74516,1.790887 4.32181,3.361602 1.72378,1.7173 3.07186,3.368038 5.92337,7.253227 2.50252,3.409696 3.6781,4.873199 5.11544,6.368338 2.83843,2.952574 5.27276,4.443864 8.3851,5.136784 1.25058,0.27843 4.5292,0.38304 6.22087,0.19849 5.68032,-0.61968 9.69068,-3.919309 9.09952,-7.486868 -0.34593,-2.087589 -2.1473,-4.02925 -4.54552,-4.899504 -1.08613,-0.394131 -2.22902,-0.577276 -3.06679,-0.491442 -0.36985,0.03789 -1.34854,0.20802 -2.17488,0.378068 -0.82633,0.170042 -1.51547,0.296116 -1.53143,0.280162 -0.10928,-0.109278 0.6432,-1.269259 1.14185,-1.760239 1.39308,-1.371613 3.70731,-1.973614 6.87429,-1.788202 3.42912,0.200758 6.60033,1.560264 8.73548,3.744934 2.66596,2.727788 3.09335,6.164334 1.2287,9.880061 -2.59653,5.17419 -9.09435,8.90085 -18.1173,10.3907 -3.07672,0.50803 -7.80793,0.69305 -10.95907,0.42857 -6.61072,-0.55483 -13.24853,-2.41162 -19.53572,-5.46468 -5.09755,-2.47539 -8.84647,-5.25071 -10.61884,-7.861116 -0.41992,-0.618485 -0.96481,-1.32702 -1.21085,-1.574525 -0.39719,-0.39955 -0.50204,-0.450011 -0.93509,-0.450011 -0.45366,0 -0.52969,0.04257 -1.0881,0.609261 -0.33021,0.335095 -0.98541,1.180849 -1.456,1.879452 -1.2762,1.894529 -3.06763,3.423549 -6.185704,5.279649 -7.011118,4.17351 -14.302828,6.62168 -22.765205,7.64337 -1.349071,0.16288 -7.029128,0.30024 -8.100177,0.19589 z"
       id="path125045"
       inkscape:export-filename="bigodin.svg"
       inkscape:export-xdpi="92.649521"
       inkscape:export-ydpi="92.649521" /></g></svg>
