<svg width="1298" height="277" viewBox="0 0 1298 277" fill="none" xmlns="http://www.w3.org/2000/svg">
<rect x="2" width="1296" height="277" fill="black"/>
<path d="M18.6377 174.75H66.6377V191.7H37.5377V243.45H66.6377V261H18.6377V174.75ZM121.988 185.1L105.038 174.75H73.9877V191.7H103.088V243.45H73.9877V261H105.038L121.988 250.8V185.1ZM146.009 185.1L163.559 174.75H194.609V191.7H164.909V243.45H194.009V261H163.559L146.009 250.8V185.1ZM249.359 185.1L232.409 174.75H201.359V191.7H230.459V243.45H201.359V261H232.409L249.359 250.8V185.1ZM276.304 174.75H293.404L324.304 203.85V226.5L295.204 198.45V261H276.304V174.75ZM360.754 236.7V174.75H379.654V261H361.954L331.054 231.3V209.4L360.754 236.7ZM451.575 185.1L469.125 174.75H500.175V191.7H471.075V243.45H499.575V261H469.125L451.575 250.8V185.1ZM536.025 233.1V243.45H507.525V261H537.975L555.525 250.8V233.1H536.025ZM555.525 202.2V185.1L537.975 174.75H506.925V191.7H536.025V202.2H555.525ZM570.228 185.1V261H589.128V226.5H618.228V209.4H589.128V191.7H618.228V174.75H587.328L570.228 185.1ZM673.578 185.1V261H654.678V226.5H624.978V209.4H654.678V191.7H624.978V174.75H655.878L673.578 185.1ZM700.522 174.75H717.622L748.522 203.85V226.5L719.422 198.45V261H700.522V174.75ZM784.972 236.7V174.75H803.872V261H786.172L755.272 231.3V209.4L784.972 236.7ZM830.823 174.75V250.8L847.923 261H878.823V243.45H849.723V174.75H830.823ZM934.173 174.75V250.8L917.223 261H886.173V243.45H915.273V174.75H934.173ZM1053.97 191.7H1010.77V261H990.068V191.7H950.618V174.75H1053.97V191.7ZM1166.32 191.7H1123.12V261H1102.42V191.7H1062.97V174.75H1166.32V191.7ZM1181.07 185.1L1198.62 174.75H1229.67V191.7H1199.97V243.45H1229.07V261H1198.62L1181.07 250.8V185.1ZM1284.42 185.1L1267.47 174.75H1236.42V191.7H1265.52V243.45H1236.42V261H1267.47L1284.42 250.8V185.1Z" fill="black"/>
<path d="M18.6377 174.75V172.75H16.6377V174.75H18.6377ZM66.6377 174.75H68.6377V172.75H66.6377V174.75ZM66.6377 191.7V193.7H68.6377V191.7H66.6377ZM37.5377 191.7V189.7H35.5377V191.7H37.5377ZM37.5377 243.45H35.5377V245.45H37.5377V243.45ZM66.6377 243.45H68.6377V241.45H66.6377V243.45ZM66.6377 261V263H68.6377V261H66.6377ZM18.6377 261H16.6377V263H18.6377V261ZM121.988 185.1H123.988V183.978L123.03 183.393L121.988 185.1ZM105.038 174.75L106.08 173.043L105.6 172.75H105.038V174.75ZM73.9877 174.75V172.75H71.9877V174.75H73.9877ZM73.9877 191.7H71.9877V193.7H73.9877V191.7ZM103.088 191.7H105.088V189.7H103.088V191.7ZM103.088 243.45V245.45H105.088V243.45H103.088ZM73.9877 243.45V241.45H71.9877V243.45H73.9877ZM73.9877 261H71.9877V263H73.9877V261ZM105.038 261V263H105.593L106.069 262.714L105.038 261ZM121.988 250.8L123.019 252.514L123.988 251.931V250.8H121.988ZM18.6377 176.75H66.6377V172.75H18.6377V176.75ZM64.6377 174.75V191.7H68.6377V174.75H64.6377ZM66.6377 189.7H37.5377V193.7H66.6377V189.7ZM35.5377 191.7V243.45H39.5377V191.7H35.5377ZM37.5377 245.45H66.6377V241.45H37.5377V245.45ZM64.6377 243.45V261H68.6377V243.45H64.6377ZM66.6377 259H18.6377V263H66.6377V259ZM20.6377 261V174.75H16.6377V261H20.6377ZM123.03 183.393L106.08 173.043L103.995 176.457L120.945 186.807L123.03 183.393ZM105.038 172.75H73.9877V176.75H105.038V172.75ZM71.9877 174.75V191.7H75.9877V174.75H71.9877ZM73.9877 193.7H103.088V189.7H73.9877V193.7ZM101.088 191.7V243.45H105.088V191.7H101.088ZM103.088 241.45H73.9877V245.45H103.088V241.45ZM71.9877 243.45V261H75.9877V243.45H71.9877ZM73.9877 263H105.038V259H73.9877V263ZM106.069 262.714L123.019 252.514L120.956 249.086L104.006 259.286L106.069 262.714ZM123.988 250.8V185.1H119.988V250.8H123.988ZM146.009 185.1L144.993 183.377L144.009 183.958V185.1H146.009ZM163.559 174.75V172.75H163.013L162.543 173.027L163.559 174.75ZM194.609 174.75H196.609V172.75H194.609V174.75ZM194.609 191.7V193.7H196.609V191.7H194.609ZM164.909 191.7V189.7H162.909V191.7H164.909ZM164.909 243.45H162.909V245.45H164.909V243.45ZM194.009 243.45H196.009V241.45H194.009V243.45ZM194.009 261V263H196.009V261H194.009ZM163.559 261L162.554 262.729L163.02 263H163.559V261ZM146.009 250.8H144.009V251.951L145.004 252.529L146.009 250.8ZM249.359 185.1H251.359V183.978L250.401 183.393L249.359 185.1ZM232.409 174.75L233.451 173.043L232.971 172.75H232.409V174.75ZM201.359 174.75V172.75H199.359V174.75H201.359ZM201.359 191.7H199.359V193.7H201.359V191.7ZM230.459 191.7H232.459V189.7H230.459V191.7ZM230.459 243.45V245.45H232.459V243.45H230.459ZM201.359 243.45V241.45H199.359V243.45H201.359ZM201.359 261H199.359V263H201.359V261ZM232.409 261V263H232.964L233.44 262.714L232.409 261ZM249.359 250.8L250.39 252.514L251.359 251.931V250.8H249.359ZM147.025 186.823L164.575 176.473L162.543 173.027L144.993 183.377L147.025 186.823ZM163.559 176.75H194.609V172.75H163.559V176.75ZM192.609 174.75V191.7H196.609V174.75H192.609ZM194.609 189.7H164.909V193.7H194.609V189.7ZM162.909 191.7V243.45H166.909V191.7H162.909ZM164.909 245.45H194.009V241.45H164.909V245.45ZM192.009 243.45V261H196.009V243.45H192.009ZM194.009 259H163.559V263H194.009V259ZM164.564 259.271L147.014 249.071L145.004 252.529L162.554 262.729L164.564 259.271ZM148.009 250.8V185.1H144.009V250.8H148.009ZM250.401 183.393L233.451 173.043L231.367 176.457L248.317 186.807L250.401 183.393ZM232.409 172.75H201.359V176.75H232.409V172.75ZM199.359 174.75V191.7H203.359V174.75H199.359ZM201.359 193.7H230.459V189.7H201.359V193.7ZM228.459 191.7V243.45H232.459V191.7H228.459ZM230.459 241.45H201.359V245.45H230.459V241.45ZM199.359 243.45V261H203.359V243.45H199.359ZM201.359 263H232.409V259H201.359V263ZM233.44 262.714L250.39 252.514L248.328 249.086L231.378 259.286L233.44 262.714ZM251.359 250.8V185.1H247.359V250.8H251.359ZM276.304 174.75V172.75H274.304V174.75H276.304ZM293.404 174.75L294.775 173.294L294.197 172.75H293.404V174.75ZM324.304 203.85H326.304V202.986L325.675 202.394L324.304 203.85ZM324.304 226.5L322.916 227.94L326.304 231.206V226.5H324.304ZM295.204 198.45L296.592 197.01L293.204 193.744V198.45H295.204ZM295.204 261V263H297.204V261H295.204ZM276.304 261H274.304V263H276.304V261ZM360.754 236.7L359.4 238.172L362.754 241.255V236.7H360.754ZM360.754 174.75V172.75H358.754V174.75H360.754ZM379.654 174.75H381.654V172.75H379.654V174.75ZM379.654 261V263H381.654V261H379.654ZM361.954 261L360.568 262.442L361.148 263H361.954V261ZM331.054 231.3H329.054V232.152L329.668 232.742L331.054 231.3ZM331.054 209.4L332.407 207.928L329.054 204.845V209.4H331.054ZM276.304 176.75H293.404V172.75H276.304V176.75ZM292.033 176.206L322.933 205.306L325.675 202.394L294.775 173.294L292.033 176.206ZM322.304 203.85V226.5H326.304V203.85H322.304ZM325.692 225.06L296.592 197.01L293.816 199.89L322.916 227.94L325.692 225.06ZM293.204 198.45V261H297.204V198.45H293.204ZM295.204 259H276.304V263H295.204V259ZM278.304 261V174.75H274.304V261H278.304ZM362.754 236.7V174.75H358.754V236.7H362.754ZM360.754 176.75H379.654V172.75H360.754V176.75ZM377.654 174.75V261H381.654V174.75H377.654ZM379.654 259H361.954V263H379.654V259ZM363.34 259.558L332.44 229.858L329.668 232.742L360.568 262.442L363.34 259.558ZM333.054 231.3V209.4H329.054V231.3H333.054ZM329.7 210.872L359.4 238.172L362.107 235.228L332.407 207.928L329.7 210.872ZM451.575 185.1L450.559 183.377L449.575 183.958V185.1H451.575ZM469.125 174.75V172.75H468.579L468.109 173.027L469.125 174.75ZM500.175 174.75H502.175V172.75H500.175V174.75ZM500.175 191.7V193.7H502.175V191.7H500.175ZM471.075 191.7V189.7H469.075V191.7H471.075ZM471.075 243.45H469.075V245.45H471.075V243.45ZM499.575 243.45H501.575V241.45H499.575V243.45ZM499.575 261V263H501.575V261H499.575ZM469.125 261L468.12 262.729L468.586 263H469.125V261ZM451.575 250.8H449.575V251.951L450.57 252.529L451.575 250.8ZM536.025 233.1V231.1H534.025V233.1H536.025ZM536.025 243.45V245.45H538.025V243.45H536.025ZM507.525 243.45V241.45H505.525V243.45H507.525ZM507.525 261H505.525V263H507.525V261ZM537.975 261V263H538.514L538.98 262.729L537.975 261ZM555.525 250.8L556.53 252.529L557.525 251.951V250.8H555.525ZM555.525 233.1H557.525V231.1H555.525V233.1ZM555.525 202.2V204.2H557.525V202.2H555.525ZM555.525 185.1H557.525V183.958L556.541 183.377L555.525 185.1ZM537.975 174.75L538.991 173.027L538.521 172.75H537.975V174.75ZM506.925 174.75V172.75H504.925V174.75H506.925ZM506.925 191.7H504.925V193.7H506.925V191.7ZM536.025 191.7H538.025V189.7H536.025V191.7ZM536.025 202.2H534.025V204.2H536.025V202.2ZM452.591 186.823L470.141 176.473L468.109 173.027L450.559 183.377L452.591 186.823ZM469.125 176.75H500.175V172.75H469.125V176.75ZM498.175 174.75V191.7H502.175V174.75H498.175ZM500.175 189.7H471.075V193.7H500.175V189.7ZM469.075 191.7V243.45H473.075V191.7H469.075ZM471.075 245.45H499.575V241.45H471.075V245.45ZM497.575 243.45V261H501.575V243.45H497.575ZM499.575 259H469.125V263H499.575V259ZM470.13 259.271L452.58 249.071L450.57 252.529L468.12 262.729L470.13 259.271ZM453.575 250.8V185.1H449.575V250.8H453.575ZM534.025 233.1V243.45H538.025V233.1H534.025ZM536.025 241.45H507.525V245.45H536.025V241.45ZM505.525 243.45V261H509.525V243.45H505.525ZM507.525 263H537.975V259H507.525V263ZM538.98 262.729L556.53 252.529L554.52 249.071L536.97 259.271L538.98 262.729ZM557.525 250.8V233.1H553.525V250.8H557.525ZM555.525 231.1H536.025V235.1H555.525V231.1ZM557.525 202.2V185.1H553.525V202.2H557.525ZM556.541 183.377L538.991 173.027L536.959 176.473L554.509 186.823L556.541 183.377ZM537.975 172.75H506.925V176.75H537.975V172.75ZM504.925 174.75V191.7H508.925V174.75H504.925ZM506.925 193.7H536.025V189.7H506.925V193.7ZM534.025 191.7V202.2H538.025V191.7H534.025ZM536.025 204.2H555.525V200.2H536.025V204.2ZM570.228 185.1L569.192 183.389L568.228 183.973V185.1H570.228ZM570.228 261H568.228V263H570.228V261ZM589.128 261V263H591.128V261H589.128ZM589.128 226.5V224.5H587.128V226.5H589.128ZM618.228 226.5V228.5H620.228V226.5H618.228ZM618.228 209.4H620.228V207.4H618.228V209.4ZM589.128 209.4H587.128V211.4H589.128V209.4ZM589.128 191.7V189.7H587.128V191.7H589.128ZM618.228 191.7V193.7H620.228V191.7H618.228ZM618.228 174.75H620.228V172.75H618.228V174.75ZM587.328 174.75V172.75H586.769L586.292 173.039L587.328 174.75ZM673.578 185.1H675.578V183.953L674.587 183.373L673.578 185.1ZM673.578 261V263H675.578V261H673.578ZM654.678 261H652.678V263H654.678V261ZM654.678 226.5H656.678V224.5H654.678V226.5ZM624.978 226.5H622.978V228.5H624.978V226.5ZM624.978 209.4V207.4H622.978V209.4H624.978ZM654.678 209.4V211.4H656.678V209.4H654.678ZM654.678 191.7H656.678V189.7H654.678V191.7ZM624.978 191.7H622.978V193.7H624.978V191.7ZM624.978 174.75V172.75H622.978V174.75H624.978ZM655.878 174.75L656.887 173.023L656.419 172.75H655.878V174.75ZM568.228 185.1V261H572.228V185.1H568.228ZM570.228 263H589.128V259H570.228V263ZM591.128 261V226.5H587.128V261H591.128ZM589.128 228.5H618.228V224.5H589.128V228.5ZM620.228 226.5V209.4H616.228V226.5H620.228ZM618.228 207.4H589.128V211.4H618.228V207.4ZM591.128 209.4V191.7H587.128V209.4H591.128ZM589.128 193.7H618.228V189.7H589.128V193.7ZM620.228 191.7V174.75H616.228V191.7H620.228ZM618.228 172.75H587.328V176.75H618.228V172.75ZM586.292 173.039L569.192 183.389L571.263 186.811L588.363 176.461L586.292 173.039ZM671.578 185.1V261H675.578V185.1H671.578ZM673.578 259H654.678V263H673.578V259ZM656.678 261V226.5H652.678V261H656.678ZM654.678 224.5H624.978V228.5H654.678V224.5ZM626.978 226.5V209.4H622.978V226.5H626.978ZM624.978 211.4H654.678V207.4H624.978V211.4ZM656.678 209.4V191.7H652.678V209.4H656.678ZM654.678 189.7H624.978V193.7H654.678V189.7ZM626.978 191.7V174.75H622.978V191.7H626.978ZM624.978 176.75H655.878V172.75H624.978V176.75ZM654.868 176.476L672.568 186.826L674.587 183.373L656.887 173.023L654.868 176.476ZM700.522 174.75V172.75H698.522V174.75H700.522ZM717.622 174.75L718.994 173.294L718.416 172.75H717.622V174.75ZM748.522 203.85H750.522V202.986L749.894 202.394L748.522 203.85ZM748.522 226.5L747.134 227.94L750.522 231.206V226.5H748.522ZM719.422 198.45L720.81 197.01L717.422 193.744V198.45H719.422ZM719.422 261V263H721.422V261H719.422ZM700.522 261H698.522V263H700.522V261ZM784.972 236.7L783.619 238.172L786.972 241.255V236.7H784.972ZM784.972 174.75V172.75H782.972V174.75H784.972ZM803.872 174.75H805.872V172.75H803.872V174.75ZM803.872 261V263H805.872V261H803.872ZM786.172 261L784.787 262.442L785.367 263H786.172V261ZM755.272 231.3H753.272V232.152L753.887 232.742L755.272 231.3ZM755.272 209.4L756.626 207.928L753.272 204.845V209.4H755.272ZM700.522 176.75H717.622V172.75H700.522V176.75ZM716.251 176.206L747.151 205.306L749.894 202.394L718.994 173.294L716.251 176.206ZM746.522 203.85V226.5H750.522V203.85H746.522ZM749.91 225.06L720.81 197.01L718.034 199.89L747.134 227.94L749.91 225.06ZM717.422 198.45V261H721.422V198.45H717.422ZM719.422 259H700.522V263H719.422V259ZM702.522 261V174.75H698.522V261H702.522ZM786.972 236.7V174.75H782.972V236.7H786.972ZM784.972 176.75H803.872V172.75H784.972V176.75ZM801.872 174.75V261H805.872V174.75H801.872ZM803.872 259H786.172V263H803.872V259ZM787.558 259.558L756.658 229.858L753.887 232.742L784.787 262.442L787.558 259.558ZM757.272 231.3V209.4H753.272V231.3H757.272ZM753.919 210.872L783.619 238.172L786.326 235.228L756.626 207.928L753.919 210.872ZM830.823 174.75V172.75H828.823V174.75H830.823ZM830.823 250.8H828.823V251.936L829.799 252.518L830.823 250.8ZM847.923 261L846.899 262.718L847.372 263H847.923V261ZM878.823 261V263H880.823V261H878.823ZM878.823 243.45H880.823V241.45H878.823V243.45ZM849.723 243.45H847.723V245.45H849.723V243.45ZM849.723 174.75H851.723V172.75H849.723V174.75ZM934.173 174.75H936.173V172.75H934.173V174.75ZM934.173 250.8L935.204 252.514L936.173 251.931V250.8H934.173ZM917.223 261V263H917.779L918.254 262.714L917.223 261ZM886.173 261H884.173V263H886.173V261ZM886.173 243.45V241.45H884.173V243.45H886.173ZM915.273 243.45V245.45H917.273V243.45H915.273ZM915.273 174.75V172.75H913.273V174.75H915.273ZM828.823 174.75V250.8H832.823V174.75H828.823ZM829.799 252.518L846.899 262.718L848.948 259.282L831.848 249.082L829.799 252.518ZM847.923 263H878.823V259H847.923V263ZM880.823 261V243.45H876.823V261H880.823ZM878.823 241.45H849.723V245.45H878.823V241.45ZM851.723 243.45V174.75H847.723V243.45H851.723ZM849.723 172.75H830.823V176.75H849.723V172.75ZM932.173 174.75V250.8H936.173V174.75H932.173ZM933.142 249.086L916.192 259.286L918.254 262.714L935.204 252.514L933.142 249.086ZM917.223 259H886.173V263H917.223V259ZM888.173 261V243.45H884.173V261H888.173ZM886.173 245.45H915.273V241.45H886.173V245.45ZM917.273 243.45V174.75H913.273V243.45H917.273ZM915.273 176.75H934.173V172.75H915.273V176.75ZM1053.97 191.7V193.7H1055.97V191.7H1053.97ZM1010.77 191.7V189.7H1008.77V191.7H1010.77ZM1010.77 261V263H1012.77V261H1010.77ZM990.068 261H988.068V263H990.068V261ZM990.068 191.7H992.068V189.7H990.068V191.7ZM950.618 191.7H948.618V193.7H950.618V191.7ZM950.618 174.75V172.75H948.618V174.75H950.618ZM1053.97 174.75H1055.97V172.75H1053.97V174.75ZM1053.97 189.7H1010.77V193.7H1053.97V189.7ZM1008.77 191.7V261H1012.77V191.7H1008.77ZM1010.77 259H990.068V263H1010.77V259ZM992.068 261V191.7H988.068V261H992.068ZM990.068 189.7H950.618V193.7H990.068V189.7ZM952.618 191.7V174.75H948.618V191.7H952.618ZM950.618 176.75H1053.97V172.75H950.618V176.75ZM1051.97 174.75V191.7H1055.97V174.75H1051.97ZM1166.32 191.7V193.7H1168.32V191.7H1166.32ZM1123.12 191.7V189.7H1121.12V191.7H1123.12ZM1123.12 261V263H1125.12V261H1123.12ZM1102.42 261H1100.42V263H1102.42V261ZM1102.42 191.7H1104.42V189.7H1102.42V191.7ZM1062.97 191.7H1060.97V193.7H1062.97V191.7ZM1062.97 174.75V172.75H1060.97V174.75H1062.97ZM1166.32 174.75H1168.32V172.75H1166.32V174.75ZM1166.32 189.7H1123.12V193.7H1166.32V189.7ZM1121.12 191.7V261H1125.12V191.7H1121.12ZM1123.12 259H1102.42V263H1123.12V259ZM1104.42 261V191.7H1100.42V261H1104.42ZM1102.42 189.7H1062.97V193.7H1102.42V189.7ZM1064.97 191.7V174.75H1060.97V191.7H1064.97ZM1062.97 176.75H1166.32V172.75H1062.97V176.75ZM1164.32 174.75V191.7H1168.32V174.75H1164.32ZM1181.07 185.1L1180.05 183.377L1179.07 183.958V185.1H1181.07ZM1198.62 174.75V172.75H1198.07L1197.6 173.027L1198.62 174.75ZM1229.67 174.75H1231.67V172.75H1229.67V174.75ZM1229.67 191.7V193.7H1231.67V191.7H1229.67ZM1199.97 191.7V189.7H1197.97V191.7H1199.97ZM1199.97 243.45H1197.97V245.45H1199.97V243.45ZM1229.07 243.45H1231.07V241.45H1229.07V243.45ZM1229.07 261V263H1231.07V261H1229.07ZM1198.62 261L1197.61 262.729L1198.08 263H1198.62V261ZM1181.07 250.8H1179.07V251.951L1180.06 252.529L1181.07 250.8ZM1284.42 185.1H1286.42V183.978L1285.46 183.393L1284.42 185.1ZM1267.47 174.75L1268.51 173.043L1268.03 172.75H1267.47V174.75ZM1236.42 174.75V172.75H1234.42V174.75H1236.42ZM1236.42 191.7H1234.42V193.7H1236.42V191.7ZM1265.52 191.7H1267.52V189.7H1265.52V191.7ZM1265.52 243.45V245.45H1267.52V243.45H1265.52ZM1236.42 243.45V241.45H1234.42V243.45H1236.42ZM1236.42 261H1234.42V263H1236.42V261ZM1267.47 261V263H1268.02L1268.5 262.714L1267.47 261ZM1284.42 250.8L1285.45 252.514L1286.42 251.931V250.8H1284.42ZM1182.08 186.823L1199.63 176.473L1197.6 173.027L1180.05 183.377L1182.08 186.823ZM1198.62 176.75H1229.67V172.75H1198.62V176.75ZM1227.67 174.75V191.7H1231.67V174.75H1227.67ZM1229.67 189.7H1199.97V193.7H1229.67V189.7ZM1197.97 191.7V243.45H1201.97V191.7H1197.97ZM1199.97 245.45H1229.07V241.45H1199.97V245.45ZM1227.07 243.45V261H1231.07V243.45H1227.07ZM1229.07 259H1198.62V263H1229.07V259ZM1199.62 259.271L1182.07 249.071L1180.06 252.529L1197.61 262.729L1199.62 259.271ZM1183.07 250.8V185.1H1179.07V250.8H1183.07ZM1285.46 183.393L1268.51 173.043L1266.43 176.457L1283.38 186.807L1285.46 183.393ZM1267.47 172.75H1236.42V176.75H1267.47V172.75ZM1234.42 174.75V191.7H1238.42V174.75H1234.42ZM1236.42 193.7H1265.52V189.7H1236.42V193.7ZM1263.52 191.7V243.45H1267.52V191.7H1263.52ZM1265.52 241.45H1236.42V245.45H1265.52V241.45ZM1234.42 243.45V261H1238.42V243.45H1234.42ZM1236.42 263H1267.47V259H1236.42V263ZM1268.5 262.714L1285.45 252.514L1283.39 249.086L1266.44 259.286L1268.5 262.714ZM1286.42 250.8V185.1H1282.42V250.8H1286.42Z" fill="white"/>
<rect x="4" y="149" width="1294" height="106" fill="black"/>
<path d="M18.6377 137.75H66.6377V154.7H37.5377V206.45H66.6377V224H18.6377V137.75ZM121.988 148.1L105.038 137.75H73.9877V154.7H103.088V206.45H73.9877V224H105.038L121.988 213.8V148.1ZM146.009 148.1L163.559 137.75H194.609V154.7H164.909V206.45H194.009V224H163.559L146.009 213.8V148.1ZM249.359 148.1L232.409 137.75H201.359V154.7H230.459V206.45H201.359V224H232.409L249.359 213.8V148.1ZM276.304 137.75H293.404L324.304 166.85V189.5L295.204 161.45V224H276.304V137.75ZM360.754 199.7V137.75H379.654V224H361.954L331.054 194.3V172.4L360.754 199.7ZM451.575 148.1L469.125 137.75H500.175V154.7H471.075V206.45H499.575V224H469.125L451.575 213.8V148.1ZM536.025 196.1V206.45H507.525V224H537.975L555.525 213.8V196.1H536.025ZM555.525 165.2V148.1L537.975 137.75H506.925V154.7H536.025V165.2H555.525ZM570.228 148.1V224H589.128V189.5H618.228V172.4H589.128V154.7H618.228V137.75H587.328L570.228 148.1ZM673.578 148.1V224H654.678V189.5H624.978V172.4H654.678V154.7H624.978V137.75H655.878L673.578 148.1ZM700.522 137.75H717.622L748.522 166.85V189.5L719.422 161.45V224H700.522V137.75ZM784.972 199.7V137.75H803.872V224H786.172L755.272 194.3V172.4L784.972 199.7ZM830.823 137.75V213.8L847.923 224H878.823V206.45H849.723V137.75H830.823ZM934.173 137.75V213.8L917.223 224H886.173V206.45H915.273V137.75H934.173ZM1053.97 154.7H1010.77V224H990.068V154.7H950.618V137.75H1053.97V154.7ZM1166.32 154.7H1123.12V224H1102.42V154.7H1062.97V137.75H1166.32V154.7ZM1181.07 148.1L1198.62 137.75H1229.67V154.7H1199.97V206.45H1229.07V224H1198.62L1181.07 213.8V148.1ZM1284.42 148.1L1267.47 137.75H1236.42V154.7H1265.52V206.45H1236.42V224H1267.47L1284.42 213.8V148.1Z" fill="black"/>
<path d="M18.6377 137.75V135.75H16.6377V137.75H18.6377ZM66.6377 137.75H68.6377V135.75H66.6377V137.75ZM66.6377 154.7V156.7H68.6377V154.7H66.6377ZM37.5377 154.7V152.7H35.5377V154.7H37.5377ZM37.5377 206.45H35.5377V208.45H37.5377V206.45ZM66.6377 206.45H68.6377V204.45H66.6377V206.45ZM66.6377 224V226H68.6377V224H66.6377ZM18.6377 224H16.6377V226H18.6377V224ZM121.988 148.1H123.988V146.978L123.03 146.393L121.988 148.1ZM105.038 137.75L106.08 136.043L105.6 135.75H105.038V137.75ZM73.9877 137.75V135.75H71.9877V137.75H73.9877ZM73.9877 154.7H71.9877V156.7H73.9877V154.7ZM103.088 154.7H105.088V152.7H103.088V154.7ZM103.088 206.45V208.45H105.088V206.45H103.088ZM73.9877 206.45V204.45H71.9877V206.45H73.9877ZM73.9877 224H71.9877V226H73.9877V224ZM105.038 224V226H105.593L106.069 225.714L105.038 224ZM121.988 213.8L123.019 215.514L123.988 214.931V213.8H121.988ZM18.6377 139.75H66.6377V135.75H18.6377V139.75ZM64.6377 137.75V154.7H68.6377V137.75H64.6377ZM66.6377 152.7H37.5377V156.7H66.6377V152.7ZM35.5377 154.7V206.45H39.5377V154.7H35.5377ZM37.5377 208.45H66.6377V204.45H37.5377V208.45ZM64.6377 206.45V224H68.6377V206.45H64.6377ZM66.6377 222H18.6377V226H66.6377V222ZM20.6377 224V137.75H16.6377V224H20.6377ZM123.03 146.393L106.08 136.043L103.995 139.457L120.945 149.807L123.03 146.393ZM105.038 135.75H73.9877V139.75H105.038V135.75ZM71.9877 137.75V154.7H75.9877V137.75H71.9877ZM73.9877 156.7H103.088V152.7H73.9877V156.7ZM101.088 154.7V206.45H105.088V154.7H101.088ZM103.088 204.45H73.9877V208.45H103.088V204.45ZM71.9877 206.45V224H75.9877V206.45H71.9877ZM73.9877 226H105.038V222H73.9877V226ZM106.069 225.714L123.019 215.514L120.956 212.086L104.006 222.286L106.069 225.714ZM123.988 213.8V148.1H119.988V213.8H123.988ZM146.009 148.1L144.993 146.377L144.009 146.958V148.1H146.009ZM163.559 137.75V135.75H163.013L162.543 136.027L163.559 137.75ZM194.609 137.75H196.609V135.75H194.609V137.75ZM194.609 154.7V156.7H196.609V154.7H194.609ZM164.909 154.7V152.7H162.909V154.7H164.909ZM164.909 206.45H162.909V208.45H164.909V206.45ZM194.009 206.45H196.009V204.45H194.009V206.45ZM194.009 224V226H196.009V224H194.009ZM163.559 224L162.554 225.729L163.02 226H163.559V224ZM146.009 213.8H144.009V214.951L145.004 215.529L146.009 213.8ZM249.359 148.1H251.359V146.978L250.401 146.393L249.359 148.1ZM232.409 137.75L233.451 136.043L232.971 135.75H232.409V137.75ZM201.359 137.75V135.75H199.359V137.75H201.359ZM201.359 154.7H199.359V156.7H201.359V154.7ZM230.459 154.7H232.459V152.7H230.459V154.7ZM230.459 206.45V208.45H232.459V206.45H230.459ZM201.359 206.45V204.45H199.359V206.45H201.359ZM201.359 224H199.359V226H201.359V224ZM232.409 224V226H232.964L233.44 225.714L232.409 224ZM249.359 213.8L250.39 215.514L251.359 214.931V213.8H249.359ZM147.025 149.823L164.575 139.473L162.543 136.027L144.993 146.377L147.025 149.823ZM163.559 139.75H194.609V135.75H163.559V139.75ZM192.609 137.75V154.7H196.609V137.75H192.609ZM194.609 152.7H164.909V156.7H194.609V152.7ZM162.909 154.7V206.45H166.909V154.7H162.909ZM164.909 208.45H194.009V204.45H164.909V208.45ZM192.009 206.45V224H196.009V206.45H192.009ZM194.009 222H163.559V226H194.009V222ZM164.564 222.271L147.014 212.071L145.004 215.529L162.554 225.729L164.564 222.271ZM148.009 213.8V148.1H144.009V213.8H148.009ZM250.401 146.393L233.451 136.043L231.367 139.457L248.317 149.807L250.401 146.393ZM232.409 135.75H201.359V139.75H232.409V135.75ZM199.359 137.75V154.7H203.359V137.75H199.359ZM201.359 156.7H230.459V152.7H201.359V156.7ZM228.459 154.7V206.45H232.459V154.7H228.459ZM230.459 204.45H201.359V208.45H230.459V204.45ZM199.359 206.45V224H203.359V206.45H199.359ZM201.359 226H232.409V222H201.359V226ZM233.44 225.714L250.39 215.514L248.328 212.086L231.378 222.286L233.44 225.714ZM251.359 213.8V148.1H247.359V213.8H251.359ZM276.304 137.75V135.75H274.304V137.75H276.304ZM293.404 137.75L294.775 136.294L294.197 135.75H293.404V137.75ZM324.304 166.85H326.304V165.986L325.675 165.394L324.304 166.85ZM324.304 189.5L322.916 190.94L326.304 194.206V189.5H324.304ZM295.204 161.45L296.592 160.01L293.204 156.744V161.45H295.204ZM295.204 224V226H297.204V224H295.204ZM276.304 224H274.304V226H276.304V224ZM360.754 199.7L359.4 201.172L362.754 204.255V199.7H360.754ZM360.754 137.75V135.75H358.754V137.75H360.754ZM379.654 137.75H381.654V135.75H379.654V137.75ZM379.654 224V226H381.654V224H379.654ZM361.954 224L360.568 225.442L361.148 226H361.954V224ZM331.054 194.3H329.054V195.152L329.668 195.742L331.054 194.3ZM331.054 172.4L332.407 170.928L329.054 167.845V172.4H331.054ZM276.304 139.75H293.404V135.75H276.304V139.75ZM292.033 139.206L322.933 168.306L325.675 165.394L294.775 136.294L292.033 139.206ZM322.304 166.85V189.5H326.304V166.85H322.304ZM325.692 188.06L296.592 160.01L293.816 162.89L322.916 190.94L325.692 188.06ZM293.204 161.45V224H297.204V161.45H293.204ZM295.204 222H276.304V226H295.204V222ZM278.304 224V137.75H274.304V224H278.304ZM362.754 199.7V137.75H358.754V199.7H362.754ZM360.754 139.75H379.654V135.75H360.754V139.75ZM377.654 137.75V224H381.654V137.75H377.654ZM379.654 222H361.954V226H379.654V222ZM363.34 222.558L332.44 192.858L329.668 195.742L360.568 225.442L363.34 222.558ZM333.054 194.3V172.4H329.054V194.3H333.054ZM329.7 173.872L359.4 201.172L362.107 198.228L332.407 170.928L329.7 173.872ZM451.575 148.1L450.559 146.377L449.575 146.958V148.1H451.575ZM469.125 137.75V135.75H468.579L468.109 136.027L469.125 137.75ZM500.175 137.75H502.175V135.75H500.175V137.75ZM500.175 154.7V156.7H502.175V154.7H500.175ZM471.075 154.7V152.7H469.075V154.7H471.075ZM471.075 206.45H469.075V208.45H471.075V206.45ZM499.575 206.45H501.575V204.45H499.575V206.45ZM499.575 224V226H501.575V224H499.575ZM469.125 224L468.12 225.729L468.586 226H469.125V224ZM451.575 213.8H449.575V214.951L450.57 215.529L451.575 213.8ZM536.025 196.1V194.1H534.025V196.1H536.025ZM536.025 206.45V208.45H538.025V206.45H536.025ZM507.525 206.45V204.45H505.525V206.45H507.525ZM507.525 224H505.525V226H507.525V224ZM537.975 224V226H538.514L538.98 225.729L537.975 224ZM555.525 213.8L556.53 215.529L557.525 214.951V213.8H555.525ZM555.525 196.1H557.525V194.1H555.525V196.1ZM555.525 165.2V167.2H557.525V165.2H555.525ZM555.525 148.1H557.525V146.958L556.541 146.377L555.525 148.1ZM537.975 137.75L538.991 136.027L538.521 135.75H537.975V137.75ZM506.925 137.75V135.75H504.925V137.75H506.925ZM506.925 154.7H504.925V156.7H506.925V154.7ZM536.025 154.7H538.025V152.7H536.025V154.7ZM536.025 165.2H534.025V167.2H536.025V165.2ZM452.591 149.823L470.141 139.473L468.109 136.027L450.559 146.377L452.591 149.823ZM469.125 139.75H500.175V135.75H469.125V139.75ZM498.175 137.75V154.7H502.175V137.75H498.175ZM500.175 152.7H471.075V156.7H500.175V152.7ZM469.075 154.7V206.45H473.075V154.7H469.075ZM471.075 208.45H499.575V204.45H471.075V208.45ZM497.575 206.45V224H501.575V206.45H497.575ZM499.575 222H469.125V226H499.575V222ZM470.13 222.271L452.58 212.071L450.57 215.529L468.12 225.729L470.13 222.271ZM453.575 213.8V148.1H449.575V213.8H453.575ZM534.025 196.1V206.45H538.025V196.1H534.025ZM536.025 204.45H507.525V208.45H536.025V204.45ZM505.525 206.45V224H509.525V206.45H505.525ZM507.525 226H537.975V222H507.525V226ZM538.98 225.729L556.53 215.529L554.52 212.071L536.97 222.271L538.98 225.729ZM557.525 213.8V196.1H553.525V213.8H557.525ZM555.525 194.1H536.025V198.1H555.525V194.1ZM557.525 165.2V148.1H553.525V165.2H557.525ZM556.541 146.377L538.991 136.027L536.959 139.473L554.509 149.823L556.541 146.377ZM537.975 135.75H506.925V139.75H537.975V135.75ZM504.925 137.75V154.7H508.925V137.75H504.925ZM506.925 156.7H536.025V152.7H506.925V156.7ZM534.025 154.7V165.2H538.025V154.7H534.025ZM536.025 167.2H555.525V163.2H536.025V167.2ZM570.228 148.1L569.192 146.389L568.228 146.973V148.1H570.228ZM570.228 224H568.228V226H570.228V224ZM589.128 224V226H591.128V224H589.128ZM589.128 189.5V187.5H587.128V189.5H589.128ZM618.228 189.5V191.5H620.228V189.5H618.228ZM618.228 172.4H620.228V170.4H618.228V172.4ZM589.128 172.4H587.128V174.4H589.128V172.4ZM589.128 154.7V152.7H587.128V154.7H589.128ZM618.228 154.7V156.7H620.228V154.7H618.228ZM618.228 137.75H620.228V135.75H618.228V137.75ZM587.328 137.75V135.75H586.769L586.292 136.039L587.328 137.75ZM673.578 148.1H675.578V146.953L674.587 146.373L673.578 148.1ZM673.578 224V226H675.578V224H673.578ZM654.678 224H652.678V226H654.678V224ZM654.678 189.5H656.678V187.5H654.678V189.5ZM624.978 189.5H622.978V191.5H624.978V189.5ZM624.978 172.4V170.4H622.978V172.4H624.978ZM654.678 172.4V174.4H656.678V172.4H654.678ZM654.678 154.7H656.678V152.7H654.678V154.7ZM624.978 154.7H622.978V156.7H624.978V154.7ZM624.978 137.75V135.75H622.978V137.75H624.978ZM655.878 137.75L656.887 136.023L656.419 135.75H655.878V137.75ZM568.228 148.1V224H572.228V148.1H568.228ZM570.228 226H589.128V222H570.228V226ZM591.128 224V189.5H587.128V224H591.128ZM589.128 191.5H618.228V187.5H589.128V191.5ZM620.228 189.5V172.4H616.228V189.5H620.228ZM618.228 170.4H589.128V174.4H618.228V170.4ZM591.128 172.4V154.7H587.128V172.4H591.128ZM589.128 156.7H618.228V152.7H589.128V156.7ZM620.228 154.7V137.75H616.228V154.7H620.228ZM618.228 135.75H587.328V139.75H618.228V135.75ZM586.292 136.039L569.192 146.389L571.263 149.811L588.363 139.461L586.292 136.039ZM671.578 148.1V224H675.578V148.1H671.578ZM673.578 222H654.678V226H673.578V222ZM656.678 224V189.5H652.678V224H656.678ZM654.678 187.5H624.978V191.5H654.678V187.5ZM626.978 189.5V172.4H622.978V189.5H626.978ZM624.978 174.4H654.678V170.4H624.978V174.4ZM656.678 172.4V154.7H652.678V172.4H656.678ZM654.678 152.7H624.978V156.7H654.678V152.7ZM626.978 154.7V137.75H622.978V154.7H626.978ZM624.978 139.75H655.878V135.75H624.978V139.75ZM654.868 139.476L672.568 149.826L674.587 146.373L656.887 136.023L654.868 139.476ZM700.522 137.75V135.75H698.522V137.75H700.522ZM717.622 137.75L718.994 136.294L718.416 135.75H717.622V137.75ZM748.522 166.85H750.522V165.986L749.894 165.394L748.522 166.85ZM748.522 189.5L747.134 190.94L750.522 194.206V189.5H748.522ZM719.422 161.45L720.81 160.01L717.422 156.744V161.45H719.422ZM719.422 224V226H721.422V224H719.422ZM700.522 224H698.522V226H700.522V224ZM784.972 199.7L783.619 201.172L786.972 204.255V199.7H784.972ZM784.972 137.75V135.75H782.972V137.75H784.972ZM803.872 137.75H805.872V135.75H803.872V137.75ZM803.872 224V226H805.872V224H803.872ZM786.172 224L784.787 225.442L785.367 226H786.172V224ZM755.272 194.3H753.272V195.152L753.887 195.742L755.272 194.3ZM755.272 172.4L756.626 170.928L753.272 167.845V172.4H755.272ZM700.522 139.75H717.622V135.75H700.522V139.75ZM716.251 139.206L747.151 168.306L749.894 165.394L718.994 136.294L716.251 139.206ZM746.522 166.85V189.5H750.522V166.85H746.522ZM749.91 188.06L720.81 160.01L718.034 162.89L747.134 190.94L749.91 188.06ZM717.422 161.45V224H721.422V161.45H717.422ZM719.422 222H700.522V226H719.422V222ZM702.522 224V137.75H698.522V224H702.522ZM786.972 199.7V137.75H782.972V199.7H786.972ZM784.972 139.75H803.872V135.75H784.972V139.75ZM801.872 137.75V224H805.872V137.75H801.872ZM803.872 222H786.172V226H803.872V222ZM787.558 222.558L756.658 192.858L753.887 195.742L784.787 225.442L787.558 222.558ZM757.272 194.3V172.4H753.272V194.3H757.272ZM753.919 173.872L783.619 201.172L786.326 198.228L756.626 170.928L753.919 173.872ZM830.823 137.75V135.75H828.823V137.75H830.823ZM830.823 213.8H828.823V214.936L829.799 215.518L830.823 213.8ZM847.923 224L846.899 225.718L847.372 226H847.923V224ZM878.823 224V226H880.823V224H878.823ZM878.823 206.45H880.823V204.45H878.823V206.45ZM849.723 206.45H847.723V208.45H849.723V206.45ZM849.723 137.75H851.723V135.75H849.723V137.75ZM934.173 137.75H936.173V135.75H934.173V137.75ZM934.173 213.8L935.204 215.514L936.173 214.931V213.8H934.173ZM917.223 224V226H917.779L918.254 225.714L917.223 224ZM886.173 224H884.173V226H886.173V224ZM886.173 206.45V204.45H884.173V206.45H886.173ZM915.273 206.45V208.45H917.273V206.45H915.273ZM915.273 137.75V135.75H913.273V137.75H915.273ZM828.823 137.75V213.8H832.823V137.75H828.823ZM829.799 215.518L846.899 225.718L848.948 222.282L831.848 212.082L829.799 215.518ZM847.923 226H878.823V222H847.923V226ZM880.823 224V206.45H876.823V224H880.823ZM878.823 204.45H849.723V208.45H878.823V204.45ZM851.723 206.45V137.75H847.723V206.45H851.723ZM849.723 135.75H830.823V139.75H849.723V135.75ZM932.173 137.75V213.8H936.173V137.75H932.173ZM933.142 212.086L916.192 222.286L918.254 225.714L935.204 215.514L933.142 212.086ZM917.223 222H886.173V226H917.223V222ZM888.173 224V206.45H884.173V224H888.173ZM886.173 208.45H915.273V204.45H886.173V208.45ZM917.273 206.45V137.75H913.273V206.45H917.273ZM915.273 139.75H934.173V135.75H915.273V139.75ZM1053.97 154.7V156.7H1055.97V154.7H1053.97ZM1010.77 154.7V152.7H1008.77V154.7H1010.77ZM1010.77 224V226H1012.77V224H1010.77ZM990.068 224H988.068V226H990.068V224ZM990.068 154.7H992.068V152.7H990.068V154.7ZM950.618 154.7H948.618V156.7H950.618V154.7ZM950.618 137.75V135.75H948.618V137.75H950.618ZM1053.97 137.75H1055.97V135.75H1053.97V137.75ZM1053.97 152.7H1010.77V156.7H1053.97V152.7ZM1008.77 154.7V224H1012.77V154.7H1008.77ZM1010.77 222H990.068V226H1010.77V222ZM992.068 224V154.7H988.068V224H992.068ZM990.068 152.7H950.618V156.7H990.068V152.7ZM952.618 154.7V137.75H948.618V154.7H952.618ZM950.618 139.75H1053.97V135.75H950.618V139.75ZM1051.97 137.75V154.7H1055.97V137.75H1051.97ZM1166.32 154.7V156.7H1168.32V154.7H1166.32ZM1123.12 154.7V152.7H1121.12V154.7H1123.12ZM1123.12 224V226H1125.12V224H1123.12ZM1102.42 224H1100.42V226H1102.42V224ZM1102.42 154.7H1104.42V152.7H1102.42V154.7ZM1062.97 154.7H1060.97V156.7H1062.97V154.7ZM1062.97 137.75V135.75H1060.97V137.75H1062.97ZM1166.32 137.75H1168.32V135.75H1166.32V137.75ZM1166.32 152.7H1123.12V156.7H1166.32V152.7ZM1121.12 154.7V224H1125.12V154.7H1121.12ZM1123.12 222H1102.42V226H1123.12V222ZM1104.42 224V154.7H1100.42V224H1104.42ZM1102.42 152.7H1062.97V156.7H1102.42V152.7ZM1064.97 154.7V137.75H1060.97V154.7H1064.97ZM1062.97 139.75H1166.32V135.75H1062.97V139.75ZM1164.32 137.75V154.7H1168.32V137.75H1164.32ZM1181.07 148.1L1180.05 146.377L1179.07 146.958V148.1H1181.07ZM1198.62 137.75V135.75H1198.07L1197.6 136.027L1198.62 137.75ZM1229.67 137.75H1231.67V135.75H1229.67V137.75ZM1229.67 154.7V156.7H1231.67V154.7H1229.67ZM1199.97 154.7V152.7H1197.97V154.7H1199.97ZM1199.97 206.45H1197.97V208.45H1199.97V206.45ZM1229.07 206.45H1231.07V204.45H1229.07V206.45ZM1229.07 224V226H1231.07V224H1229.07ZM1198.62 224L1197.61 225.729L1198.08 226H1198.62V224ZM1181.07 213.8H1179.07V214.951L1180.06 215.529L1181.07 213.8ZM1284.42 148.1H1286.42V146.978L1285.46 146.393L1284.42 148.1ZM1267.47 137.75L1268.51 136.043L1268.03 135.75H1267.47V137.75ZM1236.42 137.75V135.75H1234.42V137.75H1236.42ZM1236.42 154.7H1234.42V156.7H1236.42V154.7ZM1265.52 154.7H1267.52V152.7H1265.52V154.7ZM1265.52 206.45V208.45H1267.52V206.45H1265.52ZM1236.42 206.45V204.45H1234.42V206.45H1236.42ZM1236.42 224H1234.42V226H1236.42V224ZM1267.47 224V226H1268.02L1268.5 225.714L1267.47 224ZM1284.42 213.8L1285.45 215.514L1286.42 214.931V213.8H1284.42ZM1182.08 149.823L1199.63 139.473L1197.6 136.027L1180.05 146.377L1182.08 149.823ZM1198.62 139.75H1229.67V135.75H1198.62V139.75ZM1227.67 137.75V154.7H1231.67V137.75H1227.67ZM1229.67 152.7H1199.97V156.7H1229.67V152.7ZM1197.97 154.7V206.45H1201.97V154.7H1197.97ZM1199.97 208.45H1229.07V204.45H1199.97V208.45ZM1227.07 206.45V224H1231.07V206.45H1227.07ZM1229.07 222H1198.62V226H1229.07V222ZM1199.62 222.271L1182.07 212.071L1180.06 215.529L1197.61 225.729L1199.62 222.271ZM1183.07 213.8V148.1H1179.07V213.8H1183.07ZM1285.46 146.393L1268.51 136.043L1266.43 139.457L1283.38 149.807L1285.46 146.393ZM1267.47 135.75H1236.42V139.75H1267.47V135.75ZM1234.42 137.75V154.7H1238.42V137.75H1234.42ZM1236.42 156.7H1265.52V152.7H1236.42V156.7ZM1263.52 154.7V206.45H1267.52V154.7H1263.52ZM1265.52 204.45H1236.42V208.45H1265.52V204.45ZM1234.42 206.45V224H1238.42V206.45H1234.42ZM1236.42 226H1267.47V222H1236.42V226ZM1268.5 225.714L1285.45 215.514L1283.39 212.086L1266.44 222.286L1268.5 225.714ZM1286.42 213.8V148.1H1282.42V213.8H1286.42Z" fill="white"/>
<rect x="4" y="120" width="1294" height="90" fill="black"/>
<path d="M16.6377 98.75H64.6377V115.7H35.5377V167.45H64.6377V185H16.6377V98.75ZM119.988 109.1L103.038 98.75H71.9877V115.7H101.088V167.45H71.9877V185H103.038L119.988 174.8V109.1ZM144.009 109.1L161.559 98.75H192.609V115.7H162.909V167.45H192.009V185H161.559L144.009 174.8V109.1ZM247.359 109.1L230.409 98.75H199.359V115.7H228.459V167.45H199.359V185H230.409L247.359 174.8V109.1ZM274.304 98.75H291.404L322.304 127.85V150.5L293.204 122.45V185H274.304V98.75ZM358.754 160.7V98.75H377.654V185H359.954L329.054 155.3V133.4L358.754 160.7ZM449.575 109.1L467.125 98.75H498.175V115.7H469.075V167.45H497.575V185H467.125L449.575 174.8V109.1ZM534.025 157.1V167.45H505.525V185H535.975L553.525 174.8V157.1H534.025ZM553.525 126.2V109.1L535.975 98.75H504.925V115.7H534.025V126.2H553.525ZM568.228 109.1V185H587.128V150.5H616.228V133.4H587.128V115.7H616.228V98.75H585.328L568.228 109.1ZM671.578 109.1V185H652.678V150.5H622.978V133.4H652.678V115.7H622.978V98.75H653.878L671.578 109.1ZM698.522 98.75H715.622L746.522 127.85V150.5L717.422 122.45V185H698.522V98.75ZM782.972 160.7V98.75H801.872V185H784.172L753.272 155.3V133.4L782.972 160.7ZM828.823 98.75V174.8L845.923 185H876.823V167.45H847.723V98.75H828.823ZM932.173 98.75V174.8L915.223 185H884.173V167.45H913.273V98.75H932.173ZM1051.97 115.7H1008.77V185H988.068V115.7H948.618V98.75H1051.97V115.7ZM1164.32 115.7H1121.12V185H1100.42V115.7H1060.97V98.75H1164.32V115.7ZM1179.07 109.1L1196.62 98.75H1227.67V115.7H1197.97V167.45H1227.07V185H1196.62L1179.07 174.8V109.1ZM1282.42 109.1L1265.47 98.75H1234.42V115.7H1263.52V167.45H1234.42V185H1265.47L1282.42 174.8V109.1Z" fill="black"/>
<path d="M16.6377 98.75V96.75H14.6377V98.75H16.6377ZM64.6377 98.75H66.6377V96.75H64.6377V98.75ZM64.6377 115.7V117.7H66.6377V115.7H64.6377ZM35.5377 115.7V113.7H33.5377V115.7H35.5377ZM35.5377 167.45H33.5377V169.45H35.5377V167.45ZM64.6377 167.45H66.6377V165.45H64.6377V167.45ZM64.6377 185V187H66.6377V185H64.6377ZM16.6377 185H14.6377V187H16.6377V185ZM119.988 109.1H121.988V107.978L121.03 107.393L119.988 109.1ZM103.038 98.75L104.08 97.0431L103.6 96.75H103.038V98.75ZM71.9877 98.75V96.75H69.9877V98.75H71.9877ZM71.9877 115.7H69.9877V117.7H71.9877V115.7ZM101.088 115.7H103.088V113.7H101.088V115.7ZM101.088 167.45V169.45H103.088V167.45H101.088ZM71.9877 167.45V165.45H69.9877V167.45H71.9877ZM71.9877 185H69.9877V187H71.9877V185ZM103.038 185V187H103.593L104.069 186.714L103.038 185ZM119.988 174.8L121.019 176.514L121.988 175.931V174.8H119.988ZM16.6377 100.75H64.6377V96.75H16.6377V100.75ZM62.6377 98.75V115.7H66.6377V98.75H62.6377ZM64.6377 113.7H35.5377V117.7H64.6377V113.7ZM33.5377 115.7V167.45H37.5377V115.7H33.5377ZM35.5377 169.45H64.6377V165.45H35.5377V169.45ZM62.6377 167.45V185H66.6377V167.45H62.6377ZM64.6377 183H16.6377V187H64.6377V183ZM18.6377 185V98.75H14.6377V185H18.6377ZM121.03 107.393L104.08 97.0431L101.995 100.457L118.945 110.807L121.03 107.393ZM103.038 96.75H71.9877V100.75H103.038V96.75ZM69.9877 98.75V115.7H73.9877V98.75H69.9877ZM71.9877 117.7H101.088V113.7H71.9877V117.7ZM99.0877 115.7V167.45H103.088V115.7H99.0877ZM101.088 165.45H71.9877V169.45H101.088V165.45ZM69.9877 167.45V185H73.9877V167.45H69.9877ZM71.9877 187H103.038V183H71.9877V187ZM104.069 186.714L121.019 176.514L118.956 173.086L102.006 183.286L104.069 186.714ZM121.988 174.8V109.1H117.988V174.8H121.988ZM144.009 109.1L142.993 107.377L142.009 107.958V109.1H144.009ZM161.559 98.75V96.75H161.013L160.543 97.0273L161.559 98.75ZM192.609 98.75H194.609V96.75H192.609V98.75ZM192.609 115.7V117.7H194.609V115.7H192.609ZM162.909 115.7V113.7H160.909V115.7H162.909ZM162.909 167.45H160.909V169.45H162.909V167.45ZM192.009 167.45H194.009V165.45H192.009V167.45ZM192.009 185V187H194.009V185H192.009ZM161.559 185L160.554 186.729L161.02 187H161.559V185ZM144.009 174.8H142.009V175.951L143.004 176.529L144.009 174.8ZM247.359 109.1H249.359V107.978L248.401 107.393L247.359 109.1ZM230.409 98.75L231.451 97.0431L230.971 96.75H230.409V98.75ZM199.359 98.75V96.75H197.359V98.75H199.359ZM199.359 115.7H197.359V117.7H199.359V115.7ZM228.459 115.7H230.459V113.7H228.459V115.7ZM228.459 167.45V169.45H230.459V167.45H228.459ZM199.359 167.45V165.45H197.359V167.45H199.359ZM199.359 185H197.359V187H199.359V185ZM230.409 185V187H230.964L231.44 186.714L230.409 185ZM247.359 174.8L248.39 176.514L249.359 175.931V174.8H247.359ZM145.025 110.823L162.575 100.473L160.543 97.0273L142.993 107.377L145.025 110.823ZM161.559 100.75H192.609V96.75H161.559V100.75ZM190.609 98.75V115.7H194.609V98.75H190.609ZM192.609 113.7H162.909V117.7H192.609V113.7ZM160.909 115.7V167.45H164.909V115.7H160.909ZM162.909 169.45H192.009V165.45H162.909V169.45ZM190.009 167.45V185H194.009V167.45H190.009ZM192.009 183H161.559V187H192.009V183ZM162.564 183.271L145.014 173.071L143.004 176.529L160.554 186.729L162.564 183.271ZM146.009 174.8V109.1H142.009V174.8H146.009ZM248.401 107.393L231.451 97.0431L229.367 100.457L246.317 110.807L248.401 107.393ZM230.409 96.75H199.359V100.75H230.409V96.75ZM197.359 98.75V115.7H201.359V98.75H197.359ZM199.359 117.7H228.459V113.7H199.359V117.7ZM226.459 115.7V167.45H230.459V115.7H226.459ZM228.459 165.45H199.359V169.45H228.459V165.45ZM197.359 167.45V185H201.359V167.45H197.359ZM199.359 187H230.409V183H199.359V187ZM231.44 186.714L248.39 176.514L246.328 173.086L229.378 183.286L231.44 186.714ZM249.359 174.8V109.1H245.359V174.8H249.359ZM274.304 98.75V96.75H272.304V98.75H274.304ZM291.404 98.75L292.775 97.294L292.197 96.75H291.404V98.75ZM322.304 127.85H324.304V126.986L323.675 126.394L322.304 127.85ZM322.304 150.5L320.916 151.94L324.304 155.206V150.5H322.304ZM293.204 122.45L294.592 121.01L291.204 117.744V122.45H293.204ZM293.204 185V187H295.204V185H293.204ZM274.304 185H272.304V187H274.304V185ZM358.754 160.7L357.4 162.172L360.754 165.255V160.7H358.754ZM358.754 98.75V96.75H356.754V98.75H358.754ZM377.654 98.75H379.654V96.75H377.654V98.75ZM377.654 185V187H379.654V185H377.654ZM359.954 185L358.568 186.442L359.148 187H359.954V185ZM329.054 155.3H327.054V156.152L327.668 156.742L329.054 155.3ZM329.054 133.4L330.407 131.928L327.054 128.845V133.4H329.054ZM274.304 100.75H291.404V96.75H274.304V100.75ZM290.033 100.206L320.933 129.306L323.675 126.394L292.775 97.294L290.033 100.206ZM320.304 127.85V150.5H324.304V127.85H320.304ZM323.692 149.06L294.592 121.01L291.816 123.89L320.916 151.94L323.692 149.06ZM291.204 122.45V185H295.204V122.45H291.204ZM293.204 183H274.304V187H293.204V183ZM276.304 185V98.75H272.304V185H276.304ZM360.754 160.7V98.75H356.754V160.7H360.754ZM358.754 100.75H377.654V96.75H358.754V100.75ZM375.654 98.75V185H379.654V98.75H375.654ZM377.654 183H359.954V187H377.654V183ZM361.34 183.558L330.44 153.858L327.668 156.742L358.568 186.442L361.34 183.558ZM331.054 155.3V133.4H327.054V155.3H331.054ZM327.7 134.872L357.4 162.172L360.107 159.228L330.407 131.928L327.7 134.872ZM449.575 109.1L448.559 107.377L447.575 107.958V109.1H449.575ZM467.125 98.75V96.75H466.579L466.109 97.0273L467.125 98.75ZM498.175 98.75H500.175V96.75H498.175V98.75ZM498.175 115.7V117.7H500.175V115.7H498.175ZM469.075 115.7V113.7H467.075V115.7H469.075ZM469.075 167.45H467.075V169.45H469.075V167.45ZM497.575 167.45H499.575V165.45H497.575V167.45ZM497.575 185V187H499.575V185H497.575ZM467.125 185L466.12 186.729L466.586 187H467.125V185ZM449.575 174.8H447.575V175.951L448.57 176.529L449.575 174.8ZM534.025 157.1V155.1H532.025V157.1H534.025ZM534.025 167.45V169.45H536.025V167.45H534.025ZM505.525 167.45V165.45H503.525V167.45H505.525ZM505.525 185H503.525V187H505.525V185ZM535.975 185V187H536.514L536.98 186.729L535.975 185ZM553.525 174.8L554.53 176.529L555.525 175.951V174.8H553.525ZM553.525 157.1H555.525V155.1H553.525V157.1ZM553.525 126.2V128.2H555.525V126.2H553.525ZM553.525 109.1H555.525V107.958L554.541 107.377L553.525 109.1ZM535.975 98.75L536.991 97.0273L536.521 96.75H535.975V98.75ZM504.925 98.75V96.75H502.925V98.75H504.925ZM504.925 115.7H502.925V117.7H504.925V115.7ZM534.025 115.7H536.025V113.7H534.025V115.7ZM534.025 126.2H532.025V128.2H534.025V126.2ZM450.591 110.823L468.141 100.473L466.109 97.0273L448.559 107.377L450.591 110.823ZM467.125 100.75H498.175V96.75H467.125V100.75ZM496.175 98.75V115.7H500.175V98.75H496.175ZM498.175 113.7H469.075V117.7H498.175V113.7ZM467.075 115.7V167.45H471.075V115.7H467.075ZM469.075 169.45H497.575V165.45H469.075V169.45ZM495.575 167.45V185H499.575V167.45H495.575ZM497.575 183H467.125V187H497.575V183ZM468.13 183.271L450.58 173.071L448.57 176.529L466.12 186.729L468.13 183.271ZM451.575 174.8V109.1H447.575V174.8H451.575ZM532.025 157.1V167.45H536.025V157.1H532.025ZM534.025 165.45H505.525V169.45H534.025V165.45ZM503.525 167.45V185H507.525V167.45H503.525ZM505.525 187H535.975V183H505.525V187ZM536.98 186.729L554.53 176.529L552.52 173.071L534.97 183.271L536.98 186.729ZM555.525 174.8V157.1H551.525V174.8H555.525ZM553.525 155.1H534.025V159.1H553.525V155.1ZM555.525 126.2V109.1H551.525V126.2H555.525ZM554.541 107.377L536.991 97.0273L534.959 100.473L552.509 110.823L554.541 107.377ZM535.975 96.75H504.925V100.75H535.975V96.75ZM502.925 98.75V115.7H506.925V98.75H502.925ZM504.925 117.7H534.025V113.7H504.925V117.7ZM532.025 115.7V126.2H536.025V115.7H532.025ZM534.025 128.2H553.525V124.2H534.025V128.2ZM568.228 109.1L567.192 107.389L566.228 107.973V109.1H568.228ZM568.228 185H566.228V187H568.228V185ZM587.128 185V187H589.128V185H587.128ZM587.128 150.5V148.5H585.128V150.5H587.128ZM616.228 150.5V152.5H618.228V150.5H616.228ZM616.228 133.4H618.228V131.4H616.228V133.4ZM587.128 133.4H585.128V135.4H587.128V133.4ZM587.128 115.7V113.7H585.128V115.7H587.128ZM616.228 115.7V117.7H618.228V115.7H616.228ZM616.228 98.75H618.228V96.75H616.228V98.75ZM585.328 98.75V96.75H584.769L584.292 97.039L585.328 98.75ZM671.578 109.1H673.578V107.953L672.587 107.373L671.578 109.1ZM671.578 185V187H673.578V185H671.578ZM652.678 185H650.678V187H652.678V185ZM652.678 150.5H654.678V148.5H652.678V150.5ZM622.978 150.5H620.978V152.5H622.978V150.5ZM622.978 133.4V131.4H620.978V133.4H622.978ZM652.678 133.4V135.4H654.678V133.4H652.678ZM652.678 115.7H654.678V113.7H652.678V115.7ZM622.978 115.7H620.978V117.7H622.978V115.7ZM622.978 98.75V96.75H620.978V98.75H622.978ZM653.878 98.75L654.887 97.0235L654.419 96.75H653.878V98.75ZM566.228 109.1V185H570.228V109.1H566.228ZM568.228 187H587.128V183H568.228V187ZM589.128 185V150.5H585.128V185H589.128ZM587.128 152.5H616.228V148.5H587.128V152.5ZM618.228 150.5V133.4H614.228V150.5H618.228ZM616.228 131.4H587.128V135.4H616.228V131.4ZM589.128 133.4V115.7H585.128V133.4H589.128ZM587.128 117.7H616.228V113.7H587.128V117.7ZM618.228 115.7V98.75H614.228V115.7H618.228ZM616.228 96.75H585.328V100.75H616.228V96.75ZM584.292 97.039L567.192 107.389L569.263 110.811L586.363 100.461L584.292 97.039ZM669.578 109.1V185H673.578V109.1H669.578ZM671.578 183H652.678V187H671.578V183ZM654.678 185V150.5H650.678V185H654.678ZM652.678 148.5H622.978V152.5H652.678V148.5ZM624.978 150.5V133.4H620.978V150.5H624.978ZM622.978 135.4H652.678V131.4H622.978V135.4ZM654.678 133.4V115.7H650.678V133.4H654.678ZM652.678 113.7H622.978V117.7H652.678V113.7ZM624.978 115.7V98.75H620.978V115.7H624.978ZM622.978 100.75H653.878V96.75H622.978V100.75ZM652.868 100.476L670.568 110.826L672.587 107.373L654.887 97.0235L652.868 100.476ZM698.522 98.75V96.75H696.522V98.75H698.522ZM715.622 98.75L716.994 97.294L716.416 96.75H715.622V98.75ZM746.522 127.85H748.522V126.986L747.894 126.394L746.522 127.85ZM746.522 150.5L745.134 151.94L748.522 155.206V150.5H746.522ZM717.422 122.45L718.81 121.01L715.422 117.744V122.45H717.422ZM717.422 185V187H719.422V185H717.422ZM698.522 185H696.522V187H698.522V185ZM782.972 160.7L781.619 162.172L784.972 165.255V160.7H782.972ZM782.972 98.75V96.75H780.972V98.75H782.972ZM801.872 98.75H803.872V96.75H801.872V98.75ZM801.872 185V187H803.872V185H801.872ZM784.172 185L782.787 186.442L783.367 187H784.172V185ZM753.272 155.3H751.272V156.152L751.887 156.742L753.272 155.3ZM753.272 133.4L754.626 131.928L751.272 128.845V133.4H753.272ZM698.522 100.75H715.622V96.75H698.522V100.75ZM714.251 100.206L745.151 129.306L747.894 126.394L716.994 97.294L714.251 100.206ZM744.522 127.85V150.5H748.522V127.85H744.522ZM747.91 149.06L718.81 121.01L716.034 123.89L745.134 151.94L747.91 149.06ZM715.422 122.45V185H719.422V122.45H715.422ZM717.422 183H698.522V187H717.422V183ZM700.522 185V98.75H696.522V185H700.522ZM784.972 160.7V98.75H780.972V160.7H784.972ZM782.972 100.75H801.872V96.75H782.972V100.75ZM799.872 98.75V185H803.872V98.75H799.872ZM801.872 183H784.172V187H801.872V183ZM785.558 183.558L754.658 153.858L751.887 156.742L782.787 186.442L785.558 183.558ZM755.272 155.3V133.4H751.272V155.3H755.272ZM751.919 134.872L781.619 162.172L784.326 159.228L754.626 131.928L751.919 134.872ZM828.823 98.75V96.75H826.823V98.75H828.823ZM828.823 174.8H826.823V175.936L827.799 176.518L828.823 174.8ZM845.923 185L844.899 186.718L845.372 187H845.923V185ZM876.823 185V187H878.823V185H876.823ZM876.823 167.45H878.823V165.45H876.823V167.45ZM847.723 167.45H845.723V169.45H847.723V167.45ZM847.723 98.75H849.723V96.75H847.723V98.75ZM932.173 98.75H934.173V96.75H932.173V98.75ZM932.173 174.8L933.204 176.514L934.173 175.931V174.8H932.173ZM915.223 185V187H915.779L916.254 186.714L915.223 185ZM884.173 185H882.173V187H884.173V185ZM884.173 167.45V165.45H882.173V167.45H884.173ZM913.273 167.45V169.45H915.273V167.45H913.273ZM913.273 98.75V96.75H911.273V98.75H913.273ZM826.823 98.75V174.8H830.823V98.75H826.823ZM827.799 176.518L844.899 186.718L846.948 183.282L829.848 173.082L827.799 176.518ZM845.923 187H876.823V183H845.923V187ZM878.823 185V167.45H874.823V185H878.823ZM876.823 165.45H847.723V169.45H876.823V165.45ZM849.723 167.45V98.75H845.723V167.45H849.723ZM847.723 96.75H828.823V100.75H847.723V96.75ZM930.173 98.75V174.8H934.173V98.75H930.173ZM931.142 173.086L914.192 183.286L916.254 186.714L933.204 176.514L931.142 173.086ZM915.223 183H884.173V187H915.223V183ZM886.173 185V167.45H882.173V185H886.173ZM884.173 169.45H913.273V165.45H884.173V169.45ZM915.273 167.45V98.75H911.273V167.45H915.273ZM913.273 100.75H932.173V96.75H913.273V100.75ZM1051.97 115.7V117.7H1053.97V115.7H1051.97ZM1008.77 115.7V113.7H1006.77V115.7H1008.77ZM1008.77 185V187H1010.77V185H1008.77ZM988.068 185H986.068V187H988.068V185ZM988.068 115.7H990.068V113.7H988.068V115.7ZM948.618 115.7H946.618V117.7H948.618V115.7ZM948.618 98.75V96.75H946.618V98.75H948.618ZM1051.97 98.75H1053.97V96.75H1051.97V98.75ZM1051.97 113.7H1008.77V117.7H1051.97V113.7ZM1006.77 115.7V185H1010.77V115.7H1006.77ZM1008.77 183H988.068V187H1008.77V183ZM990.068 185V115.7H986.068V185H990.068ZM988.068 113.7H948.618V117.7H988.068V113.7ZM950.618 115.7V98.75H946.618V115.7H950.618ZM948.618 100.75H1051.97V96.75H948.618V100.75ZM1049.97 98.75V115.7H1053.97V98.75H1049.97ZM1164.32 115.7V117.7H1166.32V115.7H1164.32ZM1121.12 115.7V113.7H1119.12V115.7H1121.12ZM1121.12 185V187H1123.12V185H1121.12ZM1100.42 185H1098.42V187H1100.42V185ZM1100.42 115.7H1102.42V113.7H1100.42V115.7ZM1060.97 115.7H1058.97V117.7H1060.97V115.7ZM1060.97 98.75V96.75H1058.97V98.75H1060.97ZM1164.32 98.75H1166.32V96.75H1164.32V98.75ZM1164.32 113.7H1121.12V117.7H1164.32V113.7ZM1119.12 115.7V185H1123.12V115.7H1119.12ZM1121.12 183H1100.42V187H1121.12V183ZM1102.42 185V115.7H1098.42V185H1102.42ZM1100.42 113.7H1060.97V117.7H1100.42V113.7ZM1062.97 115.7V98.75H1058.97V115.7H1062.97ZM1060.97 100.75H1164.32V96.75H1060.97V100.75ZM1162.32 98.75V115.7H1166.32V98.75H1162.32ZM1179.07 109.1L1178.05 107.377L1177.07 107.958V109.1H1179.07ZM1196.62 98.75V96.75H1196.07L1195.6 97.0273L1196.62 98.75ZM1227.67 98.75H1229.67V96.75H1227.67V98.75ZM1227.67 115.7V117.7H1229.67V115.7H1227.67ZM1197.97 115.7V113.7H1195.97V115.7H1197.97ZM1197.97 167.45H1195.97V169.45H1197.97V167.45ZM1227.07 167.45H1229.07V165.45H1227.07V167.45ZM1227.07 185V187H1229.07V185H1227.07ZM1196.62 185L1195.61 186.729L1196.08 187H1196.62V185ZM1179.07 174.8H1177.07V175.951L1178.06 176.529L1179.07 174.8ZM1282.42 109.1H1284.42V107.978L1283.46 107.393L1282.42 109.1ZM1265.47 98.75L1266.51 97.0431L1266.03 96.75H1265.47V98.75ZM1234.42 98.75V96.75H1232.42V98.75H1234.42ZM1234.42 115.7H1232.42V117.7H1234.42V115.7ZM1263.52 115.7H1265.52V113.7H1263.52V115.7ZM1263.52 167.45V169.45H1265.52V167.45H1263.52ZM1234.42 167.45V165.45H1232.42V167.45H1234.42ZM1234.42 185H1232.42V187H1234.42V185ZM1265.47 185V187H1266.02L1266.5 186.714L1265.47 185ZM1282.42 174.8L1283.45 176.514L1284.42 175.931V174.8H1282.42ZM1180.08 110.823L1197.63 100.473L1195.6 97.0273L1178.05 107.377L1180.08 110.823ZM1196.62 100.75H1227.67V96.75H1196.62V100.75ZM1225.67 98.75V115.7H1229.67V98.75H1225.67ZM1227.67 113.7H1197.97V117.7H1227.67V113.7ZM1195.97 115.7V167.45H1199.97V115.7H1195.97ZM1197.97 169.45H1227.07V165.45H1197.97V169.45ZM1225.07 167.45V185H1229.07V167.45H1225.07ZM1227.07 183H1196.62V187H1227.07V183ZM1197.62 183.271L1180.07 173.071L1178.06 176.529L1195.61 186.729L1197.62 183.271ZM1181.07 174.8V109.1H1177.07V174.8H1181.07ZM1283.46 107.393L1266.51 97.0431L1264.43 100.457L1281.38 110.807L1283.46 107.393ZM1265.47 96.75H1234.42V100.75H1265.47V96.75ZM1232.42 98.75V115.7H1236.42V98.75H1232.42ZM1234.42 117.7H1263.52V113.7H1234.42V117.7ZM1261.52 115.7V167.45H1265.52V115.7H1261.52ZM1263.52 165.45H1234.42V169.45H1263.52V165.45ZM1232.42 167.45V185H1236.42V167.45H1232.42ZM1234.42 187H1265.47V183H1234.42V187ZM1266.5 186.714L1283.45 176.514L1281.39 173.086L1264.44 183.286L1266.5 186.714ZM1284.42 174.8V109.1H1280.42V174.8H1284.42Z" fill="white"/>
<rect x="2" y="89" width="1294" height="76" fill="black"/>
<path d="M16.6377 60.75H64.6377V77.7H35.5377V129.45H64.6377V147H16.6377V60.75ZM119.988 71.1L103.038 60.75H71.9877V77.7H101.088V129.45H71.9877V147H103.038L119.988 136.8V71.1ZM144.009 71.1L161.559 60.75H192.609V77.7H162.909V129.45H192.009V147H161.559L144.009 136.8V71.1ZM247.359 71.1L230.409 60.75H199.359V77.7H228.459V129.45H199.359V147H230.409L247.359 136.8V71.1ZM274.304 60.75H291.404L322.304 89.85V112.5L293.204 84.45V147H274.304V60.75ZM358.754 122.7V60.75H377.654V147H359.954L329.054 117.3V95.4L358.754 122.7ZM449.575 71.1L467.125 60.75H498.175V77.7H469.075V129.45H497.575V147H467.125L449.575 136.8V71.1ZM534.025 119.1V129.45H505.525V147H535.975L553.525 136.8V119.1H534.025ZM553.525 88.2V71.1L535.975 60.75H504.925V77.7H534.025V88.2H553.525ZM568.228 71.1V147H587.128V112.5H616.228V95.4H587.128V77.7H616.228V60.75H585.328L568.228 71.1ZM671.578 71.1V147H652.678V112.5H622.978V95.4H652.678V77.7H622.978V60.75H653.878L671.578 71.1ZM698.522 60.75H715.622L746.522 89.85V112.5L717.422 84.45V147H698.522V60.75ZM782.972 122.7V60.75H801.872V147H784.172L753.272 117.3V95.4L782.972 122.7ZM828.823 60.75V136.8L845.923 147H876.823V129.45H847.723V60.75H828.823ZM932.173 60.75V136.8L915.223 147H884.173V129.45H913.273V60.75H932.173ZM1051.97 77.7H1008.77V147H988.068V77.7H948.618V60.75H1051.97V77.7ZM1164.32 77.7H1121.12V147H1100.42V77.7H1060.97V60.75H1164.32V77.7ZM1179.07 71.1L1196.62 60.75H1227.67V77.7H1197.97V129.45H1227.07V147H1196.62L1179.07 136.8V71.1ZM1282.42 71.1L1265.47 60.75H1234.42V77.7H1263.52V129.45H1234.42V147H1265.47L1282.42 136.8V71.1Z" fill="black"/>
<path d="M16.6377 60.75V58.75H14.6377V60.75H16.6377ZM64.6377 60.75H66.6377V58.75H64.6377V60.75ZM64.6377 77.7V79.7H66.6377V77.7H64.6377ZM35.5377 77.7V75.7H33.5377V77.7H35.5377ZM35.5377 129.45H33.5377V131.45H35.5377V129.45ZM64.6377 129.45H66.6377V127.45H64.6377V129.45ZM64.6377 147V149H66.6377V147H64.6377ZM16.6377 147H14.6377V149H16.6377V147ZM119.988 71.1H121.988V69.9779L121.03 69.3931L119.988 71.1ZM103.038 60.75L104.08 59.0431L103.6 58.75H103.038V60.75ZM71.9877 60.75V58.75H69.9877V60.75H71.9877ZM71.9877 77.7H69.9877V79.7H71.9877V77.7ZM101.088 77.7H103.088V75.7H101.088V77.7ZM101.088 129.45V131.45H103.088V129.45H101.088ZM71.9877 129.45V127.45H69.9877V129.45H71.9877ZM71.9877 147H69.9877V149H71.9877V147ZM103.038 147V149H103.593L104.069 148.714L103.038 147ZM119.988 136.8L121.019 138.514L121.988 137.931V136.8H119.988ZM16.6377 62.75H64.6377V58.75H16.6377V62.75ZM62.6377 60.75V77.7H66.6377V60.75H62.6377ZM64.6377 75.7H35.5377V79.7H64.6377V75.7ZM33.5377 77.7V129.45H37.5377V77.7H33.5377ZM35.5377 131.45H64.6377V127.45H35.5377V131.45ZM62.6377 129.45V147H66.6377V129.45H62.6377ZM64.6377 145H16.6377V149H64.6377V145ZM18.6377 147V60.75H14.6377V147H18.6377ZM121.03 69.3931L104.08 59.0431L101.995 62.4569L118.945 72.8069L121.03 69.3931ZM103.038 58.75H71.9877V62.75H103.038V58.75ZM69.9877 60.75V77.7H73.9877V60.75H69.9877ZM71.9877 79.7H101.088V75.7H71.9877V79.7ZM99.0877 77.7V129.45H103.088V77.7H99.0877ZM101.088 127.45H71.9877V131.45H101.088V127.45ZM69.9877 129.45V147H73.9877V129.45H69.9877ZM71.9877 149H103.038V145H71.9877V149ZM104.069 148.714L121.019 138.514L118.956 135.086L102.006 145.286L104.069 148.714ZM121.988 136.8V71.1H117.988V136.8H121.988ZM144.009 71.1L142.993 69.3773L142.009 69.9576V71.1H144.009ZM161.559 60.75V58.75H161.013L160.543 59.0273L161.559 60.75ZM192.609 60.75H194.609V58.75H192.609V60.75ZM192.609 77.7V79.7H194.609V77.7H192.609ZM162.909 77.7V75.7H160.909V77.7H162.909ZM162.909 129.45H160.909V131.45H162.909V129.45ZM192.009 129.45H194.009V127.45H192.009V129.45ZM192.009 147V149H194.009V147H192.009ZM161.559 147L160.554 148.729L161.02 149H161.559V147ZM144.009 136.8H142.009V137.951L143.004 138.529L144.009 136.8ZM247.359 71.1H249.359V69.9779L248.401 69.3931L247.359 71.1ZM230.409 60.75L231.451 59.0431L230.971 58.75H230.409V60.75ZM199.359 60.75V58.75H197.359V60.75H199.359ZM199.359 77.7H197.359V79.7H199.359V77.7ZM228.459 77.7H230.459V75.7H228.459V77.7ZM228.459 129.45V131.45H230.459V129.45H228.459ZM199.359 129.45V127.45H197.359V129.45H199.359ZM199.359 147H197.359V149H199.359V147ZM230.409 147V149H230.964L231.44 148.714L230.409 147ZM247.359 136.8L248.39 138.514L249.359 137.931V136.8H247.359ZM145.025 72.8227L162.575 62.4727L160.543 59.0273L142.993 69.3773L145.025 72.8227ZM161.559 62.75H192.609V58.75H161.559V62.75ZM190.609 60.75V77.7H194.609V60.75H190.609ZM192.609 75.7H162.909V79.7H192.609V75.7ZM160.909 77.7V129.45H164.909V77.7H160.909ZM162.909 131.45H192.009V127.45H162.909V131.45ZM190.009 129.45V147H194.009V129.45H190.009ZM192.009 145H161.559V149H192.009V145ZM162.564 145.271L145.014 135.071L143.004 138.529L160.554 148.729L162.564 145.271ZM146.009 136.8V71.1H142.009V136.8H146.009ZM248.401 69.3931L231.451 59.0431L229.367 62.4569L246.317 72.8069L248.401 69.3931ZM230.409 58.75H199.359V62.75H230.409V58.75ZM197.359 60.75V77.7H201.359V60.75H197.359ZM199.359 79.7H228.459V75.7H199.359V79.7ZM226.459 77.7V129.45H230.459V77.7H226.459ZM228.459 127.45H199.359V131.45H228.459V127.45ZM197.359 129.45V147H201.359V129.45H197.359ZM199.359 149H230.409V145H199.359V149ZM231.44 148.714L248.39 138.514L246.328 135.086L229.378 145.286L231.44 148.714ZM249.359 136.8V71.1H245.359V136.8H249.359ZM274.304 60.75V58.75H272.304V60.75H274.304ZM291.404 60.75L292.775 59.294L292.197 58.75H291.404V60.75ZM322.304 89.85H324.304V88.9862L323.675 88.394L322.304 89.85ZM322.304 112.5L320.916 113.94L324.304 117.206V112.5H322.304ZM293.204 84.45L294.592 83.01L291.204 79.7443V84.45H293.204ZM293.204 147V149H295.204V147H293.204ZM274.304 147H272.304V149H274.304V147ZM358.754 122.7L357.4 124.172L360.754 127.255V122.7H358.754ZM358.754 60.75V58.75H356.754V60.75H358.754ZM377.654 60.75H379.654V58.75H377.654V60.75ZM377.654 147V149H379.654V147H377.654ZM359.954 147L358.568 148.442L359.148 149H359.954V147ZM329.054 117.3H327.054V118.152L327.668 118.742L329.054 117.3ZM329.054 95.4L330.407 93.9275L327.054 90.8451V95.4H329.054ZM274.304 62.75H291.404V58.75H274.304V62.75ZM290.033 62.206L320.933 91.306L323.675 88.394L292.775 59.294L290.033 62.206ZM320.304 89.85V112.5H324.304V89.85H320.304ZM323.692 111.06L294.592 83.01L291.816 85.8899L320.916 113.94L323.692 111.06ZM291.204 84.45V147H295.204V84.45H291.204ZM293.204 145H274.304V149H293.204V145ZM276.304 147V60.75H272.304V147H276.304ZM360.754 122.7V60.75H356.754V122.7H360.754ZM358.754 62.75H377.654V58.75H358.754V62.75ZM375.654 60.75V147H379.654V60.75H375.654ZM377.654 145H359.954V149H377.654V145ZM361.34 145.558L330.44 115.858L327.668 118.742L358.568 148.442L361.34 145.558ZM331.054 117.3V95.4H327.054V117.3H331.054ZM327.7 96.8725L357.4 124.172L360.107 121.228L330.407 93.9275L327.7 96.8725ZM449.575 71.1L448.559 69.3773L447.575 69.9576V71.1H449.575ZM467.125 60.75V58.75H466.579L466.109 59.0273L467.125 60.75ZM498.175 60.75H500.175V58.75H498.175V60.75ZM498.175 77.7V79.7H500.175V77.7H498.175ZM469.075 77.7V75.7H467.075V77.7H469.075ZM469.075 129.45H467.075V131.45H469.075V129.45ZM497.575 129.45H499.575V127.45H497.575V129.45ZM497.575 147V149H499.575V147H497.575ZM467.125 147L466.12 148.729L466.586 149H467.125V147ZM449.575 136.8H447.575V137.951L448.57 138.529L449.575 136.8ZM534.025 119.1V117.1H532.025V119.1H534.025ZM534.025 129.45V131.45H536.025V129.45H534.025ZM505.525 129.45V127.45H503.525V129.45H505.525ZM505.525 147H503.525V149H505.525V147ZM535.975 147V149H536.514L536.98 148.729L535.975 147ZM553.525 136.8L554.53 138.529L555.525 137.951V136.8H553.525ZM553.525 119.1H555.525V117.1H553.525V119.1ZM553.525 88.2V90.2H555.525V88.2H553.525ZM553.525 71.1H555.525V69.9576L554.541 69.3773L553.525 71.1ZM535.975 60.75L536.991 59.0273L536.521 58.75H535.975V60.75ZM504.925 60.75V58.75H502.925V60.75H504.925ZM504.925 77.7H502.925V79.7H504.925V77.7ZM534.025 77.7H536.025V75.7H534.025V77.7ZM534.025 88.2H532.025V90.2H534.025V88.2ZM450.591 72.8227L468.141 62.4727L466.109 59.0273L448.559 69.3773L450.591 72.8227ZM467.125 62.75H498.175V58.75H467.125V62.75ZM496.175 60.75V77.7H500.175V60.75H496.175ZM498.175 75.7H469.075V79.7H498.175V75.7ZM467.075 77.7V129.45H471.075V77.7H467.075ZM469.075 131.45H497.575V127.45H469.075V131.45ZM495.575 129.45V147H499.575V129.45H495.575ZM497.575 145H467.125V149H497.575V145ZM468.13 145.271L450.58 135.071L448.57 138.529L466.12 148.729L468.13 145.271ZM451.575 136.8V71.1H447.575V136.8H451.575ZM532.025 119.1V129.45H536.025V119.1H532.025ZM534.025 127.45H505.525V131.45H534.025V127.45ZM503.525 129.45V147H507.525V129.45H503.525ZM505.525 149H535.975V145H505.525V149ZM536.98 148.729L554.53 138.529L552.52 135.071L534.97 145.271L536.98 148.729ZM555.525 136.8V119.1H551.525V136.8H555.525ZM553.525 117.1H534.025V121.1H553.525V117.1ZM555.525 88.2V71.1H551.525V88.2H555.525ZM554.541 69.3773L536.991 59.0273L534.959 62.4727L552.509 72.8227L554.541 69.3773ZM535.975 58.75H504.925V62.75H535.975V58.75ZM502.925 60.75V77.7H506.925V60.75H502.925ZM504.925 79.7H534.025V75.7H504.925V79.7ZM532.025 77.7V88.2H536.025V77.7H532.025ZM534.025 90.2H553.525V86.2H534.025V90.2ZM568.228 71.1L567.192 69.389L566.228 69.9727V71.1H568.228ZM568.228 147H566.228V149H568.228V147ZM587.128 147V149H589.128V147H587.128ZM587.128 112.5V110.5H585.128V112.5H587.128ZM616.228 112.5V114.5H618.228V112.5H616.228ZM616.228 95.4H618.228V93.4H616.228V95.4ZM587.128 95.4H585.128V97.4H587.128V95.4ZM587.128 77.7V75.7H585.128V77.7H587.128ZM616.228 77.7V79.7H618.228V77.7H616.228ZM616.228 60.75H618.228V58.75H616.228V60.75ZM585.328 60.75V58.75H584.769L584.292 59.039L585.328 60.75ZM671.578 71.1H673.578V69.9527L672.587 69.3735L671.578 71.1ZM671.578 147V149H673.578V147H671.578ZM652.678 147H650.678V149H652.678V147ZM652.678 112.5H654.678V110.5H652.678V112.5ZM622.978 112.5H620.978V114.5H622.978V112.5ZM622.978 95.4V93.4H620.978V95.4H622.978ZM652.678 95.4V97.4H654.678V95.4H652.678ZM652.678 77.7H654.678V75.7H652.678V77.7ZM622.978 77.7H620.978V79.7H622.978V77.7ZM622.978 60.75V58.75H620.978V60.75H622.978ZM653.878 60.75L654.887 59.0235L654.419 58.75H653.878V60.75ZM566.228 71.1V147H570.228V71.1H566.228ZM568.228 149H587.128V145H568.228V149ZM589.128 147V112.5H585.128V147H589.128ZM587.128 114.5H616.228V110.5H587.128V114.5ZM618.228 112.5V95.4H614.228V112.5H618.228ZM616.228 93.4H587.128V97.4H616.228V93.4ZM589.128 95.4V77.7H585.128V95.4H589.128ZM587.128 79.7H616.228V75.7H587.128V79.7ZM618.228 77.7V60.75H614.228V77.7H618.228ZM616.228 58.75H585.328V62.75H616.228V58.75ZM584.292 59.039L567.192 69.389L569.263 72.811L586.363 62.461L584.292 59.039ZM669.578 71.1V147H673.578V71.1H669.578ZM671.578 145H652.678V149H671.578V145ZM654.678 147V112.5H650.678V147H654.678ZM652.678 110.5H622.978V114.5H652.678V110.5ZM624.978 112.5V95.4H620.978V112.5H624.978ZM622.978 97.4H652.678V93.4H622.978V97.4ZM654.678 95.4V77.7H650.678V95.4H654.678ZM652.678 75.7H622.978V79.7H652.678V75.7ZM624.978 77.7V60.75H620.978V77.7H624.978ZM622.978 62.75H653.878V58.75H622.978V62.75ZM652.868 62.4765L670.568 72.8265L672.587 69.3735L654.887 59.0235L652.868 62.4765ZM698.522 60.75V58.75H696.522V60.75H698.522ZM715.622 60.75L716.994 59.294L716.416 58.75H715.622V60.75ZM746.522 89.85H748.522V88.9862L747.894 88.394L746.522 89.85ZM746.522 112.5L745.134 113.94L748.522 117.206V112.5H746.522ZM717.422 84.45L718.81 83.01L715.422 79.7443V84.45H717.422ZM717.422 147V149H719.422V147H717.422ZM698.522 147H696.522V149H698.522V147ZM782.972 122.7L781.619 124.172L784.972 127.255V122.7H782.972ZM782.972 60.75V58.75H780.972V60.75H782.972ZM801.872 60.75H803.872V58.75H801.872V60.75ZM801.872 147V149H803.872V147H801.872ZM784.172 147L782.787 148.442L783.367 149H784.172V147ZM753.272 117.3H751.272V118.152L751.887 118.742L753.272 117.3ZM753.272 95.4L754.626 93.9275L751.272 90.8451V95.4H753.272ZM698.522 62.75H715.622V58.75H698.522V62.75ZM714.251 62.206L745.151 91.306L747.894 88.394L716.994 59.294L714.251 62.206ZM744.522 89.85V112.5H748.522V89.85H744.522ZM747.91 111.06L718.81 83.01L716.034 85.8899L745.134 113.94L747.91 111.06ZM715.422 84.45V147H719.422V84.45H715.422ZM717.422 145H698.522V149H717.422V145ZM700.522 147V60.75H696.522V147H700.522ZM784.972 122.7V60.75H780.972V122.7H784.972ZM782.972 62.75H801.872V58.75H782.972V62.75ZM799.872 60.75V147H803.872V60.75H799.872ZM801.872 145H784.172V149H801.872V145ZM785.558 145.558L754.658 115.858L751.887 118.742L782.787 148.442L785.558 145.558ZM755.272 117.3V95.4H751.272V117.3H755.272ZM751.919 96.8725L781.619 124.172L784.326 121.228L754.626 93.9275L751.919 96.8725ZM828.823 60.75V58.75H826.823V60.75H828.823ZM828.823 136.8H826.823V137.936L827.799 138.518L828.823 136.8ZM845.923 147L844.899 148.718L845.372 149H845.923V147ZM876.823 147V149H878.823V147H876.823ZM876.823 129.45H878.823V127.45H876.823V129.45ZM847.723 129.45H845.723V131.45H847.723V129.45ZM847.723 60.75H849.723V58.75H847.723V60.75ZM932.173 60.75H934.173V58.75H932.173V60.75ZM932.173 136.8L933.204 138.514L934.173 137.931V136.8H932.173ZM915.223 147V149H915.779L916.254 148.714L915.223 147ZM884.173 147H882.173V149H884.173V147ZM884.173 129.45V127.45H882.173V129.45H884.173ZM913.273 129.45V131.45H915.273V129.45H913.273ZM913.273 60.75V58.75H911.273V60.75H913.273ZM826.823 60.75V136.8H830.823V60.75H826.823ZM827.799 138.518L844.899 148.718L846.948 145.282L829.848 135.082L827.799 138.518ZM845.923 149H876.823V145H845.923V149ZM878.823 147V129.45H874.823V147H878.823ZM876.823 127.45H847.723V131.45H876.823V127.45ZM849.723 129.45V60.75H845.723V129.45H849.723ZM847.723 58.75H828.823V62.75H847.723V58.75ZM930.173 60.75V136.8H934.173V60.75H930.173ZM931.142 135.086L914.192 145.286L916.254 148.714L933.204 138.514L931.142 135.086ZM915.223 145H884.173V149H915.223V145ZM886.173 147V129.45H882.173V147H886.173ZM884.173 131.45H913.273V127.45H884.173V131.45ZM915.273 129.45V60.75H911.273V129.45H915.273ZM913.273 62.75H932.173V58.75H913.273V62.75ZM1051.97 77.7V79.7H1053.97V77.7H1051.97ZM1008.77 77.7V75.7H1006.77V77.7H1008.77ZM1008.77 147V149H1010.77V147H1008.77ZM988.068 147H986.068V149H988.068V147ZM988.068 77.7H990.068V75.7H988.068V77.7ZM948.618 77.7H946.618V79.7H948.618V77.7ZM948.618 60.75V58.75H946.618V60.75H948.618ZM1051.97 60.75H1053.97V58.75H1051.97V60.75ZM1051.97 75.7H1008.77V79.7H1051.97V75.7ZM1006.77 77.7V147H1010.77V77.7H1006.77ZM1008.77 145H988.068V149H1008.77V145ZM990.068 147V77.7H986.068V147H990.068ZM988.068 75.7H948.618V79.7H988.068V75.7ZM950.618 77.7V60.75H946.618V77.7H950.618ZM948.618 62.75H1051.97V58.75H948.618V62.75ZM1049.97 60.75V77.7H1053.97V60.75H1049.97ZM1164.32 77.7V79.7H1166.32V77.7H1164.32ZM1121.12 77.7V75.7H1119.12V77.7H1121.12ZM1121.12 147V149H1123.12V147H1121.12ZM1100.42 147H1098.42V149H1100.42V147ZM1100.42 77.7H1102.42V75.7H1100.42V77.7ZM1060.97 77.7H1058.97V79.7H1060.97V77.7ZM1060.97 60.75V58.75H1058.97V60.75H1060.97ZM1164.32 60.75H1166.32V58.75H1164.32V60.75ZM1164.32 75.7H1121.12V79.7H1164.32V75.7ZM1119.12 77.7V147H1123.12V77.7H1119.12ZM1121.12 145H1100.42V149H1121.12V145ZM1102.42 147V77.7H1098.42V147H1102.42ZM1100.42 75.7H1060.97V79.7H1100.42V75.7ZM1062.97 77.7V60.75H1058.97V77.7H1062.97ZM1060.97 62.75H1164.32V58.75H1060.97V62.75ZM1162.32 60.75V77.7H1166.32V60.75H1162.32ZM1179.07 71.1L1178.05 69.3773L1177.07 69.9576V71.1H1179.07ZM1196.62 60.75V58.75H1196.07L1195.6 59.0273L1196.62 60.75ZM1227.67 60.75H1229.67V58.75H1227.67V60.75ZM1227.67 77.7V79.7H1229.67V77.7H1227.67ZM1197.97 77.7V75.7H1195.97V77.7H1197.97ZM1197.97 129.45H1195.97V131.45H1197.97V129.45ZM1227.07 129.45H1229.07V127.45H1227.07V129.45ZM1227.07 147V149H1229.07V147H1227.07ZM1196.62 147L1195.61 148.729L1196.08 149H1196.62V147ZM1179.07 136.8H1177.07V137.951L1178.06 138.529L1179.07 136.8ZM1282.42 71.1H1284.42V69.9779L1283.46 69.3931L1282.42 71.1ZM1265.47 60.75L1266.51 59.0431L1266.03 58.75H1265.47V60.75ZM1234.42 60.75V58.75H1232.42V60.75H1234.42ZM1234.42 77.7H1232.42V79.7H1234.42V77.7ZM1263.52 77.7H1265.52V75.7H1263.52V77.7ZM1263.52 129.45V131.45H1265.52V129.45H1263.52ZM1234.42 129.45V127.45H1232.42V129.45H1234.42ZM1234.42 147H1232.42V149H1234.42V147ZM1265.47 147V149H1266.02L1266.5 148.714L1265.47 147ZM1282.42 136.8L1283.45 138.514L1284.42 137.931V136.8H1282.42ZM1180.08 72.8227L1197.63 62.4727L1195.6 59.0273L1178.05 69.3773L1180.08 72.8227ZM1196.62 62.75H1227.67V58.75H1196.62V62.75ZM1225.67 60.75V77.7H1229.67V60.75H1225.67ZM1227.67 75.7H1197.97V79.7H1227.67V75.7ZM1195.97 77.7V129.45H1199.97V77.7H1195.97ZM1197.97 131.45H1227.07V127.45H1197.97V131.45ZM1225.07 129.45V147H1229.07V129.45H1225.07ZM1227.07 145H1196.62V149H1227.07V145ZM1197.62 145.271L1180.07 135.071L1178.06 138.529L1195.61 148.729L1197.62 145.271ZM1181.07 136.8V71.1H1177.07V136.8H1181.07ZM1283.46 69.3931L1266.51 59.0431L1264.43 62.4569L1281.38 72.8069L1283.46 69.3931ZM1265.47 58.75H1234.42V62.75H1265.47V58.75ZM1232.42 60.75V77.7H1236.42V60.75H1232.42ZM1234.42 79.7H1263.52V75.7H1234.42V79.7ZM1261.52 77.7V129.45H1265.52V77.7H1261.52ZM1263.52 127.45H1234.42V131.45H1263.52V127.45ZM1232.42 129.45V147H1236.42V129.45H1232.42ZM1234.42 149H1265.47V145H1234.42V149ZM1266.5 148.714L1283.45 138.514L1281.39 135.086L1264.44 145.286L1266.5 148.714ZM1284.42 136.8V71.1H1280.42V136.8H1284.42Z" fill="white"/>
<rect x="2" y="56" width="1294" height="53" fill="black"/>
<path d="M16.6377 15.75H64.6377V32.7H35.5377V84.45H64.6377V102H16.6377V15.75ZM119.988 26.1L103.038 15.75H71.9877V32.7H101.088V84.45H71.9877V102H103.038L119.988 91.8V26.1ZM144.009 26.1L161.559 15.75H192.609V32.7H162.909V84.45H192.009V102H161.559L144.009 91.8V26.1ZM247.359 26.1L230.409 15.75H199.359V32.7H228.459V84.45H199.359V102H230.409L247.359 91.8V26.1ZM274.304 15.75H291.404L322.304 44.85V67.5L293.204 39.45V102H274.304V15.75ZM358.754 77.7V15.75H377.654V102H359.954L329.054 72.3V50.4L358.754 77.7ZM449.575 26.1L467.125 15.75H498.175V32.7H469.075V84.45H497.575V102H467.125L449.575 91.8V26.1ZM534.025 74.1V84.45H505.525V102H535.975L553.525 91.8V74.1H534.025ZM553.525 43.2V26.1L535.975 15.75H504.925V32.7H534.025V43.2H553.525ZM568.228 26.1V102H587.128V67.5H616.228V50.4H587.128V32.7H616.228V15.75H585.328L568.228 26.1ZM671.578 26.1V102H652.678V67.5H622.978V50.4H652.678V32.7H622.978V15.75H653.878L671.578 26.1ZM698.522 15.75H715.622L746.522 44.85V67.5L717.422 39.45V102H698.522V15.75ZM782.972 77.7V15.75H801.872V102H784.172L753.272 72.3V50.4L782.972 77.7ZM828.823 15.75V91.8L845.923 102H876.823V84.45H847.723V15.75H828.823ZM932.173 15.75V91.8L915.223 102H884.173V84.45H913.273V15.75H932.173ZM1051.97 32.7H1008.77V102H988.068V32.7H948.618V15.75H1051.97V32.7ZM1164.32 32.7H1121.12V102H1100.42V32.7H1060.97V15.75H1164.32V32.7ZM1179.07 26.1L1196.62 15.75H1227.67V32.7H1197.97V84.45H1227.07V102H1196.62L1179.07 91.8V26.1ZM1282.42 26.1L1265.47 15.75H1234.42V32.7H1263.52V84.45H1234.42V102H1265.47L1282.42 91.8V26.1Z" fill="black"/>
<path d="M16.6377 15.75V13.75H14.6377V15.75H16.6377ZM64.6377 15.75H66.6377V13.75H64.6377V15.75ZM64.6377 32.7V34.7H66.6377V32.7H64.6377ZM35.5377 32.7V30.7H33.5377V32.7H35.5377ZM35.5377 84.45H33.5377V86.45H35.5377V84.45ZM64.6377 84.45H66.6377V82.45H64.6377V84.45ZM64.6377 102V104H66.6377V102H64.6377ZM16.6377 102H14.6377V104H16.6377V102ZM119.988 26.1H121.988V24.9779L121.03 24.3931L119.988 26.1ZM103.038 15.75L104.08 14.0431L103.6 13.75H103.038V15.75ZM71.9877 15.75V13.75H69.9877V15.75H71.9877ZM71.9877 32.7H69.9877V34.7H71.9877V32.7ZM101.088 32.7H103.088V30.7H101.088V32.7ZM101.088 84.45V86.45H103.088V84.45H101.088ZM71.9877 84.45V82.45H69.9877V84.45H71.9877ZM71.9877 102H69.9877V104H71.9877V102ZM103.038 102V104H103.593L104.069 103.714L103.038 102ZM119.988 91.8L121.019 93.5136L121.988 92.9307V91.8H119.988ZM16.6377 17.75H64.6377V13.75H16.6377V17.75ZM62.6377 15.75V32.7H66.6377V15.75H62.6377ZM64.6377 30.7H35.5377V34.7H64.6377V30.7ZM33.5377 32.7V84.45H37.5377V32.7H33.5377ZM35.5377 86.45H64.6377V82.45H35.5377V86.45ZM62.6377 84.45V102H66.6377V84.45H62.6377ZM64.6377 100H16.6377V104H64.6377V100ZM18.6377 102V15.75H14.6377V102H18.6377ZM121.03 24.3931L104.08 14.0431L101.995 17.4569L118.945 27.8069L121.03 24.3931ZM103.038 13.75H71.9877V17.75H103.038V13.75ZM69.9877 15.75V32.7H73.9877V15.75H69.9877ZM71.9877 34.7H101.088V30.7H71.9877V34.7ZM99.0877 32.7V84.45H103.088V32.7H99.0877ZM101.088 82.45H71.9877V86.45H101.088V82.45ZM69.9877 84.45V102H73.9877V84.45H69.9877ZM71.9877 104H103.038V100H71.9877V104ZM104.069 103.714L121.019 93.5136L118.956 90.0864L102.006 100.286L104.069 103.714ZM121.988 91.8V26.1H117.988V91.8H121.988ZM144.009 26.1L142.993 24.3773L142.009 24.9576V26.1H144.009ZM161.559 15.75V13.75H161.013L160.543 14.0273L161.559 15.75ZM192.609 15.75H194.609V13.75H192.609V15.75ZM192.609 32.7V34.7H194.609V32.7H192.609ZM162.909 32.7V30.7H160.909V32.7H162.909ZM162.909 84.45H160.909V86.45H162.909V84.45ZM192.009 84.45H194.009V82.45H192.009V84.45ZM192.009 102V104H194.009V102H192.009ZM161.559 102L160.554 103.729L161.02 104H161.559V102ZM144.009 91.8H142.009V92.9509L143.004 93.5292L144.009 91.8ZM247.359 26.1H249.359V24.9779L248.401 24.3931L247.359 26.1ZM230.409 15.75L231.451 14.0431L230.971 13.75H230.409V15.75ZM199.359 15.75V13.75H197.359V15.75H199.359ZM199.359 32.7H197.359V34.7H199.359V32.7ZM228.459 32.7H230.459V30.7H228.459V32.7ZM228.459 84.45V86.45H230.459V84.45H228.459ZM199.359 84.45V82.45H197.359V84.45H199.359ZM199.359 102H197.359V104H199.359V102ZM230.409 102V104H230.964L231.44 103.714L230.409 102ZM247.359 91.8L248.39 93.5136L249.359 92.9307V91.8H247.359ZM145.025 27.8227L162.575 17.4727L160.543 14.0273L142.993 24.3773L145.025 27.8227ZM161.559 17.75H192.609V13.75H161.559V17.75ZM190.609 15.75V32.7H194.609V15.75H190.609ZM192.609 30.7H162.909V34.7H192.609V30.7ZM160.909 32.7V84.45H164.909V32.7H160.909ZM162.909 86.45H192.009V82.45H162.909V86.45ZM190.009 84.45V102H194.009V84.45H190.009ZM192.009 100H161.559V104H192.009V100ZM162.564 100.271L145.014 90.0708L143.004 93.5292L160.554 103.729L162.564 100.271ZM146.009 91.8V26.1H142.009V91.8H146.009ZM248.401 24.3931L231.451 14.0431L229.367 17.4569L246.317 27.8069L248.401 24.3931ZM230.409 13.75H199.359V17.75H230.409V13.75ZM197.359 15.75V32.7H201.359V15.75H197.359ZM199.359 34.7H228.459V30.7H199.359V34.7ZM226.459 32.7V84.45H230.459V32.7H226.459ZM228.459 82.45H199.359V86.45H228.459V82.45ZM197.359 84.45V102H201.359V84.45H197.359ZM199.359 104H230.409V100H199.359V104ZM231.44 103.714L248.39 93.5136L246.328 90.0864L229.378 100.286L231.44 103.714ZM249.359 91.8V26.1H245.359V91.8H249.359ZM274.304 15.75V13.75H272.304V15.75H274.304ZM291.404 15.75L292.775 14.294L292.197 13.75H291.404V15.75ZM322.304 44.85H324.304V43.9862L323.675 43.394L322.304 44.85ZM322.304 67.5L320.916 68.94L324.304 72.2057V67.5H322.304ZM293.204 39.45L294.592 38.01L291.204 34.7443V39.45H293.204ZM293.204 102V104H295.204V102H293.204ZM274.304 102H272.304V104H274.304V102ZM358.754 77.7L357.4 79.1725L360.754 82.2549V77.7H358.754ZM358.754 15.75V13.75H356.754V15.75H358.754ZM377.654 15.75H379.654V13.75H377.654V15.75ZM377.654 102V104H379.654V102H377.654ZM359.954 102L358.568 103.442L359.148 104H359.954V102ZM329.054 72.3H327.054V73.1517L327.668 73.7419L329.054 72.3ZM329.054 50.4L330.407 48.9275L327.054 45.8451V50.4H329.054ZM274.304 17.75H291.404V13.75H274.304V17.75ZM290.033 17.206L320.933 46.306L323.675 43.394L292.775 14.294L290.033 17.206ZM320.304 44.85V67.5H324.304V44.85H320.304ZM323.692 66.06L294.592 38.01L291.816 40.8899L320.916 68.94L323.692 66.06ZM291.204 39.45V102H295.204V39.45H291.204ZM293.204 100H274.304V104H293.204V100ZM276.304 102V15.75H272.304V102H276.304ZM360.754 77.7V15.75H356.754V77.7H360.754ZM358.754 17.75H377.654V13.75H358.754V17.75ZM375.654 15.75V102H379.654V15.75H375.654ZM377.654 100H359.954V104H377.654V100ZM361.34 100.558L330.44 70.8581L327.668 73.7419L358.568 103.442L361.34 100.558ZM331.054 72.3V50.4H327.054V72.3H331.054ZM327.7 51.8725L357.4 79.1725L360.107 76.2275L330.407 48.9275L327.7 51.8725ZM449.575 26.1L448.559 24.3773L447.575 24.9576V26.1H449.575ZM467.125 15.75V13.75H466.579L466.109 14.0273L467.125 15.75ZM498.175 15.75H500.175V13.75H498.175V15.75ZM498.175 32.7V34.7H500.175V32.7H498.175ZM469.075 32.7V30.7H467.075V32.7H469.075ZM469.075 84.45H467.075V86.45H469.075V84.45ZM497.575 84.45H499.575V82.45H497.575V84.45ZM497.575 102V104H499.575V102H497.575ZM467.125 102L466.12 103.729L466.586 104H467.125V102ZM449.575 91.8H447.575V92.9509L448.57 93.5292L449.575 91.8ZM534.025 74.1V72.1H532.025V74.1H534.025ZM534.025 84.45V86.45H536.025V84.45H534.025ZM505.525 84.45V82.45H503.525V84.45H505.525ZM505.525 102H503.525V104H505.525V102ZM535.975 102V104H536.514L536.98 103.729L535.975 102ZM553.525 91.8L554.53 93.5292L555.525 92.9509V91.8H553.525ZM553.525 74.1H555.525V72.1H553.525V74.1ZM553.525 43.2V45.2H555.525V43.2H553.525ZM553.525 26.1H555.525V24.9576L554.541 24.3773L553.525 26.1ZM535.975 15.75L536.991 14.0273L536.521 13.75H535.975V15.75ZM504.925 15.75V13.75H502.925V15.75H504.925ZM504.925 32.7H502.925V34.7H504.925V32.7ZM534.025 32.7H536.025V30.7H534.025V32.7ZM534.025 43.2H532.025V45.2H534.025V43.2ZM450.591 27.8227L468.141 17.4727L466.109 14.0273L448.559 24.3773L450.591 27.8227ZM467.125 17.75H498.175V13.75H467.125V17.75ZM496.175 15.75V32.7H500.175V15.75H496.175ZM498.175 30.7H469.075V34.7H498.175V30.7ZM467.075 32.7V84.45H471.075V32.7H467.075ZM469.075 86.45H497.575V82.45H469.075V86.45ZM495.575 84.45V102H499.575V84.45H495.575ZM497.575 100H467.125V104H497.575V100ZM468.13 100.271L450.58 90.0708L448.57 93.5292L466.12 103.729L468.13 100.271ZM451.575 91.8V26.1H447.575V91.8H451.575ZM532.025 74.1V84.45H536.025V74.1H532.025ZM534.025 82.45H505.525V86.45H534.025V82.45ZM503.525 84.45V102H507.525V84.45H503.525ZM505.525 104H535.975V100H505.525V104ZM536.98 103.729L554.53 93.5292L552.52 90.0708L534.97 100.271L536.98 103.729ZM555.525 91.8V74.1H551.525V91.8H555.525ZM553.525 72.1H534.025V76.1H553.525V72.1ZM555.525 43.2V26.1H551.525V43.2H555.525ZM554.541 24.3773L536.991 14.0273L534.959 17.4727L552.509 27.8227L554.541 24.3773ZM535.975 13.75H504.925V17.75H535.975V13.75ZM502.925 15.75V32.7H506.925V15.75H502.925ZM504.925 34.7H534.025V30.7H504.925V34.7ZM532.025 32.7V43.2H536.025V32.7H532.025ZM534.025 45.2H553.525V41.2H534.025V45.2ZM568.228 26.1L567.192 24.389L566.228 24.9727V26.1H568.228ZM568.228 102H566.228V104H568.228V102ZM587.128 102V104H589.128V102H587.128ZM587.128 67.5V65.5H585.128V67.5H587.128ZM616.228 67.5V69.5H618.228V67.5H616.228ZM616.228 50.4H618.228V48.4H616.228V50.4ZM587.128 50.4H585.128V52.4H587.128V50.4ZM587.128 32.7V30.7H585.128V32.7H587.128ZM616.228 32.7V34.7H618.228V32.7H616.228ZM616.228 15.75H618.228V13.75H616.228V15.75ZM585.328 15.75V13.75H584.769L584.292 14.039L585.328 15.75ZM671.578 26.1H673.578V24.9527L672.587 24.3735L671.578 26.1ZM671.578 102V104H673.578V102H671.578ZM652.678 102H650.678V104H652.678V102ZM652.678 67.5H654.678V65.5H652.678V67.5ZM622.978 67.5H620.978V69.5H622.978V67.5ZM622.978 50.4V48.4H620.978V50.4H622.978ZM652.678 50.4V52.4H654.678V50.4H652.678ZM652.678 32.7H654.678V30.7H652.678V32.7ZM622.978 32.7H620.978V34.7H622.978V32.7ZM622.978 15.75V13.75H620.978V15.75H622.978ZM653.878 15.75L654.887 14.0235L654.419 13.75H653.878V15.75ZM566.228 26.1V102H570.228V26.1H566.228ZM568.228 104H587.128V100H568.228V104ZM589.128 102V67.5H585.128V102H589.128ZM587.128 69.5H616.228V65.5H587.128V69.5ZM618.228 67.5V50.4H614.228V67.5H618.228ZM616.228 48.4H587.128V52.4H616.228V48.4ZM589.128 50.4V32.7H585.128V50.4H589.128ZM587.128 34.7H616.228V30.7H587.128V34.7ZM618.228 32.7V15.75H614.228V32.7H618.228ZM616.228 13.75H585.328V17.75H616.228V13.75ZM584.292 14.039L567.192 24.389L569.263 27.811L586.363 17.461L584.292 14.039ZM669.578 26.1V102H673.578V26.1H669.578ZM671.578 100H652.678V104H671.578V100ZM654.678 102V67.5H650.678V102H654.678ZM652.678 65.5H622.978V69.5H652.678V65.5ZM624.978 67.5V50.4H620.978V67.5H624.978ZM622.978 52.4H652.678V48.4H622.978V52.4ZM654.678 50.4V32.7H650.678V50.4H654.678ZM652.678 30.7H622.978V34.7H652.678V30.7ZM624.978 32.7V15.75H620.978V32.7H624.978ZM622.978 17.75H653.878V13.75H622.978V17.75ZM652.868 17.4765L670.568 27.8265L672.587 24.3735L654.887 14.0235L652.868 17.4765ZM698.522 15.75V13.75H696.522V15.75H698.522ZM715.622 15.75L716.994 14.294L716.416 13.75H715.622V15.75ZM746.522 44.85H748.522V43.9862L747.894 43.394L746.522 44.85ZM746.522 67.5L745.134 68.94L748.522 72.2057V67.5H746.522ZM717.422 39.45L718.81 38.01L715.422 34.7443V39.45H717.422ZM717.422 102V104H719.422V102H717.422ZM698.522 102H696.522V104H698.522V102ZM782.972 77.7L781.619 79.1725L784.972 82.2549V77.7H782.972ZM782.972 15.75V13.75H780.972V15.75H782.972ZM801.872 15.75H803.872V13.75H801.872V15.75ZM801.872 102V104H803.872V102H801.872ZM784.172 102L782.787 103.442L783.367 104H784.172V102ZM753.272 72.3H751.272V73.1517L751.887 73.7419L753.272 72.3ZM753.272 50.4L754.626 48.9275L751.272 45.8451V50.4H753.272ZM698.522 17.75H715.622V13.75H698.522V17.75ZM714.251 17.206L745.151 46.306L747.894 43.394L716.994 14.294L714.251 17.206ZM744.522 44.85V67.5H748.522V44.85H744.522ZM747.91 66.06L718.81 38.01L716.034 40.8899L745.134 68.94L747.91 66.06ZM715.422 39.45V102H719.422V39.45H715.422ZM717.422 100H698.522V104H717.422V100ZM700.522 102V15.75H696.522V102H700.522ZM784.972 77.7V15.75H780.972V77.7H784.972ZM782.972 17.75H801.872V13.75H782.972V17.75ZM799.872 15.75V102H803.872V15.75H799.872ZM801.872 100H784.172V104H801.872V100ZM785.558 100.558L754.658 70.8581L751.887 73.7419L782.787 103.442L785.558 100.558ZM755.272 72.3V50.4H751.272V72.3H755.272ZM751.919 51.8725L781.619 79.1725L784.326 76.2275L754.626 48.9275L751.919 51.8725ZM828.823 15.75V13.75H826.823V15.75H828.823ZM828.823 91.8H826.823V92.9358L827.799 93.5176L828.823 91.8ZM845.923 102L844.899 103.718L845.372 104H845.923V102ZM876.823 102V104H878.823V102H876.823ZM876.823 84.45H878.823V82.45H876.823V84.45ZM847.723 84.45H845.723V86.45H847.723V84.45ZM847.723 15.75H849.723V13.75H847.723V15.75ZM932.173 15.75H934.173V13.75H932.173V15.75ZM932.173 91.8L933.204 93.5136L934.173 92.9307V91.8H932.173ZM915.223 102V104H915.779L916.254 103.714L915.223 102ZM884.173 102H882.173V104H884.173V102ZM884.173 84.45V82.45H882.173V84.45H884.173ZM913.273 84.45V86.45H915.273V84.45H913.273ZM913.273 15.75V13.75H911.273V15.75H913.273ZM826.823 15.75V91.8H830.823V15.75H826.823ZM827.799 93.5176L844.899 103.718L846.948 100.282L829.848 90.0824L827.799 93.5176ZM845.923 104H876.823V100H845.923V104ZM878.823 102V84.45H874.823V102H878.823ZM876.823 82.45H847.723V86.45H876.823V82.45ZM849.723 84.45V15.75H845.723V84.45H849.723ZM847.723 13.75H828.823V17.75H847.723V13.75ZM930.173 15.75V91.8H934.173V15.75H930.173ZM931.142 90.0864L914.192 100.286L916.254 103.714L933.204 93.5136L931.142 90.0864ZM915.223 100H884.173V104H915.223V100ZM886.173 102V84.45H882.173V102H886.173ZM884.173 86.45H913.273V82.45H884.173V86.45ZM915.273 84.45V15.75H911.273V84.45H915.273ZM913.273 17.75H932.173V13.75H913.273V17.75ZM1051.97 32.7V34.7H1053.97V32.7H1051.97ZM1008.77 32.7V30.7H1006.77V32.7H1008.77ZM1008.77 102V104H1010.77V102H1008.77ZM988.068 102H986.068V104H988.068V102ZM988.068 32.7H990.068V30.7H988.068V32.7ZM948.618 32.7H946.618V34.7H948.618V32.7ZM948.618 15.75V13.75H946.618V15.75H948.618ZM1051.97 15.75H1053.97V13.75H1051.97V15.75ZM1051.97 30.7H1008.77V34.7H1051.97V30.7ZM1006.77 32.7V102H1010.77V32.7H1006.77ZM1008.77 100H988.068V104H1008.77V100ZM990.068 102V32.7H986.068V102H990.068ZM988.068 30.7H948.618V34.7H988.068V30.7ZM950.618 32.7V15.75H946.618V32.7H950.618ZM948.618 17.75H1051.97V13.75H948.618V17.75ZM1049.97 15.75V32.7H1053.97V15.75H1049.97ZM1164.32 32.7V34.7H1166.32V32.7H1164.32ZM1121.12 32.7V30.7H1119.12V32.7H1121.12ZM1121.12 102V104H1123.12V102H1121.12ZM1100.42 102H1098.42V104H1100.42V102ZM1100.42 32.7H1102.42V30.7H1100.42V32.7ZM1060.97 32.7H1058.97V34.7H1060.97V32.7ZM1060.97 15.75V13.75H1058.97V15.75H1060.97ZM1164.32 15.75H1166.32V13.75H1164.32V15.75ZM1164.32 30.7H1121.12V34.7H1164.32V30.7ZM1119.12 32.7V102H1123.12V32.7H1119.12ZM1121.12 100H1100.42V104H1121.12V100ZM1102.42 102V32.7H1098.42V102H1102.42ZM1100.42 30.7H1060.97V34.7H1100.42V30.7ZM1062.97 32.7V15.75H1058.97V32.7H1062.97ZM1060.97 17.75H1164.32V13.75H1060.97V17.75ZM1162.32 15.75V32.7H1166.32V15.75H1162.32ZM1179.07 26.1L1178.05 24.3773L1177.07 24.9576V26.1H1179.07ZM1196.62 15.75V13.75H1196.07L1195.6 14.0273L1196.62 15.75ZM1227.67 15.75H1229.67V13.75H1227.67V15.75ZM1227.67 32.7V34.7H1229.67V32.7H1227.67ZM1197.97 32.7V30.7H1195.97V32.7H1197.97ZM1197.97 84.45H1195.97V86.45H1197.97V84.45ZM1227.07 84.45H1229.07V82.45H1227.07V84.45ZM1227.07 102V104H1229.07V102H1227.07ZM1196.62 102L1195.61 103.729L1196.08 104H1196.62V102ZM1179.07 91.8H1177.07V92.9509L1178.06 93.5292L1179.07 91.8ZM1282.42 26.1H1284.42V24.9779L1283.46 24.3931L1282.42 26.1ZM1265.47 15.75L1266.51 14.0431L1266.03 13.75H1265.47V15.75ZM1234.42 15.75V13.75H1232.42V15.75H1234.42ZM1234.42 32.7H1232.42V34.7H1234.42V32.7ZM1263.52 32.7H1265.52V30.7H1263.52V32.7ZM1263.52 84.45V86.45H1265.52V84.45H1263.52ZM1234.42 84.45V82.45H1232.42V84.45H1234.42ZM1234.42 102H1232.42V104H1234.42V102ZM1265.47 102V104H1266.02L1266.5 103.714L1265.47 102ZM1282.42 91.8L1283.45 93.5136L1284.42 92.9307V91.8H1282.42ZM1180.08 27.8227L1197.63 17.4727L1195.6 14.0273L1178.05 24.3773L1180.08 27.8227ZM1196.62 17.75H1227.67V13.75H1196.62V17.75ZM1225.67 15.75V32.7H1229.67V15.75H1225.67ZM1227.67 30.7H1197.97V34.7H1227.67V30.7ZM1195.97 32.7V84.45H1199.97V32.7H1195.97ZM1197.97 86.45H1227.07V82.45H1197.97V86.45ZM1225.07 84.45V102H1229.07V84.45H1225.07ZM1227.07 100H1196.62V104H1227.07V100ZM1197.62 100.271L1180.07 90.0708L1178.06 93.5292L1195.61 103.729L1197.62 100.271ZM1181.07 91.8V26.1H1177.07V91.8H1181.07ZM1283.46 24.3931L1266.51 14.0431L1264.43 17.4569L1281.38 27.8069L1283.46 24.3931ZM1265.47 13.75H1234.42V17.75H1265.47V13.75ZM1232.42 15.75V32.7H1236.42V15.75H1232.42ZM1234.42 34.7H1263.52V30.7H1234.42V34.7ZM1261.52 32.7V84.45H1265.52V32.7H1261.52ZM1263.52 82.45H1234.42V86.45H1263.52V82.45ZM1232.42 84.45V102H1236.42V84.45H1232.42ZM1234.42 104H1265.47V100H1234.42V104ZM1266.5 103.714L1283.45 93.5136L1281.39 90.0864L1264.44 100.286L1266.5 103.714ZM1284.42 91.8V26.1H1280.42V91.8H1284.42Z" fill="white"/>
</svg>
