<svg width="392" height="35" viewBox="0 0 392 35" fill="none" xmlns="http://www.w3.org/2000/svg">
<path d="M0.308594 0.499997H19.5086V7.58H7.86859V14.36H19.5086V21.38H7.86859V35H0.308594V0.499997ZM41.6486 7.58V0.499997H22.4486V7.58H41.6486ZM32.1686 21.38V14.36H22.4486V21.38H32.1686ZM47.0383 4.64V35H54.5983V21.2H66.2383V14.36H54.5983V7.28H66.2383V0.499997H53.8783L47.0383 4.64ZM88.3783 4.64V35H80.8183V21.2H68.9383V14.36H80.8183V7.28H68.9383V0.499997H81.2983L88.3783 4.64ZM94.2648 4.64L101.285 0.499997H113.705V7.28H102.065V27.98H113.465V35H101.285L94.2648 30.92V4.64ZM128.045 23.84V27.98H116.645V35H128.825L135.845 30.92V23.84H128.045ZM135.845 11.48V4.64L128.825 0.499997H116.405V7.28H128.045V11.48H135.845ZM146.617 0.499997H165.817V7.58H154.177V14.36H165.817V21.2H154.177V28.22H165.577V35H146.617V0.499997ZM168.757 28.22V35H187.957V28.22H168.757ZM187.957 7.58V0.499997H168.517V7.58H187.957ZM178.237 21.2V14.36H168.517V21.2H178.237ZM195.777 0.499997H214.977V7.28H203.337V14.36H214.977V21.2H203.337V27.98H214.977V35H195.777V0.499997ZM237.117 30.92V20.42L231.477 17.78L237.117 15.08V4.64L230.337 0.499997H217.917V7.28H229.557V14.36H217.917V21.2H229.557V27.98H217.917V35H230.337L237.117 30.92ZM246.726 4.64L253.746 0.499997H266.166V7.28H254.286V27.98H265.926V35H253.746L246.726 30.92V4.64ZM288.066 4.64L281.286 0.499997H268.866V7.28H280.506V27.98H268.866V35H281.286L288.066 30.92V4.64ZM297.644 4.64L304.664 0.499997H317.084V7.28H305.204V27.98H316.844V35H304.664L297.644 30.92V4.64ZM338.984 4.64L332.204 0.499997H319.784V7.28H331.424V27.98H319.784V35H332.204L338.984 30.92V4.64ZM349.762 0.499997V35H357.322V21.2H360.682V14.36H357.322V0.499997H349.762ZM368.962 17.78L391.102 31.58L384.022 35L362.902 21.2V14.36L384.022 0.499997L391.102 3.92L368.962 17.78Z" fill="black"/>
</svg>
