<svg width="363" height="97" viewBox="0 0 363 97" fill="none" xmlns="http://www.w3.org/2000/svg">
<path d="M3.70401 93.9325C4.37552 92.6778 5.46332 91.3185 6.12134 90.9118C6.8274 90.4754 5.81815 88.279 3.65887 85.5527L0 80.933L3.6562 76.7688L7.31241 72.6046L3.80465 68.3491L0.296897 64.0936L1.66892 62.2603C2.42354 61.252 3.98021 59.3474 5.12819 58.0279L7.21542 55.6288L3.62505 51.273L0.0346802 46.9173L3.67621 42.3195C5.826 39.6052 6.82764 37.4188 6.12134 36.9823C5.46332 36.5756 4.37552 35.2162 3.70401 33.9615L2.48308 31.6802H16.6044H30.7258V52.5797V73.4792L45.9792 84.4357C54.3686 90.4617 61.2326 95.577 61.2326 95.803C61.2326 96.029 48.014 96.2139 31.8579 96.2139H2.48308L3.70401 93.9325ZM301.767 95.803C301.767 95.577 308.631 90.4617 317.021 84.4357L332.274 73.4792V52.5797V31.6802H346.396H360.517L359.296 33.9615C358.624 35.2162 357.537 36.5756 356.879 36.9823C356.172 37.4188 357.174 39.6052 359.324 42.3195L362.965 46.9173L359.421 51.2176L355.876 55.518L359.29 59.6592L362.703 63.8005L361.331 65.6338C360.576 66.6421 358.974 68.5955 357.77 69.9748L355.58 72.4826L359.29 76.7078L363 80.933L359.341 85.5527C357.182 88.279 356.173 90.4754 356.879 90.9118C357.537 91.3185 358.624 92.6778 359.296 93.9325L360.517 96.2139H331.142C314.986 96.2139 301.767 96.029 301.767 95.803ZM47.7392 82.3583L33.6591 72.1604L47.6029 71.8285C55.2719 71.6459 61.7615 71.7115 62.0241 71.9741C62.2868 72.2367 62.3481 76.9752 62.1605 82.5039L61.8193 92.5561L47.7392 82.3583ZM300.594 82.2775V71.5737H314.674C322.418 71.5737 328.754 71.7914 328.754 72.0575C328.754 72.3236 323.078 76.6373 316.141 81.6434C309.203 86.6495 302.867 91.2485 302.061 91.8633L300.594 92.9812V82.2775ZM33.0725 34.6135V0H181.5H329.928V34.6135V69.2271H181.5H33.0725V34.6135Z" fill="#FEFEFE"/>
<path d="M139.946 20.5V16.5H150.546V20.5H147.096L156.096 49.45L165.146 20.5H161.696V16.5H172.296V20.5H169.746L159.296 54H152.946L142.496 20.5H139.946ZM176.772 50H180.772V20.5H176.772V16.5H189.372V20.5H185.372V50H189.372V54H176.772V50ZM196.853 16.5H216.853L222.053 22V33.5L216.853 39H204.953V50H208.953V54H196.853V50H200.353V20.5H196.853V16.5ZM204.953 20.8V34.7H214.853L217.753 31.75V23.75L214.903 20.8H204.953Z" fill="black"/>
</svg>
