<svg width="652" height="96" viewBox="0 0 652 96" fill="none" xmlns="http://www.w3.org/2000/svg">
<path d="M107.622 95.0268C107.761 95.0872 107.893 95.1451 108.019 95.2004C107.415 95.2171 106.676 95.2335 105.81 95.2493C103.134 95.2982 99.261 95.3424 94.4801 95.3796C84.9188 95.4539 71.7298 95.5 57.2214 95.5H5.63594L7.01301 94.0706C7.58866 93.4731 8.35211 92.8418 9.11808 92.3101C9.89014 91.7742 10.6301 91.3636 11.1572 91.1826C11.3929 91.1017 11.6154 90.9589 11.7565 90.724C11.8981 90.4883 11.9173 90.2274 11.8772 89.9898C11.8018 89.5438 11.499 89.0583 11.0986 88.5742C10.2765 87.5804 8.81077 86.3221 6.85897 84.9532L0.90129 80.7745L6.83439 77.0207L13.4015 72.8657L14.0484 72.4564L13.4136 72.0286L7.11313 67.7825L1.39871 63.9314L3.29563 62.5234C4.63849 61.5266 7.42403 59.6331 9.48005 58.3203L13.229 55.9266L13.8713 55.5164L13.2394 55.0905L6.79054 50.7444L6.51111 51.159L6.79054 50.7444L0.944759 46.8048L6.89011 42.6348C8.83341 41.2718 10.2918 40.0188 11.1084 39.0286C11.5061 38.5464 11.807 38.0618 11.8802 37.6161C11.9192 37.3783 11.8985 37.1182 11.7562 36.8836C11.6145 36.65 11.3924 36.5079 11.1572 36.4272C10.6301 36.2462 9.89015 35.8356 9.11808 35.2996C8.35211 34.7679 7.58867 34.1366 7.01301 33.5391L5.63597 32.1098H29.8239H54.6879V52.4628V73.3158V73.6547L55.0026 73.7802L82.3999 84.7124C89.9329 87.7181 96.7801 90.4964 101.743 92.5511C104.225 93.5787 106.234 94.4244 107.622 95.0268ZM596.997 73.7802L597.312 73.6547V73.3158V52.4628V32.1098H622.177H646.364L644.987 33.5391C644.411 34.1366 643.648 34.7679 642.882 35.2996C642.11 35.8356 641.37 36.2462 640.843 36.4272C640.608 36.5078 640.386 36.6498 640.244 36.8833C640.102 37.1178 640.081 37.3781 640.12 37.6159C640.193 38.0618 640.494 38.5464 640.892 39.0286C641.708 40.0188 643.167 41.2718 645.11 42.6348L651.055 46.8048L645.292 50.6891L638.925 54.9799L638.31 55.3946L638.925 55.8092L645.057 59.9412L650.601 63.6783L648.704 65.0864C647.361 66.0827 644.495 68.0247 642.338 69.3974L638.404 71.8996L637.739 72.3226L638.405 72.744L645.069 76.9598L651.099 80.7745L645.141 84.9531C643.189 86.3221 641.724 87.5804 640.902 88.5742C640.502 89.0583 640.199 89.5438 640.123 89.9898C640.083 90.2275 640.103 90.4883 640.244 90.724C640.385 90.9589 640.608 91.1016 640.843 91.1826C641.37 91.3635 642.11 91.7741 642.882 92.3101C643.648 92.8418 644.411 93.4731 644.987 94.0707L646.364 95.5H594.779C580.27 95.5 567.081 95.4539 557.52 95.3796C552.739 95.3424 548.866 95.2982 546.189 95.2493C545.323 95.2335 544.584 95.2171 543.98 95.2004C544.106 95.1451 544.239 95.0872 544.378 95.0268C545.765 94.4244 547.774 93.5787 550.256 92.5511C555.219 90.4964 562.067 87.7181 569.6 84.7124L596.997 73.7802ZM111.15 82.29L110.58 91.6276L85.9331 81.7113L62.9567 72.467L85.5082 72.1688C92.3933 72.0777 98.7478 72.0485 103.439 72.0749C105.785 72.088 107.712 72.1151 109.08 72.155C109.765 72.175 110.306 72.1981 110.687 72.224C110.855 72.2354 110.988 72.2471 111.085 72.2585C111.122 72.3876 111.159 72.5842 111.193 72.8531C111.261 73.3947 111.308 74.1632 111.33 75.1085C111.374 76.9954 111.318 79.542 111.15 82.29ZM111.232 72.2814C111.231 72.2811 111.23 72.2807 111.228 72.2802C111.235 72.2818 111.236 72.2824 111.232 72.2814ZM111.047 72.1499C111.044 72.1442 111.044 72.143 111.046 72.1484C111.047 72.1489 111.047 72.1494 111.047 72.1499ZM540.41 82.0946V71.9146H565.2C572.152 71.9146 578.471 71.9689 583.051 72.0563C585.341 72.1 587.194 72.152 588.471 72.2094C588.573 72.214 588.672 72.2186 588.766 72.2232C588.68 72.2626 588.59 72.3034 588.496 72.3456C587.351 72.862 585.692 73.5792 583.64 74.4454C579.537 76.1775 573.876 78.5011 567.648 80.9978C555.19 85.9913 543.803 90.5828 542.35 91.1987L540.41 92.0199V82.0946ZM59.9029 34.5365V0.5H326H592.098V34.5365V68.5732H326H59.9029V34.5365Z" fill="black" stroke="white"/>
</svg>
