<svg width="438" height="96" viewBox="0 0 438 96" fill="none" xmlns="http://www.w3.org/2000/svg">
<path d="M72.1603 94.9881C72.2775 95.0639 72.3878 95.1356 72.4911 95.2032C72.0992 95.219 71.6251 95.2344 71.0736 95.2494C69.2777 95.2983 66.6778 95.3425 63.4666 95.3796C57.0448 95.4539 48.1859 95.5 38.4401 95.5H3.91528L4.88906 93.9954C5.27426 93.4002 5.78387 92.7733 6.2931 92.2471C6.81173 91.7112 7.29198 91.3193 7.61363 91.1549C7.82674 91.046 7.98508 90.8728 8.07354 90.6536C8.15744 90.4457 8.16794 90.2239 8.14444 90.0167C8.09828 89.6098 7.90706 89.1414 7.63402 88.65C7.08085 87.6545 6.09249 86.3912 4.77593 85.0167L0.709857 80.7714L4.75442 76.9621L9.16605 72.8072L9.5405 72.4545L9.17736 72.0902L4.94485 67.8442L1.04765 63.9345L2.38446 62.4574C3.28397 61.4635 5.15278 59.5724 6.5322 58.2613L6.18773 57.8989L6.5322 58.2613L9.05068 55.8675L9.42181 55.5148L9.06033 55.1521L4.72815 50.806L0.740871 46.806L4.79685 42.5713C6.10773 41.2026 7.0911 39.9446 7.64061 38.9528C7.91183 38.4632 8.10157 37.9961 8.14639 37.5899C8.16923 37.3829 8.15791 37.1615 8.07342 36.9542C7.98442 36.7358 7.82606 36.5634 7.61361 36.4549C7.29199 36.2905 6.81174 35.8986 6.2931 35.3626C5.78388 34.8364 5.27426 34.2095 4.88906 33.6143L3.9153 32.1098H20.0351H36.5741V52.4628V73.3158V73.6004L36.8188 73.7457L55.2237 84.6779C60.2835 87.6832 64.8823 90.4609 68.2152 92.5148C69.8821 93.5421 71.2302 94.3869 72.1603 94.9881ZM401.181 73.7457L401.426 73.6004V73.3158V52.4628V32.1098H417.965H434.085L433.111 33.6143C432.725 34.2095 432.216 34.8365 431.707 35.3627C431.188 35.8987 430.708 36.2905 430.387 36.4549C430.174 36.5634 430.016 36.7356 429.927 36.9539C429.842 37.1613 429.831 37.3827 429.854 37.5898C429.898 37.996 430.088 38.4632 430.359 38.9528C430.909 39.9447 431.892 41.2027 433.203 42.5713L437.259 46.806L433.327 50.7508L429.05 55.0416L428.698 55.3946L429.05 55.7476L433.169 59.8796L436.952 63.6753L435.615 65.1524C434.716 66.1456 432.793 68.0852 431.346 69.4563L428.703 71.9584L428.319 72.3224L428.704 72.6855L433.181 76.9013L437.29 80.7714L433.224 85.0166L433.585 85.3625L433.224 85.0167C431.908 86.3913 430.919 87.6546 430.366 88.6501C430.093 89.1415 429.902 89.6098 429.856 90.0167C429.833 90.224 429.843 90.4457 429.927 90.6536C430.015 90.8728 430.174 91.046 430.387 91.1549C430.708 91.3193 431.188 91.7111 431.707 92.247C432.216 92.7732 432.725 93.4002 433.111 93.9955L434.085 95.5H399.56C389.814 95.5 380.955 95.4539 374.533 95.3796C371.322 95.3425 368.722 95.2983 366.926 95.2494C366.375 95.2344 365.9 95.219 365.508 95.2032C365.612 95.1356 365.722 95.0639 365.839 94.9881C366.769 94.3869 368.117 93.5421 369.784 92.5148C373.117 90.4609 377.716 87.6832 382.777 84.6779L401.181 73.7457ZM57.8596 81.7463L42.364 72.4656L57.4481 72.1687C62.0715 72.0777 66.3376 72.0486 69.4857 72.0749C71.0604 72.088 72.3514 72.115 73.266 72.1548C73.7244 72.1747 74.0813 72.1975 74.3296 72.2226C74.379 72.2276 74.4226 72.2325 74.4607 72.2373C74.4858 72.376 74.5102 72.5742 74.5321 72.8327C74.5786 73.3823 74.6103 74.1571 74.6251 75.1047C74.6547 76.9973 74.6169 79.5486 74.504 82.3L74.1268 91.489L57.8596 81.7463ZM363.2 82.0946V71.9146H379.689C384.358 71.9146 388.6 71.9689 391.674 72.0562C393.211 72.0999 394.451 72.1517 395.305 72.2088C395.353 72.212 395.401 72.2153 395.447 72.2186C395.369 72.2716 395.286 72.3275 395.199 72.3863C394.432 72.901 393.319 73.6168 391.942 74.4827C389.187 76.2137 385.386 78.5364 381.203 81.0325C372.836 86.025 365.183 90.6184 364.204 91.2362L363.2 91.8684V82.0946ZM40.4057 34.5365V0.5H219H397.595V34.5365V68.5732H219H40.4057V34.5365Z" fill="black" stroke="white"/>
</svg>
