<?xml version="1.0" encoding="UTF-8" standalone="no"?>
<!-- Created with Inkscape (http://www.inkscape.org/) -->

<svg
   width="42.8396mm"
   height="29.691635mm"
   viewBox="0 0 42.8396 29.691635"
   version="1.1"
   id="svg501"
   xml:space="preserve"
   xmlns:inkscape="http://www.inkscape.org/namespaces/inkscape"
   xmlns:sodipodi="http://sodipodi.sourceforge.net/DTD/sodipodi-0.dtd"
   xmlns="http://www.w3.org/2000/svg"
   xmlns:svg="http://www.w3.org/2000/svg"><sodipodi:namedview
     id="namedview503"
     pagecolor="#ffffff"
     bordercolor="#000000"
     borderopacity="0.25"
     inkscape:showpageshadow="2"
     inkscape:pageopacity="0.0"
     inkscape:pagecheckerboard="0"
     inkscape:deskcolor="#d1d1d1"
     inkscape:document-units="mm"
     showgrid="false" /><defs
     id="defs498" /><g
     inkscape:label="Camada 1"
     inkscape:groupmode="layer"
     id="layer1"
     transform="translate(-146.17794,-82.927564)"><path
       style="fill:#ffffff;stroke-width:0.105885"
       d="m 179.79216,107.46411 c -1.14385,-0.24583 -0.92658,-0.18003 -4.8707,-1.47517 -5.45472,-1.79117 -9.35653,-3.35999 -13.71206,-5.51324 -4.72115,-2.334018 -7.48067,-4.087965 -8.38224,-5.327747 -0.38273,-0.526298 -0.40129,-1.236845 -0.0542,-2.075336 0.29307,-0.708049 1.87815,-3.232891 2.75865,-4.394213 1.47137,-1.940615 3.30684,-3.481565 5.30173,-4.450987 1.28794,-0.625878 2.24368,-0.899303 4.08204,-1.167826 1.5701,-0.229341 3.03052,-0.161859 4.71187,0.21772 4.87195,1.099884 8.77427,3.035639 11.62657,5.767395 3.10505,2.973832 4.45769,6.319123 4.27882,10.582238 -0.0701,1.671436 -0.33142,3.115446 -0.93459,5.165106 -0.49161,1.67052 -0.8561,2.42031 -1.31163,2.69811 -0.4381,0.26717 -2.19073,0.25411 -3.49424,-0.026 z"
       id="path125175"
       inkscape:export-filename="hat.sgv.svg"
       inkscape:export-xdpi="92.649521"
       inkscape:export-ydpi="92.649521" /><path
       style="fill:#ffffff;stroke-width:0.105885"
       d="m 183.35088,112.45098 c -5.4483,-0.85283 -14.45432,-3.51434 -20.50027,-6.05836 -5.63449,-2.37088 -10.9073,-5.63309 -13.80977,-8.543898 -2.35737,-2.364147 -3.31162,-4.426212 -2.66573,-5.760447 0.33886,-0.699995 1.10184,-0.950008 1.43911,-0.47157 0.0924,0.131032 0.48623,0.690896 0.87524,1.244145 2.18561,3.108375 5.79013,5.765231 12.20229,8.99418 5.43584,2.73731 11.21257,4.89024 17.78862,6.62962 4.26494,1.12809 6.22964,1.42307 8.156,1.22454 1.4151,-0.14584 1.9039,-0.0414 2.13015,0.45518 0.27905,0.61244 -0.63344,1.88557 -1.60361,2.2374 -0.74431,0.26992 -2.46702,0.29105 -4.01203,0.0492 z"
       id="path125177" /></g></svg>
