<svg width="409" height="35" viewBox="0 0 409 35" fill="none" xmlns="http://www.w3.org/2000/svg">
<path d="M0.973828 0.499997H8.53383V35H0.973828V0.499997ZM19.3418 0.499997H26.1818L38.5418 12.14V21.2L26.9018 9.98V35H19.3418V0.499997ZM53.1218 25.28V0.499997H60.6818V35H53.6018L41.2418 23.12V14.36L53.1218 25.28ZM70.8621 4.64V17.3L77.7021 21.38H90.0621V14.36H78.1821V7.58H90.0621V0.499997H77.7021L70.8621 4.64ZM112.202 18.5V30.92L105.122 35H93.0021V28.22H104.642V21.38H92.7621V14.36H105.122L112.202 18.5ZM78.4221 24.08H70.8621V30.92L77.8821 35H90.0621V28.22H78.4221V24.08ZM112.202 11.66H104.642V7.58H92.7621V0.499997H105.122L112.202 4.64V11.66ZM159.548 7.28H142.268V35H133.988V7.28H118.208V0.499997H159.548V7.28ZM165.446 4.64V35H173.006V21.2H184.646V14.36H173.006V7.28H184.646V0.499997H172.286L165.446 4.64ZM206.786 4.64V35H199.226V21.2H187.346V14.36H199.226V7.28H187.346V0.499997H199.706L206.786 4.64ZM212.673 4.64V30.92L219.693 35H231.873V28.22H220.473V7.58H232.113V0.499997H219.693L212.673 4.64ZM254.253 11.66H246.453V7.58H234.813V0.499997H247.233L254.253 4.64V11.66ZM254.253 14.36V30.92L247.233 35H235.053V28.22H246.453V21.2H234.813V14.36H254.253ZM265.025 0.499997H284.225V7.58H272.585V14.36H284.225V21.38H272.585V35H265.025V0.499997ZM306.365 35V20.72L300.725 17.78L306.365 15.08V4.64L299.285 0.499997H286.925V7.58H298.805V14.36H286.925V21.38H298.805V35H306.365ZM315.388 4.64V35H322.948V21.2H334.588V14.36H322.948V7.28H334.588V0.499997H322.228L315.388 4.64ZM356.728 4.64V35H349.168V21.2H337.288V14.36H349.168V7.28H337.288V0.499997H349.648L356.728 4.64ZM367.506 0.499997H374.346L386.706 12.14V21.2L375.066 10.22V35H367.506V0.499997ZM408.846 0.499997H402.066L389.646 12.14V21.2L401.286 10.22V35H408.846V0.499997Z" fill="black"/>
</svg>
