<svg width="328" height="35" viewBox="0 0 328 35" fill="none" xmlns="http://www.w3.org/2000/svg">
<path d="M0.927734 0.499997H8.48774V27.98H19.8877V35H0.927734V0.499997ZM23.0677 27.98V35H42.2677V27.98H23.0677ZM47.6574 0.499997H55.2174V35H47.6574V0.499997ZM66.0254 0.499997H72.8654L85.2254 12.14V21.2L73.5854 9.98V35H66.0254V0.499997ZM99.8054 25.28V0.499997H107.365V35H100.285L87.9254 23.12V14.36L99.8054 25.28ZM119.346 0.499997V35H126.906V21.2H130.266V14.36H126.906V0.499997H119.346ZM138.546 17.78L160.686 31.58L153.606 35L132.486 21.2V14.36L153.606 0.499997L160.686 3.92L138.546 17.78ZM167.275 0.499997H186.475V7.58H174.835V14.36H186.475V21.2H174.835V28.22H186.235V35H167.275V0.499997ZM189.415 28.22V35H208.615V28.22H189.415ZM208.615 7.58V0.499997H189.175V7.58H208.615ZM198.895 21.2V14.36H189.175V21.2H198.895ZM216.436 0.499997H235.636V7.28H223.996V27.98H235.636V35H216.436V0.499997ZM257.776 4.64L250.996 0.499997H238.576V7.28H250.216V27.98H238.576V35H250.996L257.776 30.92V4.64ZM267.384 0.499997H274.944V35H267.384V0.499997ZM285.752 0.499997H292.592L304.952 12.14V21.2L293.312 9.98V35H285.752V0.499997ZM319.532 25.28V0.499997H327.092V35H320.012L307.652 23.12V14.36L319.532 25.28Z" fill="black"/>
</svg>
