<svg width="344" height="61" viewBox="0 0 344 61" fill="none" xmlns="http://www.w3.org/2000/svg">
<path d="M0.621094 0.624995H12.5911L34.2211 20.995V36.85L13.8511 17.635V61H0.621094V0.624995ZM72.9661 0.624995H61.1011L39.3661 20.995V36.85L59.7361 17.635V61H72.9661V0.624995ZM93.9316 0.624995H127.532V13.015H107.162V24.88H127.532V36.85H107.162V49.135H127.112V61H93.9316V0.624995ZM132.677 49.135V61H166.277V49.135H132.677ZM166.277 13.015V0.624995H132.257V13.015H166.277ZM149.267 36.85V24.88H132.257V36.85H149.267ZM179.962 0.624995H191.932L213.562 20.995V36.85L193.192 17.215V61H179.962V0.624995ZM239.077 43.99V0.624995H252.307V61H239.917L218.287 40.21V24.88L239.077 43.99ZM271.172 0.624995V53.86L283.142 61H304.772V48.715H284.402V0.624995H271.172ZM343.517 0.624995V53.86L331.652 61H309.917V48.715H330.287V0.624995H343.517Z" fill="#0029FF"/>
</svg>
