<svg width="465" height="35" viewBox="0 0 465 35" fill="none" xmlns="http://www.w3.org/2000/svg">
<path d="M0.929688 0.499997H20.1297V7.28H8.48969V27.98H20.1297V35H0.929688V0.499997ZM42.2697 4.64L35.4897 0.499997H23.0697V7.28H34.7097V27.98H23.0697V35H35.4897L42.2697 30.92V4.64ZM51.8781 0.499997H59.4381V35H51.8781V0.499997ZM69.0461 4.64V35H76.6061V21.2H88.2461V14.36H76.6061V7.28H88.2461V0.499997H75.8861L69.0461 4.64ZM110.386 4.64V35H102.826V21.2H90.9461V14.36H102.826V7.28H90.9461V0.499997H103.306L110.386 4.64ZM139.152 0.499997H158.352V7.28H146.712V27.98H158.352V35H139.152V0.499997ZM180.492 4.64L173.712 0.499997H161.292V7.28H172.932V27.98H161.292V35H173.712L180.492 30.92V4.64ZM190.101 4.64L197.121 0.499997H209.541V7.28H197.661V27.98H209.301V35H197.121L190.101 30.92V4.64ZM231.441 4.64L224.661 0.499997H212.241V7.28H223.881V27.98H212.241V35H224.661L231.441 30.92V4.64ZM260.207 0.499997H267.047L279.407 12.14V21.2L267.767 9.98V35H260.207V0.499997ZM293.987 25.28V0.499997H301.547V35H294.467L282.107 23.12V14.36L293.987 25.28ZM312.327 4.64L319.347 0.499997H331.767V7.28H319.887V27.98H331.527V35H319.347L312.327 30.92V4.64ZM353.667 4.64L346.887 0.499997H334.467V7.28H346.107V27.98H334.467V35H346.887L353.667 30.92V4.64ZM363.245 0.499997H370.805V35H363.245V0.499997ZM383.053 0.499997L395.413 21.2V35L376.213 2.72L383.053 0.499997ZM410.773 0.499997L398.353 21.2V35L417.553 2.72L410.773 0.499997ZM422.952 4.64L429.972 0.499997H442.392V7.28H430.512V27.98H442.152V35H429.972L422.952 30.92V4.64ZM464.292 4.64L457.512 0.499997H445.092V7.28H456.732V27.98H445.092V35H457.512L464.292 30.92V4.64Z" fill="black"/>
<path d="M0.929688 0.499996V-0.500004H-0.0703125V0.499996H0.929688ZM20.1297 0.499996H21.1297V-0.500004H20.1297V0.499996ZM20.1297 7.28V8.28H21.1297V7.28H20.1297ZM8.48969 7.28V6.28H7.48969V7.28H8.48969ZM8.48969 27.98H7.48969V28.98H8.48969V27.98ZM20.1297 27.98H21.1297V26.98H20.1297V27.98ZM20.1297 35V36H21.1297V35H20.1297ZM0.929688 35H-0.0703125V36H0.929688V35ZM42.2697 4.64H43.2697V4.07893L42.7908 3.78653L42.2697 4.64ZM35.4897 0.499996L36.0108 -0.353472L35.7709 -0.500004H35.4897V0.499996ZM23.0697 0.499996V-0.500004H22.0697V0.499996H23.0697ZM23.0697 7.28H22.0697V8.28H23.0697V7.28ZM34.7097 7.28H35.7097V6.28H34.7097V7.28ZM34.7097 27.98V28.98H35.7097V27.98H34.7097ZM23.0697 27.98V26.98H22.0697V27.98H23.0697ZM23.0697 35H22.0697V36H23.0697V35ZM35.4897 35V36H35.7674L36.0053 35.8568L35.4897 35ZM42.2697 30.92L42.7853 31.7768L43.2697 31.4853V30.92H42.2697ZM0.929688 1.5H20.1297V-0.500004H0.929688V1.5ZM19.1297 0.499996V7.28H21.1297V0.499996H19.1297ZM20.1297 6.28H8.48969V8.28H20.1297V6.28ZM7.48969 7.28V27.98H9.48969V7.28H7.48969ZM8.48969 28.98H20.1297V26.98H8.48969V28.98ZM19.1297 27.98V35H21.1297V27.98H19.1297ZM20.1297 34H0.929688V36H20.1297V34ZM1.92969 35V0.499996H-0.0703125V35H1.92969ZM42.7908 3.78653L36.0108 -0.353472L34.9685 1.35347L41.7485 5.49347L42.7908 3.78653ZM35.4897 -0.500004H23.0697V1.5H35.4897V-0.500004ZM22.0697 0.499996V7.28H24.0697V0.499996H22.0697ZM23.0697 8.28H34.7097V6.28H23.0697V8.28ZM33.7097 7.28V27.98H35.7097V7.28H33.7097ZM34.7097 26.98H23.0697V28.98H34.7097V26.98ZM22.0697 27.98V35H24.0697V27.98H22.0697ZM23.0697 36H35.4897V34H23.0697V36ZM36.0053 35.8568L42.7853 31.7768L41.7541 30.0632L34.9741 34.1432L36.0053 35.8568ZM43.2697 30.92V4.64H41.2697V30.92H43.2697ZM51.8781 0.499996V-0.500004H50.8781V0.499996H51.8781ZM59.4381 0.499996H60.4381V-0.500004H59.4381V0.499996ZM59.4381 35V36H60.4381V35H59.4381ZM51.8781 35H50.8781V36H51.8781V35ZM51.8781 1.5H59.4381V-0.500004H51.8781V1.5ZM58.4381 0.499996V35H60.4381V0.499996H58.4381ZM59.4381 34H51.8781V36H59.4381V34ZM52.8781 35V0.499996H50.8781V35H52.8781ZM69.0461 4.64L68.5283 3.7845L68.0461 4.07635V4.64H69.0461ZM69.0461 35H68.0461V36H69.0461V35ZM76.6061 35V36H77.6061V35H76.6061ZM76.6061 21.2V20.2H75.6061V21.2H76.6061ZM88.2461 21.2V22.2H89.2461V21.2H88.2461ZM88.2461 14.36H89.2461V13.36H88.2461V14.36ZM76.6061 14.36H75.6061V15.36H76.6061V14.36ZM76.6061 7.28V6.28H75.6061V7.28H76.6061ZM88.2461 7.28V8.28H89.2461V7.28H88.2461ZM88.2461 0.499996H89.2461V-0.500004H88.2461V0.499996ZM75.8861 0.499996V-0.500004H75.607L75.3683 -0.355503L75.8861 0.499996ZM110.386 4.64H111.386V4.06633L110.891 3.77675L110.386 4.64ZM110.386 35V36H111.386V35H110.386ZM102.826 35H101.826V36H102.826V35ZM102.826 21.2H103.826V20.2H102.826V21.2ZM90.9461 21.2H89.9461V22.2H90.9461V21.2ZM90.9461 14.36V13.36H89.9461V14.36H90.9461ZM102.826 14.36V15.36H103.826V14.36H102.826ZM102.826 7.28H103.826V6.28H102.826V7.28ZM90.9461 7.28H89.9461V8.28H90.9461V7.28ZM90.9461 0.499996V-0.500004H89.9461V0.499996H90.9461ZM103.306 0.499996L103.811 -0.363251L103.577 -0.500004H103.306V0.499996ZM68.0461 4.64V35H70.0461V4.64H68.0461ZM69.0461 36H76.6061V34H69.0461V36ZM77.6061 35V21.2H75.6061V35H77.6061ZM76.6061 22.2H88.2461V20.2H76.6061V22.2ZM89.2461 21.2V14.36H87.2461V21.2H89.2461ZM88.2461 13.36H76.6061V15.36H88.2461V13.36ZM77.6061 14.36V7.28H75.6061V14.36H77.6061ZM76.6061 8.28H88.2461V6.28H76.6061V8.28ZM89.2461 7.28V0.499996H87.2461V7.28H89.2461ZM88.2461 -0.500004H75.8861V1.5H88.2461V-0.500004ZM75.3683 -0.355503L68.5283 3.7845L69.5639 5.4955L76.4039 1.3555L75.3683 -0.355503ZM109.386 4.64V35H111.386V4.64H109.386ZM110.386 34H102.826V36H110.386V34ZM103.826 35V21.2H101.826V35H103.826ZM102.826 20.2H90.9461V22.2H102.826V20.2ZM91.9461 21.2V14.36H89.9461V21.2H91.9461ZM90.9461 15.36H102.826V13.36H90.9461V15.36ZM103.826 14.36V7.28H101.826V14.36H103.826ZM102.826 6.28H90.9461V8.28H102.826V6.28ZM91.9461 7.28V0.499996H89.9461V7.28H91.9461ZM90.9461 1.5H103.306V-0.500004H90.9461V1.5ZM102.801 1.36325L109.881 5.50324L110.891 3.77675L103.811 -0.363251L102.801 1.36325ZM139.152 0.499996V-0.500004H138.152V0.499996H139.152ZM158.352 0.499996H159.352V-0.500004H158.352V0.499996ZM158.352 7.28V8.28H159.352V7.28H158.352ZM146.712 7.28V6.28H145.712V7.28H146.712ZM146.712 27.98H145.712V28.98H146.712V27.98ZM158.352 27.98H159.352V26.98H158.352V27.98ZM158.352 35V36H159.352V35H158.352ZM139.152 35H138.152V36H139.152V35ZM180.492 4.64H181.492V4.07893L181.013 3.78653L180.492 4.64ZM173.712 0.499996L174.233 -0.353472L173.994 -0.500004H173.712V0.499996ZM161.292 0.499996V-0.500004H160.292V0.499996H161.292ZM161.292 7.28H160.292V8.28H161.292V7.28ZM172.932 7.28H173.932V6.28H172.932V7.28ZM172.932 27.98V28.98H173.932V27.98H172.932ZM161.292 27.98V26.98H160.292V27.98H161.292ZM161.292 35H160.292V36H161.292V35ZM173.712 35V36H173.99L174.228 35.8568L173.712 35ZM180.492 30.92L181.008 31.7768L181.492 31.4853V30.92H180.492ZM139.152 1.5H158.352V-0.500004H139.152V1.5ZM157.352 0.499996V7.28H159.352V0.499996H157.352ZM158.352 6.28H146.712V8.28H158.352V6.28ZM145.712 7.28V27.98H147.712V7.28H145.712ZM146.712 28.98H158.352V26.98H146.712V28.98ZM157.352 27.98V35H159.352V27.98H157.352ZM158.352 34H139.152V36H158.352V34ZM140.152 35V0.499996H138.152V35H140.152ZM181.013 3.78653L174.233 -0.353472L173.191 1.35347L179.971 5.49347L181.013 3.78653ZM173.712 -0.500004H161.292V1.5H173.712V-0.500004ZM160.292 0.499996V7.28H162.292V0.499996H160.292ZM161.292 8.28H172.932V6.28H161.292V8.28ZM171.932 7.28V27.98H173.932V7.28H171.932ZM172.932 26.98H161.292V28.98H172.932V26.98ZM160.292 27.98V35H162.292V27.98H160.292ZM161.292 36H173.712V34H161.292V36ZM174.228 35.8568L181.008 31.7768L179.977 30.0632L173.197 34.1432L174.228 35.8568ZM181.492 30.92V4.64H179.492V30.92H181.492ZM190.101 4.64L189.593 3.77863L189.101 4.06879V4.64H190.101ZM197.121 0.499996V-0.500004H196.848L196.613 -0.361368L197.121 0.499996ZM209.541 0.499996H210.541V-0.500004H209.541V0.499996ZM209.541 7.28V8.28H210.541V7.28H209.541ZM197.661 7.28V6.28H196.661V7.28H197.661ZM197.661 27.98H196.661V28.98H197.661V27.98ZM209.301 27.98H210.301V26.98H209.301V27.98ZM209.301 35V36H210.301V35H209.301ZM197.121 35L196.618 35.8646L196.851 36H197.121V35ZM190.101 30.92H189.101V31.4954L189.598 31.7846L190.101 30.92ZM231.441 4.64H232.441V4.07893L231.962 3.78653L231.441 4.64ZM224.661 0.499996L225.182 -0.353472L224.942 -0.500004H224.661V0.499996ZM212.241 0.499996V-0.500004H211.241V0.499996H212.241ZM212.241 7.28H211.241V8.28H212.241V7.28ZM223.881 7.28H224.881V6.28H223.881V7.28ZM223.881 27.98V28.98H224.881V27.98H223.881ZM212.241 27.98V26.98H211.241V27.98H212.241ZM212.241 35H211.241V36H212.241V35ZM224.661 35V36H224.938L225.176 35.8568L224.661 35ZM231.441 30.92L231.956 31.7768L232.441 31.4853V30.92H231.441ZM190.609 5.50136L197.629 1.36136L196.613 -0.361368L189.593 3.77863L190.609 5.50136ZM197.121 1.5H209.541V-0.500004H197.121V1.5ZM208.541 0.499996V7.28H210.541V0.499996H208.541ZM209.541 6.28H197.661V8.28H209.541V6.28ZM196.661 7.28V27.98H198.661V7.28H196.661ZM197.661 28.98H209.301V26.98H197.661V28.98ZM208.301 27.98V35H210.301V27.98H208.301ZM209.301 34H197.121V36H209.301V34ZM197.623 34.1354L190.603 30.0554L189.598 31.7846L196.618 35.8646L197.623 34.1354ZM191.101 30.92V4.64H189.101V30.92H191.101ZM231.962 3.78653L225.182 -0.353472L224.14 1.35347L230.92 5.49347L231.962 3.78653ZM224.661 -0.500004H212.241V1.5H224.661V-0.500004ZM211.241 0.499996V7.28H213.241V0.499996H211.241ZM212.241 8.28H223.881V6.28H212.241V8.28ZM222.881 7.28V27.98H224.881V7.28H222.881ZM223.881 26.98H212.241V28.98H223.881V26.98ZM211.241 27.98V35H213.241V27.98H211.241ZM212.241 36H224.661V34H212.241V36ZM225.176 35.8568L231.956 31.7768L230.925 30.0632L224.145 34.1432L225.176 35.8568ZM232.441 30.92V4.64H230.441V30.92H232.441ZM260.207 0.499996V-0.500004H259.207V0.499996H260.207ZM267.047 0.499996L267.733 -0.227995L267.444 -0.500004H267.047V0.499996ZM279.407 12.14H280.407V11.7081L280.093 11.412L279.407 12.14ZM279.407 21.2L278.713 21.92L280.407 23.5529V21.2H279.407ZM267.767 9.98L268.461 9.26002L266.767 7.62715V9.98H267.767ZM267.767 35V36H268.767V35H267.767ZM260.207 35H259.207V36H260.207V35ZM293.987 25.28L293.31 26.0162L294.987 27.5575V25.28H293.987ZM293.987 0.499996V-0.500004H292.987V0.499996H293.987ZM301.547 0.499996H302.547V-0.500004H301.547V0.499996ZM301.547 35V36H302.547V35H301.547ZM294.467 35L293.774 35.721L294.064 36H294.467V35ZM282.107 23.12H281.107V23.5459L281.414 23.841L282.107 23.12ZM282.107 14.36L282.784 13.6238L281.107 12.0825V14.36H282.107ZM260.207 1.5H267.047V-0.500004H260.207V1.5ZM266.361 1.22799L278.721 12.868L280.093 11.412L267.733 -0.227995L266.361 1.22799ZM278.407 12.14V21.2H280.407V12.14H278.407ZM280.101 20.48L268.461 9.26002L267.073 10.7L278.713 21.92L280.101 20.48ZM266.767 9.98V35H268.767V9.98H266.767ZM267.767 34H260.207V36H267.767V34ZM261.207 35V0.499996H259.207V35H261.207ZM294.987 25.28V0.499996H292.987V25.28H294.987ZM293.987 1.5H301.547V-0.500004H293.987V1.5ZM300.547 0.499996V35H302.547V0.499996H300.547ZM301.547 34H294.467V36H301.547V34ZM295.16 34.279L282.8 22.399L281.414 23.841L293.774 35.721L295.16 34.279ZM283.107 23.12V14.36H281.107V23.12H283.107ZM281.43 15.0962L293.31 26.0162L294.664 24.5438L282.784 13.6238L281.43 15.0962ZM312.327 4.64L311.819 3.77863L311.327 4.06879V4.64H312.327ZM319.347 0.499996V-0.500004H319.074L318.839 -0.361368L319.347 0.499996ZM331.767 0.499996H332.767V-0.500004H331.767V0.499996ZM331.767 7.28V8.28H332.767V7.28H331.767ZM319.887 7.28V6.28H318.887V7.28H319.887ZM319.887 27.98H318.887V28.98H319.887V27.98ZM331.527 27.98H332.527V26.98H331.527V27.98ZM331.527 35V36H332.527V35H331.527ZM319.347 35L318.845 35.8646L319.078 36H319.347V35ZM312.327 30.92H311.327V31.4954L311.825 31.7846L312.327 30.92ZM353.667 4.64H354.667V4.07893L354.188 3.78653L353.667 4.64ZM346.887 0.499996L347.408 -0.353472L347.169 -0.500004H346.887V0.499996ZM334.467 0.499996V-0.500004H333.467V0.499996H334.467ZM334.467 7.28H333.467V8.28H334.467V7.28ZM346.107 7.28H347.107V6.28H346.107V7.28ZM346.107 27.98V28.98H347.107V27.98H346.107ZM334.467 27.98V26.98H333.467V27.98H334.467ZM334.467 35H333.467V36H334.467V35ZM346.887 35V36H347.165L347.403 35.8568L346.887 35ZM353.667 30.92L354.183 31.7768L354.667 31.4853V30.92H353.667ZM312.835 5.50136L319.855 1.36136L318.839 -0.361368L311.819 3.77863L312.835 5.50136ZM319.347 1.5H331.767V-0.500004H319.347V1.5ZM330.767 0.499996V7.28H332.767V0.499996H330.767ZM331.767 6.28H319.887V8.28H331.767V6.28ZM318.887 7.28V27.98H320.887V7.28H318.887ZM319.887 28.98H331.527V26.98H319.887V28.98ZM330.527 27.98V35H332.527V27.98H330.527ZM331.527 34H319.347V36H331.527V34ZM319.85 34.1354L312.83 30.0554L311.825 31.7846L318.845 35.8646L319.85 34.1354ZM313.327 30.92V4.64H311.327V30.92H313.327ZM354.188 3.78653L347.408 -0.353472L346.366 1.35347L353.146 5.49347L354.188 3.78653ZM346.887 -0.500004H334.467V1.5H346.887V-0.500004ZM333.467 0.499996V7.28H335.467V0.499996H333.467ZM334.467 8.28H346.107V6.28H334.467V8.28ZM345.107 7.28V27.98H347.107V7.28H345.107ZM346.107 26.98H334.467V28.98H346.107V26.98ZM333.467 27.98V35H335.467V27.98H333.467ZM334.467 36H346.887V34H334.467V36ZM347.403 35.8568L354.183 31.7768L353.152 30.0632L346.372 34.1432L347.403 35.8568ZM354.667 30.92V4.64H352.667V30.92H354.667ZM363.245 0.499996V-0.500004H362.245V0.499996H363.245ZM370.805 0.499996H371.805V-0.500004H370.805V0.499996ZM370.805 35V36H371.805V35H370.805ZM363.245 35H362.245V36H363.245V35ZM363.245 1.5H370.805V-0.500004H363.245V1.5ZM369.805 0.499996V35H371.805V0.499996H369.805ZM370.805 34H363.245V36H370.805V34ZM364.245 35V0.499996H362.245V35H364.245ZM383.053 0.499996L383.912 -0.0126667L383.503 -0.697334L382.745 -0.45116L383.053 0.499996ZM395.413 21.2H396.413V20.9242L396.272 20.6873L395.413 21.2ZM395.413 35L394.554 35.5112L396.413 38.6374V35H395.413ZM376.213 2.72L375.905 1.76884L374.714 2.15529L375.354 3.2312L376.213 2.72ZM410.773 0.499996L411.084 -0.450356L410.326 -0.698614L409.916 -0.0144978L410.773 0.499996ZM398.353 21.2L397.496 20.6855L397.353 20.923V21.2H398.353ZM398.353 35H397.353V38.6374L399.213 35.5112L398.353 35ZM417.553 2.72L418.413 3.2312L419.051 2.15815L417.864 1.76965L417.553 2.72ZM382.195 1.01266L394.555 21.7127L396.272 20.6873L383.912 -0.0126667L382.195 1.01266ZM394.413 21.2V35H396.413V21.2H394.413ZM396.273 34.4888L377.073 2.20879L375.354 3.2312L394.554 35.5112L396.273 34.4888ZM376.522 3.67115L383.362 1.45115L382.745 -0.45116L375.905 1.76884L376.522 3.67115ZM409.916 -0.0144978L397.496 20.6855L399.211 21.7145L411.631 1.01449L409.916 -0.0144978ZM397.353 21.2V35H399.353V21.2H397.353ZM399.213 35.5112L418.413 3.2312L416.694 2.20879L397.494 34.4888L399.213 35.5112ZM417.864 1.76965L411.084 -0.450356L410.462 1.45035L417.242 3.67035L417.864 1.76965ZM422.952 4.64L422.444 3.77863L421.952 4.06879V4.64H422.952ZM429.972 0.499996V-0.500004H429.699L429.464 -0.361368L429.972 0.499996ZM442.392 0.499996H443.392V-0.500004H442.392V0.499996ZM442.392 7.28V8.28H443.392V7.28H442.392ZM430.512 7.28V6.28H429.512V7.28H430.512ZM430.512 27.98H429.512V28.98H430.512V27.98ZM442.152 27.98H443.152V26.98H442.152V27.98ZM442.152 35V36H443.152V35H442.152ZM429.972 35L429.47 35.8646L429.703 36H429.972V35ZM422.952 30.92H421.952V31.4954L422.45 31.7846L422.952 30.92ZM464.292 4.64H465.292V4.07893L464.813 3.78653L464.292 4.64ZM457.512 0.499996L458.033 -0.353472L457.794 -0.500004H457.512V0.499996ZM445.092 0.499996V-0.500004H444.092V0.499996H445.092ZM445.092 7.28H444.092V8.28H445.092V7.28ZM456.732 7.28H457.732V6.28H456.732V7.28ZM456.732 27.98V28.98H457.732V27.98H456.732ZM445.092 27.98V26.98H444.092V27.98H445.092ZM445.092 35H444.092V36H445.092V35ZM457.512 35V36H457.79L458.028 35.8568L457.512 35ZM464.292 30.92L464.808 31.7768L465.292 31.4853V30.92H464.292ZM423.46 5.50136L430.48 1.36136L429.464 -0.361368L422.444 3.77863L423.46 5.50136ZM429.972 1.5H442.392V-0.500004H429.972V1.5ZM441.392 0.499996V7.28H443.392V0.499996H441.392ZM442.392 6.28H430.512V8.28H442.392V6.28ZM429.512 7.28V27.98H431.512V7.28H429.512ZM430.512 28.98H442.152V26.98H430.512V28.98ZM441.152 27.98V35H443.152V27.98H441.152ZM442.152 34H429.972V36H442.152V34ZM430.475 34.1354L423.455 30.0554L422.45 31.7846L429.47 35.8646L430.475 34.1354ZM423.952 30.92V4.64H421.952V30.92H423.952ZM464.813 3.78653L458.033 -0.353472L456.991 1.35347L463.771 5.49347L464.813 3.78653ZM457.512 -0.500004H445.092V1.5H457.512V-0.500004ZM444.092 0.499996V7.28H446.092V0.499996H444.092ZM445.092 8.28H456.732V6.28H445.092V8.28ZM455.732 7.28V27.98H457.732V7.28H455.732ZM456.732 26.98H445.092V28.98H456.732V26.98ZM444.092 27.98V35H446.092V27.98H444.092ZM445.092 36H457.512V34H445.092V36ZM458.028 35.8568L464.808 31.7768L463.777 30.0632L456.997 34.1432L458.028 35.8568ZM465.292 30.92V4.64H463.292V30.92H465.292Z" fill="white"/>
</svg>
