<svg width="452" height="41" viewBox="0 0 452 41" fill="none" xmlns="http://www.w3.org/2000/svg">
<path d="M0.069336 0.749997H22.7493V8.66H9.16934V16.92H22.7493V25.11H9.16934V41H0.069336V0.749997ZM48.5793 20.35V5.58L40.3893 0.749997H25.8993V8.66H39.4793V16.92H25.8993V25.11H40.3893L48.5793 20.35ZM57.6963 0.749997H80.0963V9.01H66.5163V16.92H80.0963V25.11H66.5163V41H57.6963V0.749997ZM105.926 41V24.34L99.3463 20.91L105.926 17.76V5.58L97.6663 0.749997H83.2463V9.01H97.1063V16.92H83.2463V25.11H97.1063V41H105.926ZM112.829 5.58L121.019 0.749997H135.509V8.66H121.649V32.81H135.229V41H121.019L112.829 36.24V5.58ZM161.059 5.58L153.149 0.749997H138.659V8.66H152.239V32.81H138.659V41H153.149L161.059 36.24V5.58ZM173.634 0.749997H196.034V8.66H182.454V32.81H196.034V41H173.634V0.749997ZM221.864 5.58L213.954 0.749997H199.464V8.66H213.044V32.81H199.464V41H213.954L221.864 36.24V5.58ZM233.074 0.749997V36.24L241.054 41H255.474V32.81H241.894V0.749997H233.074ZM281.304 0.749997V36.24L273.394 41H258.904V32.81H272.484V0.749997H281.304ZM337.208 8.66H317.048V41H307.388V8.66H288.978V0.749997H337.208V8.66ZM344.089 5.58L352.279 0.749997H366.769V8.66H352.909V32.81H366.489V41H352.279L344.089 36.24V5.58ZM392.319 5.58L384.409 0.749997H369.919V8.66H383.499V32.81H369.919V41H384.409L392.319 36.24V5.58ZM402.794 5.58V20.35L410.774 25.11H425.194V16.92H411.334V9.01H425.194V0.749997H410.774L402.794 5.58ZM451.024 21.75V36.24L442.764 41H428.624V33.09H442.204V25.11H428.344V16.92H442.764L451.024 21.75ZM411.614 28.26H402.794V36.24L410.984 41H425.194V33.09H411.614V28.26ZM451.024 13.77H442.204V9.01H428.344V0.749997H442.764L451.024 5.58V13.77Z" fill="black"/>
<path d="M0.0693359 0.749996V-0.250004H-0.930664V0.749996H0.0693359ZM22.7493 0.749996H23.7493V-0.250004H22.7493V0.749996ZM22.7493 8.66V9.66H23.7493V8.66H22.7493ZM9.16934 8.66V7.66H8.16934V8.66H9.16934ZM9.16934 16.92H8.16934V17.92H9.16934V16.92ZM22.7493 16.92H23.7493V15.92H22.7493V16.92ZM22.7493 25.11V26.11H23.7493V25.11H22.7493ZM9.16934 25.11V24.11H8.16934V25.11H9.16934ZM9.16934 41V42H10.1693V41H9.16934ZM0.0693359 41H-0.930664V42H0.0693359V41ZM48.5793 20.35L49.0818 21.2146L49.5793 20.9254V20.35H48.5793ZM48.5793 5.58H49.5793V5.00879L49.0873 4.71863L48.5793 5.58ZM40.3893 0.749996L40.8973 -0.11137L40.6623 -0.250004H40.3893V0.749996ZM25.8993 0.749996V-0.250004H24.8993V0.749996H25.8993ZM25.8993 8.66H24.8993V9.66H25.8993V8.66ZM39.4793 8.66H40.4793V7.66H39.4793V8.66ZM39.4793 16.92V17.92H40.4793V16.92H39.4793ZM25.8993 16.92V15.92H24.8993V16.92H25.8993ZM25.8993 25.11H24.8993V26.11H25.8993V25.11ZM40.3893 25.11V26.11H40.6588L40.8918 25.9746L40.3893 25.11ZM0.0693359 1.75H22.7493V-0.250004H0.0693359V1.75ZM21.7493 0.749996V8.66H23.7493V0.749996H21.7493ZM22.7493 7.66H9.16934V9.66H22.7493V7.66ZM8.16934 8.66V16.92H10.1693V8.66H8.16934ZM9.16934 17.92H22.7493V15.92H9.16934V17.92ZM21.7493 16.92V25.11H23.7493V16.92H21.7493ZM22.7493 24.11H9.16934V26.11H22.7493V24.11ZM8.16934 25.11V41H10.1693V25.11H8.16934ZM9.16934 40H0.0693359V42H9.16934V40ZM1.06934 41V0.749996H-0.930664V41H1.06934ZM49.5793 20.35V5.58H47.5793V20.35H49.5793ZM49.0873 4.71863L40.8973 -0.11137L39.8814 1.61136L48.0714 6.44136L49.0873 4.71863ZM40.3893 -0.250004H25.8993V1.75H40.3893V-0.250004ZM24.8993 0.749996V8.66H26.8993V0.749996H24.8993ZM25.8993 9.66H39.4793V7.66H25.8993V9.66ZM38.4793 8.66V16.92H40.4793V8.66H38.4793ZM39.4793 15.92H25.8993V17.92H39.4793V15.92ZM24.8993 16.92V25.11H26.8993V16.92H24.8993ZM25.8993 26.11H40.3893V24.11H25.8993V26.11ZM40.8918 25.9746L49.0818 21.2146L48.0768 19.4854L39.8868 24.2454L40.8918 25.9746ZM57.6963 0.749996V-0.250004H56.6963V0.749996H57.6963ZM80.0963 0.749996H81.0963V-0.250004H80.0963V0.749996ZM80.0963 9.01V10.01H81.0963V9.01H80.0963ZM66.5163 9.01V8.01H65.5163V9.01H66.5163ZM66.5163 16.92H65.5163V17.92H66.5163V16.92ZM80.0963 16.92H81.0963V15.92H80.0963V16.92ZM80.0963 25.11V26.11H81.0963V25.11H80.0963ZM66.5163 25.11V24.11H65.5163V25.11H66.5163ZM66.5163 41V42H67.5163V41H66.5163ZM57.6963 41H56.6963V42H57.6963V41ZM105.926 41V42H106.926V41H105.926ZM105.926 24.34H106.926V23.7336L106.389 23.4532L105.926 24.34ZM99.3463 20.91L98.9145 20.008L97.1099 20.8719L98.884 21.7968L99.3463 20.91ZM105.926 17.76L106.358 18.662L106.926 18.39V17.76H105.926ZM105.926 5.58H106.926V5.00633L106.431 4.71675L105.926 5.58ZM97.6663 0.749996L98.1711 -0.113251L97.9372 -0.250004H97.6663V0.749996ZM83.2463 0.749996V-0.250004H82.2463V0.749996H83.2463ZM83.2463 9.01H82.2463V10.01H83.2463V9.01ZM97.1063 9.01H98.1063V8.01H97.1063V9.01ZM97.1063 16.92V17.92H98.1063V16.92H97.1063ZM83.2463 16.92V15.92H82.2463V16.92H83.2463ZM83.2463 25.11H82.2463V26.11H83.2463V25.11ZM97.1063 25.11H98.1063V24.11H97.1063V25.11ZM97.1063 41H96.1063V42H97.1063V41ZM57.6963 1.75H80.0963V-0.250004H57.6963V1.75ZM79.0963 0.749996V9.01H81.0963V0.749996H79.0963ZM80.0963 8.01H66.5163V10.01H80.0963V8.01ZM65.5163 9.01V16.92H67.5163V9.01H65.5163ZM66.5163 17.92H80.0963V15.92H66.5163V17.92ZM79.0963 16.92V25.11H81.0963V16.92H79.0963ZM80.0963 24.11H66.5163V26.11H80.0963V24.11ZM65.5163 25.11V41H67.5163V25.11H65.5163ZM66.5163 40H57.6963V42H66.5163V40ZM58.6963 41V0.749996H56.6963V41H58.6963ZM106.926 41V24.34H104.926V41H106.926ZM106.389 23.4532L99.8085 20.0232L98.884 21.7968L105.464 25.2268L106.389 23.4532ZM99.7781 21.812L106.358 18.662L105.494 16.858L98.9145 20.008L99.7781 21.812ZM106.926 17.76V5.58H104.926V17.76H106.926ZM106.431 4.71675L98.1711 -0.113251L97.1615 1.61325L105.422 6.44324L106.431 4.71675ZM97.6663 -0.250004H83.2463V1.75H97.6663V-0.250004ZM82.2463 0.749996V9.01H84.2463V0.749996H82.2463ZM83.2463 10.01H97.1063V8.01H83.2463V10.01ZM96.1063 9.01V16.92H98.1063V9.01H96.1063ZM97.1063 15.92H83.2463V17.92H97.1063V15.92ZM82.2463 16.92V25.11H84.2463V16.92H82.2463ZM83.2463 26.11H97.1063V24.11H83.2463V26.11ZM96.1063 25.11V41H98.1063V25.11H96.1063ZM97.1063 42H105.926V40H97.1063V42ZM112.829 5.58L112.322 4.71863L111.829 5.00879V5.58H112.829ZM121.019 0.749996V-0.250004H120.747L120.512 -0.11137L121.019 0.749996ZM135.509 0.749996H136.509V-0.250004H135.509V0.749996ZM135.509 8.66V9.66H136.509V8.66H135.509ZM121.649 8.66V7.66H120.649V8.66H121.649ZM121.649 32.81H120.649V33.81H121.649V32.81ZM135.229 32.81H136.229V31.81H135.229V32.81ZM135.229 41V42H136.229V41H135.229ZM121.019 41L120.517 41.8646L120.75 42H121.019V41ZM112.829 36.24H111.829V36.8154L112.327 37.1046L112.829 36.24ZM161.059 5.58H162.059V5.01893L161.581 4.72653L161.059 5.58ZM153.149 0.749996L153.671 -0.103472L153.431 -0.250004H153.149V0.749996ZM138.66 0.749996V-0.250004H137.66V0.749996H138.66ZM138.66 8.66H137.66V9.66H138.66V8.66ZM152.239 8.66H153.239V7.66H152.239V8.66ZM152.239 32.81V33.81H153.239V32.81H152.239ZM138.66 32.81V31.81H137.66V32.81H138.66ZM138.66 41H137.66V42H138.66V41ZM153.149 41V42H153.427L153.665 41.8568L153.149 41ZM161.059 36.24L161.575 37.0968L162.059 36.8053V36.24H161.059ZM113.337 6.44136L121.527 1.61136L120.512 -0.11137L112.322 4.71863L113.337 6.44136ZM121.019 1.75H135.509V-0.250004H121.019V1.75ZM134.509 0.749996V8.66H136.509V0.749996H134.509ZM135.509 7.66H121.649V9.66H135.509V7.66ZM120.649 8.66V32.81H122.649V8.66H120.649ZM121.649 33.81H135.229V31.81H121.649V33.81ZM134.229 32.81V41H136.229V32.81H134.229ZM135.229 40H121.019V42H135.229V40ZM121.522 40.1354L113.332 35.3754L112.327 37.1046L120.517 41.8646L121.522 40.1354ZM113.829 36.24V5.58H111.829V36.24H113.829ZM161.581 4.72653L153.671 -0.103472L152.628 1.60347L160.538 6.43347L161.581 4.72653ZM153.149 -0.250004H138.66V1.75H153.149V-0.250004ZM137.66 0.749996V8.66H139.66V0.749996H137.66ZM138.66 9.66H152.239V7.66H138.66V9.66ZM151.239 8.66V32.81H153.239V8.66H151.239ZM152.239 31.81H138.66V33.81H152.239V31.81ZM137.66 32.81V41H139.66V32.81H137.66ZM138.66 42H153.149V40H138.66V42ZM153.665 41.8568L161.575 37.0968L160.544 35.3832L152.634 40.1432L153.665 41.8568ZM162.059 36.24V5.58H160.059V36.24H162.059ZM173.634 0.749996V-0.250004H172.634V0.749996H173.634ZM196.034 0.749996H197.034V-0.250004H196.034V0.749996ZM196.034 8.66V9.66H197.034V8.66H196.034ZM182.454 8.66V7.66H181.454V8.66H182.454ZM182.454 32.81H181.454V33.81H182.454V32.81ZM196.034 32.81H197.034V31.81H196.034V32.81ZM196.034 41V42H197.034V41H196.034ZM173.634 41H172.634V42H173.634V41ZM221.864 5.58H222.864V5.01893L222.385 4.72653L221.864 5.58ZM213.954 0.749996L214.475 -0.103472L214.235 -0.250004H213.954V0.749996ZM199.464 0.749996V-0.250004H198.464V0.749996H199.464ZM199.464 8.66H198.464V9.66H199.464V8.66ZM213.044 8.66H214.044V7.66H213.044V8.66ZM213.044 32.81V33.81H214.044V32.81H213.044ZM199.464 32.81V31.81H198.464V32.81H199.464ZM199.464 41H198.464V42H199.464V41ZM213.954 41V42H214.231L214.469 41.8568L213.954 41ZM221.864 36.24L222.379 37.0968L222.864 36.8053V36.24H221.864ZM173.634 1.75H196.034V-0.250004H173.634V1.75ZM195.034 0.749996V8.66H197.034V0.749996H195.034ZM196.034 7.66H182.454V9.66H196.034V7.66ZM181.454 8.66V32.81H183.454V8.66H181.454ZM182.454 33.81H196.034V31.81H182.454V33.81ZM195.034 32.81V41H197.034V32.81H195.034ZM196.034 40H173.634V42H196.034V40ZM174.634 41V0.749996H172.634V41H174.634ZM222.385 4.72653L214.475 -0.103472L213.433 1.60346L221.343 6.43347L222.385 4.72653ZM213.954 -0.250004H199.464V1.75H213.954V-0.250004ZM198.464 0.749996V8.66H200.464V0.749996H198.464ZM199.464 9.66H213.044V7.66H199.464V9.66ZM212.044 8.66V32.81H214.044V8.66H212.044ZM213.044 31.81H199.464V33.81H213.044V31.81ZM198.464 32.81V41H200.464V32.81H198.464ZM199.464 42H213.954V40H199.464V42ZM214.469 41.8568L222.379 37.0968L221.348 35.3832L213.438 40.1432L214.469 41.8568ZM222.864 36.24V5.58H220.864V36.24H222.864ZM233.074 0.749996V-0.250004H232.074V0.749996H233.074ZM233.074 36.24H232.074V36.8079L232.561 37.0988L233.074 36.24ZM241.054 41L240.541 41.8588L240.778 42H241.054V41ZM255.474 41V42H256.474V41H255.474ZM255.474 32.81H256.474V31.81H255.474V32.81ZM241.894 32.81H240.894V33.81H241.894V32.81ZM241.894 0.749996H242.894V-0.250004H241.894V0.749996ZM281.304 0.749996H282.304V-0.250004H281.304V0.749996ZM281.304 36.24L281.819 37.0968L282.304 36.8053V36.24H281.304ZM273.394 41V42H273.671L273.909 41.8568L273.394 41ZM258.904 41H257.904V42H258.904V41ZM258.904 32.81V31.81H257.904V32.81H258.904ZM272.484 32.81V33.81H273.484V32.81H272.484ZM272.484 0.749996V-0.250004H271.484V0.749996H272.484ZM232.074 0.749996V36.24H234.074V0.749996H232.074ZM232.561 37.0988L240.541 41.8588L241.566 40.1412L233.586 35.3812L232.561 37.0988ZM241.054 42H255.474V40H241.054V42ZM256.474 41V32.81H254.474V41H256.474ZM255.474 31.81H241.894V33.81H255.474V31.81ZM242.894 32.81V0.749996H240.894V32.81H242.894ZM241.894 -0.250004H233.074V1.75H241.894V-0.250004ZM280.304 0.749996V36.24H282.304V0.749996H280.304ZM280.788 35.3832L272.878 40.1432L273.909 41.8568L281.819 37.0968L280.788 35.3832ZM273.394 40H258.904V42H273.394V40ZM259.904 41V32.81H257.904V41H259.904ZM258.904 33.81H272.484V31.81H258.904V33.81ZM273.484 32.81V0.749996H271.484V32.81H273.484ZM272.484 1.75H281.304V-0.250004H272.484V1.75ZM337.208 8.66V9.66H338.208V8.66H337.208ZM317.048 8.66V7.66H316.048V8.66H317.048ZM317.048 41V42H318.048V41H317.048ZM307.388 41H306.388V42H307.388V41ZM307.388 8.66H308.388V7.66H307.388V8.66ZM288.978 8.66H287.978V9.66H288.978V8.66ZM288.978 0.749996V-0.250004H287.978V0.749996H288.978ZM337.208 0.749996H338.208V-0.250004H337.208V0.749996ZM337.208 7.66H317.048V9.66H337.208V7.66ZM316.048 8.66V41H318.048V8.66H316.048ZM317.048 40H307.388V42H317.048V40ZM308.388 41V8.66H306.388V41H308.388ZM307.388 7.66H288.978V9.66H307.388V7.66ZM289.978 8.66V0.749996H287.978V8.66H289.978ZM288.978 1.75H337.208V-0.250004H288.978V1.75ZM336.208 0.749996V8.66H338.208V0.749996H336.208ZM344.089 5.58L343.581 4.71863L343.089 5.00879V5.58H344.089ZM352.279 0.749996V-0.250004H352.006L351.771 -0.11137L352.279 0.749996ZM366.769 0.749996H367.769V-0.250004H366.769V0.749996ZM366.769 8.66V9.66H367.769V8.66H366.769ZM352.909 8.66V7.66H351.909V8.66H352.909ZM352.909 32.81H351.909V33.81H352.909V32.81ZM366.489 32.81H367.489V31.81H366.489V32.81ZM366.489 41V42H367.489V41H366.489ZM352.279 41L351.777 41.8646L352.01 42H352.279V41ZM344.089 36.24H343.089V36.8154L343.587 37.1046L344.089 36.24ZM392.319 5.58H393.319V5.01893L392.84 4.72653L392.319 5.58ZM384.409 0.749996L384.93 -0.103472L384.69 -0.250004H384.409V0.749996ZM369.919 0.749996V-0.250004H368.919V0.749996H369.919ZM369.919 8.66H368.919V9.66H369.919V8.66ZM383.499 8.66H384.499V7.66H383.499V8.66ZM383.499 32.81V33.81H384.499V32.81H383.499ZM369.919 32.81V31.81H368.919V32.81H369.919ZM369.919 41H368.919V42H369.919V41ZM384.409 41V42H384.687L384.925 41.8568L384.409 41ZM392.319 36.24L392.835 37.0968L393.319 36.8053V36.24H392.319ZM344.597 6.44136L352.787 1.61136L351.771 -0.11137L343.581 4.71863L344.597 6.44136ZM352.279 1.75H366.769V-0.250004H352.279V1.75ZM365.769 0.749996V8.66H367.769V0.749996H365.769ZM366.769 7.66H352.909V9.66H366.769V7.66ZM351.909 8.66V32.81H353.909V8.66H351.909ZM352.909 33.81H366.489V31.81H352.909V33.81ZM365.489 32.81V41H367.489V32.81H365.489ZM366.489 40H352.279V42H366.489V40ZM352.782 40.1354L344.592 35.3754L343.587 37.1046L351.777 41.8646L352.782 40.1354ZM345.089 36.24V5.58H343.089V36.24H345.089ZM392.84 4.72653L384.93 -0.103472L383.888 1.60347L391.798 6.43347L392.84 4.72653ZM384.409 -0.250004H369.919V1.75H384.409V-0.250004ZM368.919 0.749996V8.66H370.919V0.749996H368.919ZM369.919 9.66H383.499V7.66H369.919V9.66ZM382.499 8.66V32.81H384.499V8.66H382.499ZM383.499 31.81H369.919V33.81H383.499V31.81ZM368.919 32.81V41H370.919V32.81H368.919ZM369.919 42H384.409V40H369.919V42ZM384.925 41.8568L392.835 37.0968L391.804 35.3832L383.894 40.1432L384.925 41.8568ZM393.319 36.24V5.58H391.319V36.24H393.319ZM402.794 5.58L402.276 4.7245L401.794 5.01635V5.58H402.794ZM402.794 20.35H401.794V20.9179L402.281 21.2088L402.794 20.35ZM410.774 25.11L410.261 25.9688L410.498 26.11H410.774V25.11ZM425.194 25.11V26.11H426.194V25.11H425.194ZM425.194 16.92H426.194V15.92H425.194V16.92ZM411.334 16.92H410.334V17.92H411.334V16.92ZM411.334 9.01V8.01H410.334V9.01H411.334ZM425.194 9.01V10.01H426.194V9.01H425.194ZM425.194 0.749996H426.194V-0.250004H425.194V0.749996ZM410.774 0.749996V-0.250004H410.495L410.256 -0.105503L410.774 0.749996ZM451.024 21.75H452.024V21.1763L451.528 20.8868L451.024 21.75ZM451.024 36.24L451.523 37.1064L452.024 36.8179V36.24H451.024ZM442.764 41V42H443.031L443.263 41.8664L442.764 41ZM428.624 41H427.624V42H428.624V41ZM428.624 33.09V32.09H427.624V33.09H428.624ZM442.204 33.09V34.09H443.204V33.09H442.204ZM442.204 25.11H443.204V24.11H442.204V25.11ZM428.344 25.11H427.344V26.11H428.344V25.11ZM428.344 16.92V15.92H427.344V16.92H428.344ZM442.764 16.92L443.268 16.0568L443.034 15.92H442.764V16.92ZM411.614 28.26H412.614V27.26H411.614V28.26ZM402.794 28.26V27.26H401.794V28.26H402.794ZM402.794 36.24H401.794V36.8154L402.291 37.1046L402.794 36.24ZM410.984 41L410.481 41.8646L410.714 42H410.984V41ZM425.194 41V42H426.194V41H425.194ZM425.194 33.09H426.194V32.09H425.194V33.09ZM411.614 33.09H410.614V34.09H411.614V33.09ZM451.024 13.77V14.77H452.024V13.77H451.024ZM442.204 13.77H441.204V14.77H442.204V13.77ZM442.204 9.01H443.204V8.01H442.204V9.01ZM428.344 9.01H427.344V10.01H428.344V9.01ZM428.344 0.749996V-0.250004H427.344V0.749996H428.344ZM442.764 0.749996L443.268 -0.113251L443.034 -0.250004H442.764V0.749996ZM451.024 5.58H452.024V5.00633L451.528 4.71675L451.024 5.58ZM401.794 5.58V20.35H403.794V5.58H401.794ZM402.281 21.2088L410.261 25.9688L411.286 24.2512L403.306 19.4912L402.281 21.2088ZM410.774 26.11H425.194V24.11H410.774V26.11ZM426.194 25.11V16.92H424.194V25.11H426.194ZM425.194 15.92H411.334V17.92H425.194V15.92ZM412.334 16.92V9.01H410.334V16.92H412.334ZM411.334 10.01H425.194V8.01H411.334V10.01ZM426.194 9.01V0.749996H424.194V9.01H426.194ZM425.194 -0.250004H410.774V1.75H425.194V-0.250004ZM410.256 -0.105503L402.276 4.7245L403.311 6.4355L411.291 1.6055L410.256 -0.105503ZM450.024 21.75V36.24H452.024V21.75H450.024ZM450.524 35.3736L442.264 40.1336L443.263 41.8664L451.523 37.1064L450.524 35.3736ZM442.764 40H428.624V42H442.764V40ZM429.624 41V33.09H427.624V41H429.624ZM428.624 34.09H442.204V32.09H428.624V34.09ZM443.204 33.09V25.11H441.204V33.09H443.204ZM442.204 24.11H428.344V26.11H442.204V24.11ZM429.344 25.11V16.92H427.344V25.11H429.344ZM428.344 17.92H442.764V15.92H428.344V17.92ZM442.259 17.7832L450.519 22.6132L451.528 20.8868L443.268 16.0568L442.259 17.7832ZM411.614 27.26H402.794V29.26H411.614V27.26ZM401.794 28.26V36.24H403.794V28.26H401.794ZM402.291 37.1046L410.481 41.8646L411.486 40.1354L403.296 35.3754L402.291 37.1046ZM410.984 42H425.194V40H410.984V42ZM426.194 41V33.09H424.194V41H426.194ZM425.194 32.09H411.614V34.09H425.194V32.09ZM412.614 33.09V28.26H410.614V33.09H412.614ZM451.024 12.77H442.204V14.77H451.024V12.77ZM443.204 13.77V9.01H441.204V13.77H443.204ZM442.204 8.01H428.344V10.01H442.204V8.01ZM429.344 9.01V0.749996H427.344V9.01H429.344ZM428.344 1.75H442.764V-0.250004H428.344V1.75ZM442.259 1.61325L450.519 6.44324L451.528 4.71675L443.268 -0.113251L442.259 1.61325ZM450.024 5.58V13.77H452.024V5.58H450.024Z" fill="white"/>
</svg>
