<svg width="483" height="35" viewBox="0 0 483 35" fill="none" xmlns="http://www.w3.org/2000/svg">
<path d="M0.440625 4.64V35H8.00063V21.2H19.6406V14.36H8.00063V7.28H19.6406V0.499997H7.28063L0.440625 4.64ZM41.7806 4.64V35H34.2206V21.2H22.3406V14.36H34.2206V7.28H22.3406V0.499997H34.7006L41.7806 4.64ZM70.5469 0.499997H89.7469V7.28H78.1069V14.36H89.7469V21.2H78.1069V27.98H89.7469V35H70.5469V0.499997ZM111.887 30.92V20.42L106.247 17.78L111.887 15.08V4.64L105.107 0.499997H92.6869V7.28H104.327V14.36H92.6869V21.2H104.327V27.98H92.6869V35H105.107L111.887 30.92ZM117.804 4.64V35H125.364V21.2H137.004V14.36H125.364V7.28H137.004V0.499997H124.644L117.804 4.64ZM159.144 4.64V35H151.584V21.2H139.704V14.36H151.584V7.28H139.704V0.499997H152.064L159.144 4.64ZM169.922 0.499997H189.122V7.58H177.482V14.36H189.122V21.38H177.482V35H169.922V0.499997ZM211.262 35V20.72L205.622 17.78L211.262 15.08V4.64L204.182 0.499997H191.822V7.58H203.702V14.36H191.822V21.38H203.702V35H211.262ZM221.484 0.499997H240.684V7.28H229.044V14.36H240.684V21.2H229.044V27.98H240.684V35H221.484V0.499997ZM262.824 30.92V20.42L257.184 17.78L262.824 15.08V4.64L256.044 0.499997H243.624V7.28H255.264V14.36H243.624V21.2H255.264V27.98H243.624V35H256.044L262.824 30.92ZM273.633 0.499997H292.833V7.58H281.193V14.36H292.833V21.2H281.193V28.22H292.593V35H273.633V0.499997ZM295.773 28.22V35H314.973V28.22H295.773ZM314.973 7.58V0.499997H295.533V7.58H314.973ZM305.253 21.2V14.36H295.533V21.2H305.253ZM321.593 4.64V35H329.153V21.2H340.793V14.36H329.153V7.28H340.793V0.499997H328.433L321.593 4.64ZM362.933 4.64V35H355.373V21.2H343.493V14.36H355.373V7.28H343.493V0.499997H355.853L362.933 4.64ZM373.711 0.499997H392.911V7.58H381.271V14.36H392.911V21.38H381.271V35H373.711V0.499997ZM415.051 35V20.72L409.411 17.78L415.051 15.08V4.64L407.971 0.499997H395.611V7.58H407.491V14.36H395.611V21.38H407.491V35H415.051ZM424.073 0.499997H431.633V35H424.073V0.499997ZM441.241 4.64V35H448.801V21.2H460.441V14.36H448.801V7.28H460.441V0.499997H448.081L441.241 4.64ZM482.581 4.64V35H475.021V21.2H463.141V14.36H475.021V7.28H463.141V0.499997H475.501L482.581 4.64Z" fill="black"/>
<path d="M0.440625 4.64L-0.0771775 3.7845L-0.559375 4.07635V4.64H0.440625ZM0.440625 35H-0.559375V36H0.440625V35ZM8.00063 35V36H9.00063V35H8.00063ZM8.00063 21.2V20.2H7.00063V21.2H8.00063ZM19.6406 21.2V22.2H20.6406V21.2H19.6406ZM19.6406 14.36H20.6406V13.36H19.6406V14.36ZM8.00063 14.36H7.00063V15.36H8.00063V14.36ZM8.00063 7.28V6.28H7.00063V7.28H8.00063ZM19.6406 7.28V8.28H20.6406V7.28H19.6406ZM19.6406 0.499996H20.6406V-0.500004H19.6406V0.499996ZM7.28063 0.499996V-0.500004H7.00156L6.76282 -0.355503L7.28063 0.499996ZM41.7806 4.64H42.7806V4.06633L42.2854 3.77675L41.7806 4.64ZM41.7806 35V36H42.7806V35H41.7806ZM34.2206 35H33.2206V36H34.2206V35ZM34.2206 21.2H35.2206V20.2H34.2206V21.2ZM22.3406 21.2H21.3406V22.2H22.3406V21.2ZM22.3406 14.36V13.36H21.3406V14.36H22.3406ZM34.2206 14.36V15.36H35.2206V14.36H34.2206ZM34.2206 7.28H35.2206V6.28H34.2206V7.28ZM22.3406 7.28H21.3406V8.28H22.3406V7.28ZM22.3406 0.499996V-0.500004H21.3406V0.499996H22.3406ZM34.7006 0.499996L35.2054 -0.363251L34.9715 -0.500004H34.7006V0.499996ZM-0.559375 4.64V35H1.44063V4.64H-0.559375ZM0.440625 36H8.00063V34H0.440625V36ZM9.00063 35V21.2H7.00063V35H9.00063ZM8.00063 22.2H19.6406V20.2H8.00063V22.2ZM20.6406 21.2V14.36H18.6406V21.2H20.6406ZM19.6406 13.36H8.00063V15.36H19.6406V13.36ZM9.00063 14.36V7.28H7.00063V14.36H9.00063ZM8.00063 8.28H19.6406V6.28H8.00063V8.28ZM20.6406 7.28V0.499996H18.6406V7.28H20.6406ZM19.6406 -0.500004H7.28063V1.5H19.6406V-0.500004ZM6.76282 -0.355503L-0.0771775 3.7845L0.958428 5.4955L7.79843 1.3555L6.76282 -0.355503ZM40.7806 4.64V35H42.7806V4.64H40.7806ZM41.7806 34H34.2206V36H41.7806V34ZM35.2206 35V21.2H33.2206V35H35.2206ZM34.2206 20.2H22.3406V22.2H34.2206V20.2ZM23.3406 21.2V14.36H21.3406V21.2H23.3406ZM22.3406 15.36H34.2206V13.36H22.3406V15.36ZM35.2206 14.36V7.28H33.2206V14.36H35.2206ZM34.2206 6.28H22.3406V8.28H34.2206V6.28ZM23.3406 7.28V0.499996H21.3406V7.28H23.3406ZM22.3406 1.5H34.7006V-0.500004H22.3406V1.5ZM34.1958 1.36325L41.2758 5.50324L42.2854 3.77675L35.2054 -0.363251L34.1958 1.36325ZM70.5469 0.499996V-0.500004H69.5469V0.499996H70.5469ZM89.7469 0.499996H90.7469V-0.500004H89.7469V0.499996ZM89.7469 7.28V8.28H90.7469V7.28H89.7469ZM78.1069 7.28V6.28H77.1069V7.28H78.1069ZM78.1069 14.36H77.1069V15.36H78.1069V14.36ZM89.7469 14.36H90.7469V13.36H89.7469V14.36ZM89.7469 21.2V22.2H90.7469V21.2H89.7469ZM78.1069 21.2V20.2H77.1069V21.2H78.1069ZM78.1069 27.98H77.1069V28.98H78.1069V27.98ZM89.7469 27.98H90.7469V26.98H89.7469V27.98ZM89.7469 35V36H90.7469V35H89.7469ZM70.5469 35H69.5469V36H70.5469V35ZM111.887 30.92L112.402 31.7768L112.887 31.4853V30.92H111.887ZM111.887 20.42H112.887V19.784L112.311 19.5143L111.887 20.42ZM106.247 17.78L105.815 16.878L103.91 17.7902L105.823 18.6857L106.247 17.78ZM111.887 15.08L112.319 15.982L112.887 15.71V15.08H111.887ZM111.887 4.64H112.887V4.07893L112.408 3.78653L111.887 4.64ZM105.107 0.499996L105.628 -0.353472L105.388 -0.500004H105.107V0.499996ZM92.6869 0.499996V-0.500004H91.6869V0.499996H92.6869ZM92.6869 7.28H91.6869V8.28H92.6869V7.28ZM104.327 7.28H105.327V6.28H104.327V7.28ZM104.327 14.36V15.36H105.327V14.36H104.327ZM92.6869 14.36V13.36H91.6869V14.36H92.6869ZM92.6869 21.2H91.6869V22.2H92.6869V21.2ZM104.327 21.2H105.327V20.2H104.327V21.2ZM104.327 27.98V28.98H105.327V27.98H104.327ZM92.6869 27.98V26.98H91.6869V27.98H92.6869ZM92.6869 35H91.6869V36H92.6869V35ZM105.107 35V36H105.385L105.622 35.8568L105.107 35ZM70.5469 1.5H89.7469V-0.500004H70.5469V1.5ZM88.7469 0.499996V7.28H90.7469V0.499996H88.7469ZM89.7469 6.28H78.1069V8.28H89.7469V6.28ZM77.1069 7.28V14.36H79.1069V7.28H77.1069ZM78.1069 15.36H89.7469V13.36H78.1069V15.36ZM88.7469 14.36V21.2H90.7469V14.36H88.7469ZM89.7469 20.2H78.1069V22.2H89.7469V20.2ZM77.1069 21.2V27.98H79.1069V21.2H77.1069ZM78.1069 28.98H89.7469V26.98H78.1069V28.98ZM88.7469 27.98V35H90.7469V27.98H88.7469ZM89.7469 34H70.5469V36H89.7469V34ZM71.5469 35V0.499996H69.5469V35H71.5469ZM112.887 30.92V20.42H110.887V30.92H112.887ZM112.311 19.5143L106.671 16.8743L105.823 18.6857L111.463 21.3257L112.311 19.5143ZM106.679 18.682L112.319 15.982L111.455 14.178L105.815 16.878L106.679 18.682ZM112.887 15.08V4.64H110.887V15.08H112.887ZM112.408 3.78653L105.628 -0.353472L104.586 1.35347L111.366 5.49347L112.408 3.78653ZM105.107 -0.500004H92.6869V1.5H105.107V-0.500004ZM91.6869 0.499996V7.28H93.6869V0.499996H91.6869ZM92.6869 8.28H104.327V6.28H92.6869V8.28ZM103.327 7.28V14.36H105.327V7.28H103.327ZM104.327 13.36H92.6869V15.36H104.327V13.36ZM91.6869 14.36V21.2H93.6869V14.36H91.6869ZM92.6869 22.2H104.327V20.2H92.6869V22.2ZM103.327 21.2V27.98H105.327V21.2H103.327ZM104.327 26.98H92.6869V28.98H104.327V26.98ZM91.6869 27.98V35H93.6869V27.98H91.6869ZM92.6869 36H105.107V34H92.6869V36ZM105.622 35.8568L112.402 31.7768L111.371 30.0632L104.591 34.1432L105.622 35.8568ZM117.804 4.64L117.286 3.7845L116.804 4.07635V4.64H117.804ZM117.804 35H116.804V36H117.804V35ZM125.364 35V36H126.364V35H125.364ZM125.364 21.2V20.2H124.364V21.2H125.364ZM137.004 21.2V22.2H138.004V21.2H137.004ZM137.004 14.36H138.004V13.36H137.004V14.36ZM125.364 14.36H124.364V15.36H125.364V14.36ZM125.364 7.28V6.28H124.364V7.28H125.364ZM137.004 7.28V8.28H138.004V7.28H137.004ZM137.004 0.499996H138.004V-0.500004H137.004V0.499996ZM124.644 0.499996V-0.500004H124.365L124.126 -0.355503L124.644 0.499996ZM159.144 4.64H160.144V4.06633L159.649 3.77675L159.144 4.64ZM159.144 35V36H160.144V35H159.144ZM151.584 35H150.584V36H151.584V35ZM151.584 21.2H152.584V20.2H151.584V21.2ZM139.704 21.2H138.704V22.2H139.704V21.2ZM139.704 14.36V13.36H138.704V14.36H139.704ZM151.584 14.36V15.36H152.584V14.36H151.584ZM151.584 7.28H152.584V6.28H151.584V7.28ZM139.704 7.28H138.704V8.28H139.704V7.28ZM139.704 0.499996V-0.500004H138.704V0.499996H139.704ZM152.064 0.499996L152.569 -0.363251L152.335 -0.500004H152.064V0.499996ZM116.804 4.64V35H118.804V4.64H116.804ZM117.804 36H125.364V34H117.804V36ZM126.364 35V21.2H124.364V35H126.364ZM125.364 22.2H137.004V20.2H125.364V22.2ZM138.004 21.2V14.36H136.004V21.2H138.004ZM137.004 13.36H125.364V15.36H137.004V13.36ZM126.364 14.36V7.28H124.364V14.36H126.364ZM125.364 8.28H137.004V6.28H125.364V8.28ZM138.004 7.28V0.499996H136.004V7.28H138.004ZM137.004 -0.500004H124.644V1.5H137.004V-0.500004ZM124.126 -0.355503L117.286 3.7845L118.322 5.4955L125.162 1.3555L124.126 -0.355503ZM158.144 4.64V35H160.144V4.64H158.144ZM159.144 34H151.584V36H159.144V34ZM152.584 35V21.2H150.584V35H152.584ZM151.584 20.2H139.704V22.2H151.584V20.2ZM140.704 21.2V14.36H138.704V21.2H140.704ZM139.704 15.36H151.584V13.36H139.704V15.36ZM152.584 14.36V7.28H150.584V14.36H152.584ZM151.584 6.28H139.704V8.28H151.584V6.28ZM140.704 7.28V0.499996H138.704V7.28H140.704ZM139.704 1.5H152.064V-0.500004H139.704V1.5ZM151.559 1.36325L158.639 5.50324L159.649 3.77675L152.569 -0.363251L151.559 1.36325ZM169.922 0.499996V-0.500004H168.922V0.499996H169.922ZM189.122 0.499996H190.122V-0.500004H189.122V0.499996ZM189.122 7.58V8.58H190.122V7.58H189.122ZM177.482 7.58V6.58H176.482V7.58H177.482ZM177.482 14.36H176.482V15.36H177.482V14.36ZM189.122 14.36H190.122V13.36H189.122V14.36ZM189.122 21.38V22.38H190.122V21.38H189.122ZM177.482 21.38V20.38H176.482V21.38H177.482ZM177.482 35V36H178.482V35H177.482ZM169.922 35H168.922V36H169.922V35ZM211.262 35V36H212.262V35H211.262ZM211.262 20.72H212.262V20.1136L211.724 19.8332L211.262 20.72ZM205.622 17.78L205.19 16.878L203.385 17.7419L205.16 18.6668L205.622 17.78ZM211.262 15.08L211.694 15.982L212.262 15.71V15.08H211.262ZM211.262 4.64H212.262V4.06633L211.767 3.77675L211.262 4.64ZM204.182 0.499996L204.687 -0.363251L204.453 -0.500004H204.182V0.499996ZM191.822 0.499996V-0.500004H190.822V0.499996H191.822ZM191.822 7.58H190.822V8.58H191.822V7.58ZM203.702 7.58H204.702V6.58H203.702V7.58ZM203.702 14.36V15.36H204.702V14.36H203.702ZM191.822 14.36V13.36H190.822V14.36H191.822ZM191.822 21.38H190.822V22.38H191.822V21.38ZM203.702 21.38H204.702V20.38H203.702V21.38ZM203.702 35H202.702V36H203.702V35ZM169.922 1.5H189.122V-0.500004H169.922V1.5ZM188.122 0.499996V7.58H190.122V0.499996H188.122ZM189.122 6.58H177.482V8.58H189.122V6.58ZM176.482 7.58V14.36H178.482V7.58H176.482ZM177.482 15.36H189.122V13.36H177.482V15.36ZM188.122 14.36V21.38H190.122V14.36H188.122ZM189.122 20.38H177.482V22.38H189.122V20.38ZM176.482 21.38V35H178.482V21.38H176.482ZM177.482 34H169.922V36H177.482V34ZM170.922 35V0.499996H168.922V35H170.922ZM212.262 35V20.72H210.262V35H212.262ZM211.724 19.8332L206.084 16.8932L205.16 18.6668L210.8 21.6068L211.724 19.8332ZM206.054 18.682L211.694 15.982L210.83 14.178L205.19 16.878L206.054 18.682ZM212.262 15.08V4.64H210.262V15.08H212.262ZM211.767 3.77675L204.687 -0.363251L203.677 1.36325L210.757 5.50324L211.767 3.77675ZM204.182 -0.500004H191.822V1.5H204.182V-0.500004ZM190.822 0.499996V7.58H192.822V0.499996H190.822ZM191.822 8.58H203.702V6.58H191.822V8.58ZM202.702 7.58V14.36H204.702V7.58H202.702ZM203.702 13.36H191.822V15.36H203.702V13.36ZM190.822 14.36V21.38H192.822V14.36H190.822ZM191.822 22.38H203.702V20.38H191.822V22.38ZM202.702 21.38V35H204.702V21.38H202.702ZM203.702 36H211.262V34H203.702V36ZM221.484 0.499996V-0.500004H220.484V0.499996H221.484ZM240.684 0.499996H241.684V-0.500004H240.684V0.499996ZM240.684 7.28V8.28H241.684V7.28H240.684ZM229.044 7.28V6.28H228.044V7.28H229.044ZM229.044 14.36H228.044V15.36H229.044V14.36ZM240.684 14.36H241.684V13.36H240.684V14.36ZM240.684 21.2V22.2H241.684V21.2H240.684ZM229.044 21.2V20.2H228.044V21.2H229.044ZM229.044 27.98H228.044V28.98H229.044V27.98ZM240.684 27.98H241.684V26.98H240.684V27.98ZM240.684 35V36H241.684V35H240.684ZM221.484 35H220.484V36H221.484V35ZM262.824 30.92L263.34 31.7768L263.824 31.4853V30.92H262.824ZM262.824 20.42H263.824V19.784L263.248 19.5143L262.824 20.42ZM257.184 17.78L256.753 16.878L254.847 17.7902L256.76 18.6857L257.184 17.78ZM262.824 15.08L263.256 15.982L263.824 15.71V15.08H262.824ZM262.824 4.64H263.824V4.07893L263.346 3.78653L262.824 4.64ZM256.044 0.499996L256.566 -0.353472L256.326 -0.500004H256.044V0.499996ZM243.624 0.499996V-0.500004H242.624V0.499996H243.624ZM243.624 7.28H242.624V8.28H243.624V7.28ZM255.264 7.28H256.264V6.28H255.264V7.28ZM255.264 14.36V15.36H256.264V14.36H255.264ZM243.624 14.36V13.36H242.624V14.36H243.624ZM243.624 21.2H242.624V22.2H243.624V21.2ZM255.264 21.2H256.264V20.2H255.264V21.2ZM255.264 27.98V28.98H256.264V27.98H255.264ZM243.624 27.98V26.98H242.624V27.98H243.624ZM243.624 35H242.624V36H243.624V35ZM256.044 35V36H256.322L256.56 35.8568L256.044 35ZM221.484 1.5H240.684V-0.500004H221.484V1.5ZM239.684 0.499996V7.28H241.684V0.499996H239.684ZM240.684 6.28H229.044V8.28H240.684V6.28ZM228.044 7.28V14.36H230.044V7.28H228.044ZM229.044 15.36H240.684V13.36H229.044V15.36ZM239.684 14.36V21.2H241.684V14.36H239.684ZM240.684 20.2H229.044V22.2H240.684V20.2ZM228.044 21.2V27.98H230.044V21.2H228.044ZM229.044 28.98H240.684V26.98H229.044V28.98ZM239.684 27.98V35H241.684V27.98H239.684ZM240.684 34H221.484V36H240.684V34ZM222.484 35V0.499996H220.484V35H222.484ZM263.824 30.92V20.42H261.824V30.92H263.824ZM263.248 19.5143L257.608 16.8743L256.76 18.6857L262.4 21.3257L263.248 19.5143ZM257.616 18.682L263.256 15.982L262.393 14.178L256.753 16.878L257.616 18.682ZM263.824 15.08V4.64H261.824V15.08H263.824ZM263.346 3.78653L256.566 -0.353472L255.523 1.35347L262.303 5.49347L263.346 3.78653ZM256.044 -0.500004H243.624V1.5H256.044V-0.500004ZM242.624 0.499996V7.28H244.624V0.499996H242.624ZM243.624 8.28H255.264V6.28H243.624V8.28ZM254.264 7.28V14.36H256.264V7.28H254.264ZM255.264 13.36H243.624V15.36H255.264V13.36ZM242.624 14.36V21.2H244.624V14.36H242.624ZM243.624 22.2H255.264V20.2H243.624V22.2ZM254.264 21.2V27.98H256.264V21.2H254.264ZM255.264 26.98H243.624V28.98H255.264V26.98ZM242.624 27.98V35H244.624V27.98H242.624ZM243.624 36H256.044V34H243.624V36ZM256.56 35.8568L263.34 31.7768L262.309 30.0632L255.529 34.1432L256.56 35.8568ZM273.633 0.499996V-0.500004H272.633V0.499996H273.633ZM292.833 0.499996H293.833V-0.500004H292.833V0.499996ZM292.833 7.58V8.58H293.833V7.58H292.833ZM281.193 7.58V6.58H280.193V7.58H281.193ZM281.193 14.36H280.193V15.36H281.193V14.36ZM292.833 14.36H293.833V13.36H292.833V14.36ZM292.833 21.2V22.2H293.833V21.2H292.833ZM281.193 21.2V20.2H280.193V21.2H281.193ZM281.193 28.22H280.193V29.22H281.193V28.22ZM292.593 28.22H293.593V27.22H292.593V28.22ZM292.593 35V36H293.593V35H292.593ZM273.633 35H272.633V36H273.633V35ZM295.773 28.22V27.22H294.773V28.22H295.773ZM295.773 35H294.773V36H295.773V35ZM314.973 35V36H315.973V35H314.973ZM314.973 28.22H315.973V27.22H314.973V28.22ZM314.973 7.58V8.58H315.973V7.58H314.973ZM314.973 0.499996H315.973V-0.500004H314.973V0.499996ZM295.533 0.499996V-0.500004H294.533V0.499996H295.533ZM295.533 7.58H294.533V8.58H295.533V7.58ZM305.253 21.2V22.2H306.253V21.2H305.253ZM305.253 14.36H306.253V13.36H305.253V14.36ZM295.533 14.36V13.36H294.533V14.36H295.533ZM295.533 21.2H294.533V22.2H295.533V21.2ZM273.633 1.5H292.833V-0.500004H273.633V1.5ZM291.833 0.499996V7.58H293.833V0.499996H291.833ZM292.833 6.58H281.193V8.58H292.833V6.58ZM280.193 7.58V14.36H282.193V7.58H280.193ZM281.193 15.36H292.833V13.36H281.193V15.36ZM291.833 14.36V21.2H293.833V14.36H291.833ZM292.833 20.2H281.193V22.2H292.833V20.2ZM280.193 21.2V28.22H282.193V21.2H280.193ZM281.193 29.22H292.593V27.22H281.193V29.22ZM291.593 28.22V35H293.593V28.22H291.593ZM292.593 34H273.633V36H292.593V34ZM274.633 35V0.499996H272.633V35H274.633ZM294.773 28.22V35H296.773V28.22H294.773ZM295.773 36H314.973V34H295.773V36ZM315.973 35V28.22H313.973V35H315.973ZM314.973 27.22H295.773V29.22H314.973V27.22ZM315.973 7.58V0.499996H313.973V7.58H315.973ZM314.973 -0.500004H295.533V1.5H314.973V-0.500004ZM294.533 0.499996V7.58H296.533V0.499996H294.533ZM295.533 8.58H314.973V6.58H295.533V8.58ZM306.253 21.2V14.36H304.253V21.2H306.253ZM305.253 13.36H295.533V15.36H305.253V13.36ZM294.533 14.36V21.2H296.533V14.36H294.533ZM295.533 22.2H305.253V20.2H295.533V22.2ZM321.593 4.64L321.075 3.7845L320.593 4.07635V4.64H321.593ZM321.593 35H320.593V36H321.593V35ZM329.153 35V36H330.153V35H329.153ZM329.153 21.2V20.2H328.153V21.2H329.153ZM340.793 21.2V22.2H341.793V21.2H340.793ZM340.793 14.36H341.793V13.36H340.793V14.36ZM329.153 14.36H328.153V15.36H329.153V14.36ZM329.153 7.28V6.28H328.153V7.28H329.153ZM340.793 7.28V8.28H341.793V7.28H340.793ZM340.793 0.499996H341.793V-0.500004H340.793V0.499996ZM328.433 0.499996V-0.500004H328.154L327.915 -0.355503L328.433 0.499996ZM362.933 4.64H363.933V4.06633L363.438 3.77675L362.933 4.64ZM362.933 35V36H363.933V35H362.933ZM355.373 35H354.373V36H355.373V35ZM355.373 21.2H356.373V20.2H355.373V21.2ZM343.493 21.2H342.493V22.2H343.493V21.2ZM343.493 14.36V13.36H342.493V14.36H343.493ZM355.373 14.36V15.36H356.373V14.36H355.373ZM355.373 7.28H356.373V6.28H355.373V7.28ZM343.493 7.28H342.493V8.28H343.493V7.28ZM343.493 0.499996V-0.500004H342.493V0.499996H343.493ZM355.853 0.499996L356.358 -0.363251L356.124 -0.500004H355.853V0.499996ZM320.593 4.64V35H322.593V4.64H320.593ZM321.593 36H329.153V34H321.593V36ZM330.153 35V21.2H328.153V35H330.153ZM329.153 22.2H340.793V20.2H329.153V22.2ZM341.793 21.2V14.36H339.793V21.2H341.793ZM340.793 13.36H329.153V15.36H340.793V13.36ZM330.153 14.36V7.28H328.153V14.36H330.153ZM329.153 8.28H340.793V6.28H329.153V8.28ZM341.793 7.28V0.499996H339.793V7.28H341.793ZM340.793 -0.500004H328.433V1.5H340.793V-0.500004ZM327.915 -0.355503L321.075 3.7845L322.111 5.4955L328.951 1.3555L327.915 -0.355503ZM361.933 4.64V35H363.933V4.64H361.933ZM362.933 34H355.373V36H362.933V34ZM356.373 35V21.2H354.373V35H356.373ZM355.373 20.2H343.493V22.2H355.373V20.2ZM344.493 21.2V14.36H342.493V21.2H344.493ZM343.493 15.36H355.373V13.36H343.493V15.36ZM356.373 14.36V7.28H354.373V14.36H356.373ZM355.373 6.28H343.493V8.28H355.373V6.28ZM344.493 7.28V0.499996H342.493V7.28H344.493ZM343.493 1.5H355.853V-0.500004H343.493V1.5ZM355.348 1.36325L362.428 5.50324L363.438 3.77675L356.358 -0.363251L355.348 1.36325ZM373.711 0.499996V-0.500004H372.711V0.499996H373.711ZM392.911 0.499996H393.911V-0.500004H392.911V0.499996ZM392.911 7.58V8.58H393.911V7.58H392.911ZM381.271 7.58V6.58H380.271V7.58H381.271ZM381.271 14.36H380.271V15.36H381.271V14.36ZM392.911 14.36H393.911V13.36H392.911V14.36ZM392.911 21.38V22.38H393.911V21.38H392.911ZM381.271 21.38V20.38H380.271V21.38H381.271ZM381.271 35V36H382.271V35H381.271ZM373.711 35H372.711V36H373.711V35ZM415.051 35V36H416.051V35H415.051ZM415.051 20.72H416.051V20.1136L415.513 19.8332L415.051 20.72ZM409.411 17.78L408.979 16.878L407.175 17.7419L408.949 18.6668L409.411 17.78ZM415.051 15.08L415.483 15.982L416.051 15.71V15.08H415.051ZM415.051 4.64H416.051V4.06633L415.556 3.77675L415.051 4.64ZM407.971 0.499996L408.476 -0.363251L408.242 -0.500004H407.971V0.499996ZM395.611 0.499996V-0.500004H394.611V0.499996H395.611ZM395.611 7.58H394.611V8.58H395.611V7.58ZM407.491 7.58H408.491V6.58H407.491V7.58ZM407.491 14.36V15.36H408.491V14.36H407.491ZM395.611 14.36V13.36H394.611V14.36H395.611ZM395.611 21.38H394.611V22.38H395.611V21.38ZM407.491 21.38H408.491V20.38H407.491V21.38ZM407.491 35H406.491V36H407.491V35ZM373.711 1.5H392.911V-0.500004H373.711V1.5ZM391.911 0.499996V7.58H393.911V0.499996H391.911ZM392.911 6.58H381.271V8.58H392.911V6.58ZM380.271 7.58V14.36H382.271V7.58H380.271ZM381.271 15.36H392.911V13.36H381.271V15.36ZM391.911 14.36V21.38H393.911V14.36H391.911ZM392.911 20.38H381.271V22.38H392.911V20.38ZM380.271 21.38V35H382.271V21.38H380.271ZM381.271 34H373.711V36H381.271V34ZM374.711 35V0.499996H372.711V35H374.711ZM416.051 35V20.72H414.051V35H416.051ZM415.513 19.8332L409.873 16.8932L408.949 18.6668L414.589 21.6068L415.513 19.8332ZM409.843 18.682L415.483 15.982L414.619 14.178L408.979 16.878L409.843 18.682ZM416.051 15.08V4.64H414.051V15.08H416.051ZM415.556 3.77675L408.476 -0.363251L407.466 1.36325L414.546 5.50324L415.556 3.77675ZM407.971 -0.500004H395.611V1.5H407.971V-0.500004ZM394.611 0.499996V7.58H396.611V0.499996H394.611ZM395.611 8.58H407.491V6.58H395.611V8.58ZM406.491 7.58V14.36H408.491V7.58H406.491ZM407.491 13.36H395.611V15.36H407.491V13.36ZM394.611 14.36V21.38H396.611V14.36H394.611ZM395.611 22.38H407.491V20.38H395.611V22.38ZM406.491 21.38V35H408.491V21.38H406.491ZM407.491 36H415.051V34H407.491V36ZM424.073 0.499996V-0.500004H423.073V0.499996H424.073ZM431.633 0.499996H432.633V-0.500004H431.633V0.499996ZM431.633 35V36H432.633V35H431.633ZM424.073 35H423.073V36H424.073V35ZM424.073 1.5H431.633V-0.500004H424.073V1.5ZM430.633 0.499996V35H432.633V0.499996H430.633ZM431.633 34H424.073V36H431.633V34ZM425.073 35V0.499996H423.073V35H425.073ZM441.241 4.64L440.724 3.7845L440.241 4.07635V4.64H441.241ZM441.241 35H440.241V36H441.241V35ZM448.801 35V36H449.801V35H448.801ZM448.801 21.2V20.2H447.801V21.2H448.801ZM460.441 21.2V22.2H461.441V21.2H460.441ZM460.441 14.36H461.441V13.36H460.441V14.36ZM448.801 14.36H447.801V15.36H448.801V14.36ZM448.801 7.28V6.28H447.801V7.28H448.801ZM460.441 7.28V8.28H461.441V7.28H460.441ZM460.441 0.499996H461.441V-0.500004H460.441V0.499996ZM448.081 0.499996V-0.500004H447.802L447.564 -0.355503L448.081 0.499996ZM482.581 4.64H483.581V4.06633L483.086 3.77675L482.581 4.64ZM482.581 35V36H483.581V35H482.581ZM475.021 35H474.021V36H475.021V35ZM475.021 21.2H476.021V20.2H475.021V21.2ZM463.141 21.2H462.141V22.2H463.141V21.2ZM463.141 14.36V13.36H462.141V14.36H463.141ZM475.021 14.36V15.36H476.021V14.36H475.021ZM475.021 7.28H476.021V6.28H475.021V7.28ZM463.141 7.28H462.141V8.28H463.141V7.28ZM463.141 0.499996V-0.500004H462.141V0.499996H463.141ZM475.501 0.499996L476.006 -0.363251L475.772 -0.500004H475.501V0.499996ZM440.241 4.64V35H442.241V4.64H440.241ZM441.241 36H448.801V34H441.241V36ZM449.801 35V21.2H447.801V35H449.801ZM448.801 22.2H460.441V20.2H448.801V22.2ZM461.441 21.2V14.36H459.441V21.2H461.441ZM460.441 13.36H448.801V15.36H460.441V13.36ZM449.801 14.36V7.28H447.801V14.36H449.801ZM448.801 8.28H460.441V6.28H448.801V8.28ZM461.441 7.28V0.499996H459.441V7.28H461.441ZM460.441 -0.500004H448.081V1.5H460.441V-0.500004ZM447.564 -0.355503L440.724 3.7845L441.759 5.4955L448.599 1.3555L447.564 -0.355503ZM481.581 4.64V35H483.581V4.64H481.581ZM482.581 34H475.021V36H482.581V34ZM476.021 35V21.2H474.021V35H476.021ZM475.021 20.2H463.141V22.2H475.021V20.2ZM464.141 21.2V14.36H462.141V21.2H464.141ZM463.141 15.36H475.021V13.36H463.141V15.36ZM476.021 14.36V7.28H474.021V14.36H476.021ZM475.021 6.28H463.141V8.28H475.021V6.28ZM464.141 7.28V0.499996H462.141V7.28H464.141ZM463.141 1.5H475.501V-0.500004H463.141V1.5ZM474.997 1.36325L482.077 5.50324L483.086 3.77675L476.006 -0.363251L474.997 1.36325Z" fill="white"/>
</svg>
