<svg width="296" height="35" viewBox="0 0 296 35" fill="none" xmlns="http://www.w3.org/2000/svg">
<path d="M0.216016 4.64V35H7.77602V21.2H19.416V14.36H7.77602V7.28H19.416V0.499997H7.05602L0.216016 4.64ZM41.556 4.64V35H33.996V21.2H22.116V14.36H33.996V7.28H22.116V0.499997H34.476L41.556 4.64ZM47.4426 4.64V30.92L54.4626 35H66.6426V28.22H55.2426V7.58H66.8826V0.499997H54.4626L47.4426 4.64ZM89.0226 11.66H81.2226V7.58H69.5826V0.499997H82.0026L89.0226 4.64V11.66ZM89.0226 14.36V30.92L82.0026 35H69.8226V28.22H81.2226V21.2H69.5826V14.36H89.0226ZM99.7949 0.499997H118.995V7.58H107.355V14.36H118.995V21.2H107.355V28.22H118.755V35H99.7949V0.499997ZM121.935 28.22V35H141.135V28.22H121.935ZM141.135 7.58V0.499997H121.695V7.58H141.135ZM131.415 21.2V14.36H121.695V21.2H131.415ZM148.955 0.499997H155.795L168.155 12.14V21.2L156.515 9.98V35H148.955V0.499997ZM182.735 25.28V0.499997H190.295V35H183.215L170.855 23.12V14.36L182.735 25.28ZM202.275 0.499997H221.475V7.28H209.835V27.98H221.475V35H202.275V0.499997ZM243.615 4.64L236.835 0.499997H224.415V7.28H236.055V27.98H224.415V35H236.835L243.615 30.92V4.64ZM254.424 0.499997H273.624V7.58H261.984V14.36H273.624V21.2H261.984V28.22H273.384V35H254.424V0.499997ZM276.564 28.22V35H295.764V28.22H276.564ZM295.764 7.58V0.499997H276.324V7.58H295.764ZM286.044 21.2V14.36H276.324V21.2H286.044Z" fill="white"/>
</svg>
