<svg width="136" height="382" viewBox="0 0 136 382" fill="none" xmlns="http://www.w3.org/2000/svg">
<path opacity="0.90303" d="M-0.0301817 342.811C-0.0169927 313.464 -0.531364 303.122 -0.0793073 302C0.252021 301.178 18.2668 276.18 39.1357 246.194C60.0046 216.209 77.0791 191.397 77.0791 191C77.0791 190.603 59.7814 165.354 38.6397 134.948L0.200239 79.6641L0.0604644 39.8321L-0.0793102 0H2.72645C4.12933 0 4.12933 0 24.5764 29.8753C35.9756 46.3067 65.788 89.0305 90.8262 124.817C115.864 160.604 136 190.476 136 191C136 191.524 106.508 234.47 70.0346 286.636C7.29161 376.374 4.12933 381 2.72645 382H-0.0793051L-0.0301817 342.811Z" fill="white"/>
</svg>
