<svg width="459" height="119" viewBox="0 0 459 119" fill="none" xmlns="http://www.w3.org/2000/svg">
<g clip-path="url(#clip0_148_17)">
<path d="M203.303 117.022C192.55 113.94 186.59 109.76 185.749 104.712C185.078 100.677 180.774 99.1696 162.894 96.7046C125.224 91.5111 98.9552 83.3942 85.1199 72.6724C70.9421 61.6852 72.1855 61.5901 230.061 61.5901C387.936 61.5901 389.18 61.6852 375.002 72.6724C361.122 83.4291 334.865 91.5232 296.957 96.7312C277.816 99.3609 274.528 100.584 273.741 105.367C272.401 113.511 253.483 119.304 229.258 118.988C218.253 118.844 206.573 117.959 203.303 117.022ZM57.6183 50.0517C52.7126 48.1429 46.1501 44.0612 43.035 40.9813L37.3712 35.3815H230.061H422.751L417.087 40.985C404.295 53.6408 402.907 53.7342 229.413 53.6249C100.918 53.544 64.655 52.7898 57.6183 50.0517ZM7.81802 20.7782C-1.97848 16.0933 -2.51178 11.7035 5.9003 4.9927C11.935 0.178502 19.9575 0 230.291 0C446.806 0 448.468 0.040146 454.567 5.41658C461.839 11.8266 460.112 17.7688 449.771 21.9223C444.454 24.0577 382.153 24.8685 229.178 24.7932C45.9886 24.703 14.8438 24.1381 7.81802 20.7782Z" fill="#F9F9F9"/>
</g>
<defs>
<clipPath id="clip0_148_17">
<rect width="459" height="119" fill="white"/>
</clipPath>
</defs>
</svg>
