<svg width="501" height="225" viewBox="0 0 501 225" fill="none" xmlns="http://www.w3.org/2000/svg">
<path d="M11.4167 220.841C-5.59314 214.99 -2.73658 191.721 14.2933 199.671C25.4126 204.861 473.467 205.3 486.808 199.671C504.902 192.036 506.336 216.425 487.396 221.642C471.526 226.013 24.2652 225.26 11.4167 220.841ZM41.5843 179.955C41.5843 176.678 64.7523 154.736 71.9903 159.671C90.4166 172.233 417.244 167.578 429.111 159.671C436.419 154.801 459.517 176.678 459.517 179.955C459.517 181.245 371.667 192.732 250.551 192.732C129.434 192.732 41.5843 181.245 41.5843 179.955ZM73.0079 141.668C73.0079 136.501 85.4427 110.276 94.0939 97.1971C108.462 75.4745 143.21 49.0399 171.335 38.4351L191.745 30.7394H250.551H309.357L329.766 38.4351C357.891 49.0399 392.639 75.4745 407.008 97.1971C415.659 110.276 428.094 136.501 428.094 141.668C428.094 142.103 348.199 142.458 250.551 142.458C152.902 142.458 73.0079 142.103 73.0079 141.668ZM296.47 30.7394H250.551H204.631C223.833 -10.3885 278.046 -10.1042 296.47 30.7394Z" fill="#F9F9F9"/>
</svg>
