<svg width="396" height="46" viewBox="0 0 396 46" fill="none" xmlns="http://www.w3.org/2000/svg">
<path d="M0.954688 5.52V46H11.0347V27.6H26.5547V18.48H11.0347V9.04H26.5547V-3.8147e-06H10.0747L0.954688 5.52ZM56.0747 5.52V46H45.9947V27.6H30.1547V18.48H45.9947V9.04H30.1547V-3.8147e-06H46.6347L56.0747 5.52ZM63.9234 5.52V40.56L73.2834 46H89.5234V36.96H74.3234V9.44H89.8434V-3.8147e-06H73.2834L63.9234 5.52ZM119.363 14.88H108.963V9.44H93.4434V-3.8147e-06H110.003L119.363 5.52V14.88ZM119.363 18.48V40.56L110.003 46H93.7634V36.96H108.963V27.6H93.4434V18.48H119.363ZM133.727 -3.8147e-06H159.327V9.44H143.807V18.48H159.327V27.6H143.807V36.96H159.007V46H133.727V-3.8147e-06ZM163.247 36.96V46H188.847V36.96H163.247ZM188.847 9.44V-3.8147e-06H162.927V9.44H188.847ZM175.887 27.6V18.48H162.927V27.6H175.887ZM199.273 -3.8147e-06H208.393L224.873 15.52V27.6L209.353 12.64V46H199.273V-3.8147e-06ZM244.313 33.04V-3.8147e-06H254.393V46H244.953L228.473 30.16V18.48L244.313 33.04ZM270.367 -3.8147e-06H295.967V9.04H280.447V36.64H295.967V46H270.367V-3.8147e-06ZM325.487 5.52L316.447 -3.8147e-06H299.887V9.04H315.407V36.64H299.887V46H316.447L325.487 40.56V5.52ZM339.898 -3.8147e-06H365.498V9.44H349.978V18.48H365.498V27.6H349.978V36.96H365.178V46H339.898V-3.8147e-06ZM369.418 36.96V46H395.018V36.96H369.418ZM395.018 9.44V-3.8147e-06H369.098V9.44H395.018ZM382.058 27.6V18.48H369.098V27.6H382.058Z" fill="white"/>
<path d="M0.954688 5.52L0.436885 4.6645L-0.045312 4.95635V5.52H0.954688ZM0.954688 46H-0.045312V47H0.954688V46ZM11.0347 46V47H12.0347V46H11.0347ZM11.0347 27.6V26.6H10.0347V27.6H11.0347ZM26.5547 27.6V28.6H27.5547V27.6H26.5547ZM26.5547 18.48H27.5547V17.48H26.5547V18.48ZM11.0347 18.48H10.0347V19.48H11.0347V18.48ZM11.0347 9.04V8.04H10.0347V9.04H11.0347ZM26.5547 9.04V10.04H27.5547V9.04H26.5547ZM26.5547 -3.8147e-06H27.5547V-1H26.5547V-3.8147e-06ZM10.0747 -3.8147e-06V-1H9.79562L9.55689 -0.855504L10.0747 -3.8147e-06ZM56.0747 5.52H57.0747V4.94633L56.5795 4.65675L56.0747 5.52ZM56.0747 46V47H57.0747V46H56.0747ZM45.9947 46H44.9947V47H45.9947V46ZM45.9947 27.6H46.9947V26.6H45.9947V27.6ZM30.1547 27.6H29.1547V28.6H30.1547V27.6ZM30.1547 18.48V17.48H29.1547V18.48H30.1547ZM45.9947 18.48V19.48H46.9947V18.48H45.9947ZM45.9947 9.04H46.9947V8.04H45.9947V9.04ZM30.1547 9.04H29.1547V10.04H30.1547V9.04ZM30.1547 -3.8147e-06V-1H29.1547V-3.8147e-06H30.1547ZM46.6347 -3.8147e-06L47.1395 -0.863252L46.9056 -1H46.6347V-3.8147e-06ZM-0.045312 5.52V46H1.95469V5.52H-0.045312ZM0.954688 47H11.0347V45H0.954688V47ZM12.0347 46V27.6H10.0347V46H12.0347ZM11.0347 28.6H26.5547V26.6H11.0347V28.6ZM27.5547 27.6V18.48H25.5547V27.6H27.5547ZM26.5547 17.48H11.0347V19.48H26.5547V17.48ZM12.0347 18.48V9.04H10.0347V18.48H12.0347ZM11.0347 10.04H26.5547V8.04H11.0347V10.04ZM27.5547 9.04V-3.8147e-06H25.5547V9.04H27.5547ZM26.5547 -1H10.0747V0.999996H26.5547V-1ZM9.55689 -0.855504L0.436885 4.6645L1.47249 6.3755L10.5925 0.855496L9.55689 -0.855504ZM55.0747 5.52V46H57.0747V5.52H55.0747ZM56.0747 45H45.9947V47H56.0747V45ZM46.9947 46V27.6H44.9947V46H46.9947ZM45.9947 26.6H30.1547V28.6H45.9947V26.6ZM31.1547 27.6V18.48H29.1547V27.6H31.1547ZM30.1547 19.48H45.9947V17.48H30.1547V19.48ZM46.9947 18.48V9.04H44.9947V18.48H46.9947ZM45.9947 8.04H30.1547V10.04H45.9947V8.04ZM31.1547 9.04V-3.8147e-06H29.1547V9.04H31.1547ZM30.1547 0.999996H46.6347V-1H30.1547V0.999996ZM46.1299 0.863244L55.5699 6.38324L56.5795 4.65675L47.1395 -0.863252L46.1299 0.863244ZM63.9234 5.52L63.4155 4.65863L62.9234 4.94879V5.52H63.9234ZM63.9234 40.56H62.9234V41.1354L63.4209 41.4246L63.9234 40.56ZM73.2834 46L72.7809 46.8646L73.0139 47H73.2834V46ZM89.5234 46V47H90.5234V46H89.5234ZM89.5234 36.96H90.5234V35.96H89.5234V36.96ZM74.3234 36.96H73.3234V37.96H74.3234V36.96ZM74.3234 9.44V8.44H73.3234V9.44H74.3234ZM89.8434 9.44V10.44H90.8434V9.44H89.8434ZM89.8434 -3.8147e-06H90.8434V-1H89.8434V-3.8147e-06ZM73.2834 -3.8147e-06V-1H73.0105L72.7755 -0.86137L73.2834 -3.8147e-06ZM119.363 14.88V15.88H120.363V14.88H119.363ZM108.963 14.88H107.963V15.88H108.963V14.88ZM108.963 9.44H109.963V8.44H108.963V9.44ZM93.4434 9.44H92.4434V10.44H93.4434V9.44ZM93.4434 -3.8147e-06V-1H92.4434V-3.8147e-06H93.4434ZM110.003 -3.8147e-06L110.511 -0.86137L110.276 -1H110.003V-3.8147e-06ZM119.363 5.52H120.363V4.94879L119.871 4.65863L119.363 5.52ZM119.363 18.48H120.363V17.48H119.363V18.48ZM119.363 40.56L119.866 41.4246L120.363 41.1354V40.56H119.363ZM110.003 46V47H110.273L110.506 46.8646L110.003 46ZM93.7634 46H92.7634V47H93.7634V46ZM93.7634 36.96V35.96H92.7634V36.96H93.7634ZM108.963 36.96V37.96H109.963V36.96H108.963ZM108.963 27.6H109.963V26.6H108.963V27.6ZM93.4434 27.6H92.4434V28.6H93.4434V27.6ZM93.4434 18.48V17.48H92.4434V18.48H93.4434ZM62.9234 5.52V40.56H64.9234V5.52H62.9234ZM63.4209 41.4246L72.7809 46.8646L73.7859 45.1354L64.4259 39.6954L63.4209 41.4246ZM73.2834 47H89.5234V45H73.2834V47ZM90.5234 46V36.96H88.5234V46H90.5234ZM89.5234 35.96H74.3234V37.96H89.5234V35.96ZM75.3234 36.96V9.44H73.3234V36.96H75.3234ZM74.3234 10.44H89.8434V8.44H74.3234V10.44ZM90.8434 9.44V-3.8147e-06H88.8434V9.44H90.8434ZM89.8434 -1H73.2834V0.999996H89.8434V-1ZM72.7755 -0.86137L63.4155 4.65863L64.4314 6.38136L73.7914 0.861362L72.7755 -0.86137ZM119.363 13.88H108.963V15.88H119.363V13.88ZM109.963 14.88V9.44H107.963V14.88H109.963ZM108.963 8.44H93.4434V10.44H108.963V8.44ZM94.4434 9.44V-3.8147e-06H92.4434V9.44H94.4434ZM93.4434 0.999996H110.003V-1H93.4434V0.999996ZM109.495 0.861362L118.855 6.38136L119.871 4.65863L110.511 -0.86137L109.495 0.861362ZM118.363 5.52V14.88H120.363V5.52H118.363ZM118.363 18.48V40.56H120.363V18.48H118.363ZM118.861 39.6954L109.501 45.1354L110.506 46.8646L119.866 41.4246L118.861 39.6954ZM110.003 45H93.7634V47H110.003V45ZM94.7634 46V36.96H92.7634V46H94.7634ZM93.7634 37.96H108.963V35.96H93.7634V37.96ZM109.963 36.96V27.6H107.963V36.96H109.963ZM108.963 26.6H93.4434V28.6H108.963V26.6ZM94.4434 27.6V18.48H92.4434V27.6H94.4434ZM93.4434 19.48H119.363V17.48H93.4434V19.48ZM133.727 -3.8147e-06V-1H132.727V-3.8147e-06H133.727ZM159.327 -3.8147e-06H160.327V-1H159.327V-3.8147e-06ZM159.327 9.44V10.44H160.327V9.44H159.327ZM143.807 9.44V8.44H142.807V9.44H143.807ZM143.807 18.48H142.807V19.48H143.807V18.48ZM159.327 18.48H160.327V17.48H159.327V18.48ZM159.327 27.6V28.6H160.327V27.6H159.327ZM143.807 27.6V26.6H142.807V27.6H143.807ZM143.807 36.96H142.807V37.96H143.807V36.96ZM159.007 36.96H160.007V35.96H159.007V36.96ZM159.007 46V47H160.007V46H159.007ZM133.727 46H132.727V47H133.727V46ZM163.247 36.96V35.96H162.247V36.96H163.247ZM163.247 46H162.247V47H163.247V46ZM188.847 46V47H189.847V46H188.847ZM188.847 36.96H189.847V35.96H188.847V36.96ZM188.847 9.44V10.44H189.847V9.44H188.847ZM188.847 -3.8147e-06H189.847V-1H188.847V-3.8147e-06ZM162.927 -3.8147e-06V-1H161.927V-3.8147e-06H162.927ZM162.927 9.44H161.927V10.44H162.927V9.44ZM175.887 27.6V28.6H176.887V27.6H175.887ZM175.887 18.48H176.887V17.48H175.887V18.48ZM162.927 18.48V17.48H161.927V18.48H162.927ZM162.927 27.6H161.927V28.6H162.927V27.6ZM133.727 0.999996H159.327V-1H133.727V0.999996ZM158.327 -3.8147e-06V9.44H160.327V-3.8147e-06H158.327ZM159.327 8.44H143.807V10.44H159.327V8.44ZM142.807 9.44V18.48H144.807V9.44H142.807ZM143.807 19.48H159.327V17.48H143.807V19.48ZM158.327 18.48V27.6H160.327V18.48H158.327ZM159.327 26.6H143.807V28.6H159.327V26.6ZM142.807 27.6V36.96H144.807V27.6H142.807ZM143.807 37.96H159.007V35.96H143.807V37.96ZM158.007 36.96V46H160.007V36.96H158.007ZM159.007 45H133.727V47H159.007V45ZM134.727 46V-3.8147e-06H132.727V46H134.727ZM162.247 36.96V46H164.247V36.96H162.247ZM163.247 47H188.847V45H163.247V47ZM189.847 46V36.96H187.847V46H189.847ZM188.847 35.96H163.247V37.96H188.847V35.96ZM189.847 9.44V-3.8147e-06H187.847V9.44H189.847ZM188.847 -1H162.927V0.999996H188.847V-1ZM161.927 -3.8147e-06V9.44H163.927V-3.8147e-06H161.927ZM162.927 10.44H188.847V8.44H162.927V10.44ZM176.887 27.6V18.48H174.887V27.6H176.887ZM175.887 17.48H162.927V19.48H175.887V17.48ZM161.927 18.48V27.6H163.927V18.48H161.927ZM162.927 28.6H175.887V26.6H162.927V28.6ZM199.273 -3.8147e-06V-1H198.273V-3.8147e-06H199.273ZM208.393 -3.8147e-06L209.079 -0.727996L208.79 -1H208.393V-3.8147e-06ZM224.873 15.52H225.873V15.0881L225.559 14.792L224.873 15.52ZM224.873 27.6L224.179 28.32L225.873 29.9529V27.6H224.873ZM209.353 12.64L210.047 11.92L208.353 10.2871V12.64H209.353ZM209.353 46V47H210.353V46H209.353ZM199.273 46H198.273V47H199.273V46ZM244.313 33.04L243.637 33.7762L245.313 35.3175V33.04H244.313ZM244.313 -3.8147e-06V-1H243.313V-3.8147e-06H244.313ZM254.393 -3.8147e-06H255.393V-1H254.393V-3.8147e-06ZM254.393 46V47H255.393V46H254.393ZM244.953 46L244.26 46.721L244.551 47H244.953V46ZM228.473 30.16H227.473V30.5859L227.78 30.881L228.473 30.16ZM228.473 18.48L229.15 17.7438L227.473 16.2025V18.48H228.473ZM199.273 0.999996H208.393V-1H199.273V0.999996ZM207.708 0.727989L224.188 16.248L225.559 14.792L209.079 -0.727996L207.708 0.727989ZM223.873 15.52V27.6H225.873V15.52H223.873ZM225.567 26.88L210.047 11.92L208.659 13.36L224.179 28.32L225.567 26.88ZM208.353 12.64V46H210.353V12.64H208.353ZM209.353 45H199.273V47H209.353V45ZM200.273 46V-3.8147e-06H198.273V46H200.273ZM245.313 33.04V-3.8147e-06H243.313V33.04H245.313ZM244.313 0.999996H254.393V-1H244.313V0.999996ZM253.393 -3.8147e-06V46H255.393V-3.8147e-06H253.393ZM254.393 45H244.953V47H254.393V45ZM245.646 45.279L229.166 29.439L227.78 30.881L244.26 46.721L245.646 45.279ZM229.473 30.16V18.48H227.473V30.16H229.473ZM227.797 19.2162L243.637 33.7762L244.99 32.3038L229.15 17.7438L227.797 19.2162ZM270.367 -3.8147e-06V-1H269.367V-3.8147e-06H270.367ZM295.967 -3.8147e-06H296.967V-1H295.967V-3.8147e-06ZM295.967 9.04V10.04H296.967V9.04H295.967ZM280.447 9.04V8.04H279.447V9.04H280.447ZM280.447 36.64H279.447V37.64H280.447V36.64ZM295.967 36.64H296.967V35.64H295.967V36.64ZM295.967 46V47H296.967V46H295.967ZM270.367 46H269.367V47H270.367V46ZM325.487 5.52H326.487V4.95893L326.008 4.66653L325.487 5.52ZM316.447 -3.8147e-06L316.968 -0.853472L316.728 -1H316.447V-3.8147e-06ZM299.887 -3.8147e-06V-1H298.887V-3.8147e-06H299.887ZM299.887 9.04H298.887V10.04H299.887V9.04ZM315.407 9.04H316.407V8.04H315.407V9.04ZM315.407 36.64V37.64H316.407V36.64H315.407ZM299.887 36.64V35.64H298.887V36.64H299.887ZM299.887 46H298.887V47H299.887V46ZM316.447 46V47H316.725L316.963 46.8568L316.447 46ZM325.487 40.56L326.003 41.4168L326.487 41.1253V40.56H325.487ZM270.367 0.999996H295.967V-1H270.367V0.999996ZM294.967 -3.8147e-06V9.04H296.967V-3.8147e-06H294.967ZM295.967 8.04H280.447V10.04H295.967V8.04ZM279.447 9.04V36.64H281.447V9.04H279.447ZM280.447 37.64H295.967V35.64H280.447V37.64ZM294.967 36.64V46H296.967V36.64H294.967ZM295.967 45H270.367V47H295.967V45ZM271.367 46V-3.8147e-06H269.367V46H271.367ZM326.008 4.66653L316.968 -0.853472L315.926 0.853465L324.966 6.37347L326.008 4.66653ZM316.447 -1H299.887V0.999996H316.447V-1ZM298.887 -3.8147e-06V9.04H300.887V-3.8147e-06H298.887ZM299.887 10.04H315.407V8.04H299.887V10.04ZM314.407 9.04V36.64H316.407V9.04H314.407ZM315.407 35.64H299.887V37.64H315.407V35.64ZM298.887 36.64V46H300.887V36.64H298.887ZM299.887 47H316.447V45H299.887V47ZM316.963 46.8568L326.003 41.4168L324.972 39.7032L315.932 45.1432L316.963 46.8568ZM326.487 40.56V5.52H324.487V40.56H326.487ZM339.898 -3.8147e-06V-1H338.898V-3.8147e-06H339.898ZM365.498 -3.8147e-06H366.498V-1H365.498V-3.8147e-06ZM365.498 9.44V10.44H366.498V9.44H365.498ZM349.978 9.44V8.44H348.978V9.44H349.978ZM349.978 18.48H348.978V19.48H349.978V18.48ZM365.498 18.48H366.498V17.48H365.498V18.48ZM365.498 27.6V28.6H366.498V27.6H365.498ZM349.978 27.6V26.6H348.978V27.6H349.978ZM349.978 36.96H348.978V37.96H349.978V36.96ZM365.178 36.96H366.178V35.96H365.178V36.96ZM365.178 46V47H366.178V46H365.178ZM339.898 46H338.898V47H339.898V46ZM369.418 36.96V35.96H368.418V36.96H369.418ZM369.418 46H368.418V47H369.418V46ZM395.018 46V47H396.018V46H395.018ZM395.018 36.96H396.018V35.96H395.018V36.96ZM395.018 9.44V10.44H396.018V9.44H395.018ZM395.018 -3.8147e-06H396.018V-1H395.018V-3.8147e-06ZM369.098 -3.8147e-06V-1H368.098V-3.8147e-06H369.098ZM369.098 9.44H368.098V10.44H369.098V9.44ZM382.058 27.6V28.6H383.058V27.6H382.058ZM382.058 18.48H383.058V17.48H382.058V18.48ZM369.098 18.48V17.48H368.098V18.48H369.098ZM369.098 27.6H368.098V28.6H369.098V27.6ZM339.898 0.999996H365.498V-1H339.898V0.999996ZM364.498 -3.8147e-06V9.44H366.498V-3.8147e-06H364.498ZM365.498 8.44H349.978V10.44H365.498V8.44ZM348.978 9.44V18.48H350.978V9.44H348.978ZM349.978 19.48H365.498V17.48H349.978V19.48ZM364.498 18.48V27.6H366.498V18.48H364.498ZM365.498 26.6H349.978V28.6H365.498V26.6ZM348.978 27.6V36.96H350.978V27.6H348.978ZM349.978 37.96H365.178V35.96H349.978V37.96ZM364.178 36.96V46H366.178V36.96H364.178ZM365.178 45H339.898V47H365.178V45ZM340.898 46V-3.8147e-06H338.898V46H340.898ZM368.418 36.96V46H370.418V36.96H368.418ZM369.418 47H395.018V45H369.418V47ZM396.018 46V36.96H394.018V46H396.018ZM395.018 35.96H369.418V37.96H395.018V35.96ZM396.018 9.44V-3.8147e-06H394.018V9.44H396.018ZM395.018 -1H369.098V0.999996H395.018V-1ZM368.098 -3.8147e-06V9.44H370.098V-3.8147e-06H368.098ZM369.098 10.44H395.018V8.44H369.098V10.44ZM383.058 27.6V18.48H381.058V27.6H383.058ZM382.058 17.48H369.098V19.48H382.058V17.48ZM368.098 18.48V27.6H370.098V18.48H368.098ZM369.098 28.6H382.058V26.6H369.098V28.6Z" fill="white"/>
</svg>
