<svg width="464" height="35" viewBox="0 0 464 35" fill="none" xmlns="http://www.w3.org/2000/svg">
<path d="M0.429688 0.499997H19.6297V7.28H7.98969V27.98H19.6297V35H0.429688V0.499997ZM41.7697 4.64L34.9897 0.499997H22.5697V7.28H34.2097V27.98H22.5697V35H34.9897L41.7697 30.92V4.64ZM51.3781 0.499997H58.9381V35H51.3781V0.499997ZM68.5461 4.64V35H76.1061V21.2H87.7461V14.36H76.1061V7.28H87.7461V0.499997H75.3861L68.5461 4.64ZM109.886 4.64V35H102.326V21.2H90.4461V14.36H102.326V7.28H90.4461V0.499997H102.806L109.886 4.64ZM138.652 0.499997H157.852V7.28H146.212V27.98H157.852V35H138.652V0.499997ZM179.992 4.64L173.212 0.499997H160.792V7.28H172.432V27.98H160.792V35H173.212L179.992 30.92V4.64ZM189.601 4.64L196.621 0.499997H209.041V7.28H197.161V27.98H208.801V35H196.621L189.601 30.92V4.64ZM230.941 4.64L224.161 0.499997H211.741V7.28H223.381V27.98H211.741V35H224.161L230.941 30.92V4.64ZM259.707 0.499997H266.547L278.907 12.14V21.2L267.267 9.98V35H259.707V0.499997ZM293.487 25.28V0.499997H301.047V35H293.967L281.607 23.12V14.36L293.487 25.28ZM311.827 4.64L318.847 0.499997H331.267V7.28H319.387V27.98H331.027V35H318.847L311.827 30.92V4.64ZM353.167 4.64L346.387 0.499997H333.967V7.28H345.607V27.98H333.967V35H346.387L353.167 30.92V4.64ZM362.745 0.499997H370.305V35H362.745V0.499997ZM382.553 0.499997L394.913 21.2V35L375.713 2.72L382.553 0.499997ZM410.273 0.499997L397.853 21.2V35L417.053 2.72L410.273 0.499997ZM422.452 4.64L429.472 0.499997H441.892V7.28H430.012V27.98H441.652V35H429.472L422.452 30.92V4.64ZM463.792 4.64L457.012 0.499997H444.592V7.28H456.232V27.98H444.592V35H457.012L463.792 30.92V4.64Z" fill="white"/>
<path d="M0.429688 0.499997V-0.500003H-0.570312V0.499997H0.429688ZM19.6297 0.499997H20.6297V-0.500003H19.6297V0.499997ZM19.6297 7.28V8.28H20.6297V7.28H19.6297ZM7.98969 7.28V6.28H6.98969V7.28H7.98969ZM7.98969 27.98H6.98969V28.98H7.98969V27.98ZM19.6297 27.98H20.6297V26.98H19.6297V27.98ZM19.6297 35V36H20.6297V35H19.6297ZM0.429688 35H-0.570312V36H0.429688V35ZM41.7697 4.64H42.7697V4.07893L42.2908 3.78653L41.7697 4.64ZM34.9897 0.499997L35.5108 -0.353471L35.2709 -0.500003H34.9897V0.499997ZM22.5697 0.499997V-0.500003H21.5697V0.499997H22.5697ZM22.5697 7.28H21.5697V8.28H22.5697V7.28ZM34.2097 7.28H35.2097V6.28H34.2097V7.28ZM34.2097 27.98V28.98H35.2097V27.98H34.2097ZM22.5697 27.98V26.98H21.5697V27.98H22.5697ZM22.5697 35H21.5697V36H22.5697V35ZM34.9897 35V36H35.2674L35.5053 35.8568L34.9897 35ZM41.7697 30.92L42.2853 31.7768L42.7697 31.4853V30.92H41.7697ZM0.429688 1.5H19.6297V-0.500003H0.429688V1.5ZM18.6297 0.499997V7.28H20.6297V0.499997H18.6297ZM19.6297 6.28H7.98969V8.28H19.6297V6.28ZM6.98969 7.28V27.98H8.98969V7.28H6.98969ZM7.98969 28.98H19.6297V26.98H7.98969V28.98ZM18.6297 27.98V35H20.6297V27.98H18.6297ZM19.6297 34H0.429688V36H19.6297V34ZM1.42969 35V0.499997H-0.570312V35H1.42969ZM42.2908 3.78653L35.5108 -0.353471L34.4685 1.35347L41.2485 5.49347L42.2908 3.78653ZM34.9897 -0.500003H22.5697V1.5H34.9897V-0.500003ZM21.5697 0.499997V7.28H23.5697V0.499997H21.5697ZM22.5697 8.28H34.2097V6.28H22.5697V8.28ZM33.2097 7.28V27.98H35.2097V7.28H33.2097ZM34.2097 26.98H22.5697V28.98H34.2097V26.98ZM21.5697 27.98V35H23.5697V27.98H21.5697ZM22.5697 36H34.9897V34H22.5697V36ZM35.5053 35.8568L42.2853 31.7768L41.2541 30.0632L34.4741 34.1432L35.5053 35.8568ZM42.7697 30.92V4.64H40.7697V30.92H42.7697ZM51.3781 0.499997V-0.500003H50.3781V0.499997H51.3781ZM58.9381 0.499997H59.9381V-0.500003H58.9381V0.499997ZM58.9381 35V36H59.9381V35H58.9381ZM51.3781 35H50.3781V36H51.3781V35ZM51.3781 1.5H58.9381V-0.500003H51.3781V1.5ZM57.9381 0.499997V35H59.9381V0.499997H57.9381ZM58.9381 34H51.3781V36H58.9381V34ZM52.3781 35V0.499997H50.3781V35H52.3781ZM68.5461 4.64L68.0283 3.7845L67.5461 4.07635V4.64H68.5461ZM68.5461 35H67.5461V36H68.5461V35ZM76.1061 35V36H77.1061V35H76.1061ZM76.1061 21.2V20.2H75.1061V21.2H76.1061ZM87.7461 21.2V22.2H88.7461V21.2H87.7461ZM87.7461 14.36H88.7461V13.36H87.7461V14.36ZM76.1061 14.36H75.1061V15.36H76.1061V14.36ZM76.1061 7.28V6.28H75.1061V7.28H76.1061ZM87.7461 7.28V8.28H88.7461V7.28H87.7461ZM87.7461 0.499997H88.7461V-0.500003H87.7461V0.499997ZM75.3861 0.499997V-0.500003H75.107L74.8683 -0.355503L75.3861 0.499997ZM109.886 4.64H110.886V4.06633L110.391 3.77675L109.886 4.64ZM109.886 35V36H110.886V35H109.886ZM102.326 35H101.326V36H102.326V35ZM102.326 21.2H103.326V20.2H102.326V21.2ZM90.4461 21.2H89.4461V22.2H90.4461V21.2ZM90.4461 14.36V13.36H89.4461V14.36H90.4461ZM102.326 14.36V15.36H103.326V14.36H102.326ZM102.326 7.28H103.326V6.28H102.326V7.28ZM90.4461 7.28H89.4461V8.28H90.4461V7.28ZM90.4461 0.499997V-0.500003H89.4461V0.499997H90.4461ZM102.806 0.499997L103.311 -0.363251L103.077 -0.500003H102.806V0.499997ZM67.5461 4.64V35H69.5461V4.64H67.5461ZM68.5461 36H76.1061V34H68.5461V36ZM77.1061 35V21.2H75.1061V35H77.1061ZM76.1061 22.2H87.7461V20.2H76.1061V22.2ZM88.7461 21.2V14.36H86.7461V21.2H88.7461ZM87.7461 13.36H76.1061V15.36H87.7461V13.36ZM77.1061 14.36V7.28H75.1061V14.36H77.1061ZM76.1061 8.28H87.7461V6.28H76.1061V8.28ZM88.7461 7.28V0.499997H86.7461V7.28H88.7461ZM87.7461 -0.500003H75.3861V1.5H87.7461V-0.500003ZM74.8683 -0.355503L68.0283 3.7845L69.0639 5.4955L75.9039 1.3555L74.8683 -0.355503ZM108.886 4.64V35H110.886V4.64H108.886ZM109.886 34H102.326V36H109.886V34ZM103.326 35V21.2H101.326V35H103.326ZM102.326 20.2H90.4461V22.2H102.326V20.2ZM91.4461 21.2V14.36H89.4461V21.2H91.4461ZM90.4461 15.36H102.326V13.36H90.4461V15.36ZM103.326 14.36V7.28H101.326V14.36H103.326ZM102.326 6.28H90.4461V8.28H102.326V6.28ZM91.4461 7.28V0.499997H89.4461V7.28H91.4461ZM90.4461 1.5H102.806V-0.500003H90.4461V1.5ZM102.301 1.36324L109.381 5.50325L110.391 3.77675L103.311 -0.363251L102.301 1.36324ZM138.652 0.499997V-0.500003H137.652V0.499997H138.652ZM157.852 0.499997H158.852V-0.500003H157.852V0.499997ZM157.852 7.28V8.28H158.852V7.28H157.852ZM146.212 7.28V6.28H145.212V7.28H146.212ZM146.212 27.98H145.212V28.98H146.212V27.98ZM157.852 27.98H158.852V26.98H157.852V27.98ZM157.852 35V36H158.852V35H157.852ZM138.652 35H137.652V36H138.652V35ZM179.992 4.64H180.992V4.07893L180.513 3.78653L179.992 4.64ZM173.212 0.499997L173.733 -0.353471L173.494 -0.500003H173.212V0.499997ZM160.792 0.499997V-0.500003H159.792V0.499997H160.792ZM160.792 7.28H159.792V8.28H160.792V7.28ZM172.432 7.28H173.432V6.28H172.432V7.28ZM172.432 27.98V28.98H173.432V27.98H172.432ZM160.792 27.98V26.98H159.792V27.98H160.792ZM160.792 35H159.792V36H160.792V35ZM173.212 35V36H173.49L173.728 35.8568L173.212 35ZM179.992 30.92L180.508 31.7768L180.992 31.4853V30.92H179.992ZM138.652 1.5H157.852V-0.500003H138.652V1.5ZM156.852 0.499997V7.28H158.852V0.499997H156.852ZM157.852 6.28H146.212V8.28H157.852V6.28ZM145.212 7.28V27.98H147.212V7.28H145.212ZM146.212 28.98H157.852V26.98H146.212V28.98ZM156.852 27.98V35H158.852V27.98H156.852ZM157.852 34H138.652V36H157.852V34ZM139.652 35V0.499997H137.652V35H139.652ZM180.513 3.78653L173.733 -0.353471L172.691 1.35347L179.471 5.49347L180.513 3.78653ZM173.212 -0.500003H160.792V1.5H173.212V-0.500003ZM159.792 0.499997V7.28H161.792V0.499997H159.792ZM160.792 8.28H172.432V6.28H160.792V8.28ZM171.432 7.28V27.98H173.432V7.28H171.432ZM172.432 26.98H160.792V28.98H172.432V26.98ZM159.792 27.98V35H161.792V27.98H159.792ZM160.792 36H173.212V34H160.792V36ZM173.728 35.8568L180.508 31.7768L179.477 30.0632L172.697 34.1432L173.728 35.8568ZM180.992 30.92V4.64H178.992V30.92H180.992ZM189.601 4.64L189.093 3.77863L188.601 4.06879V4.64H189.601ZM196.621 0.499997V-0.500003H196.348L196.113 -0.361369L196.621 0.499997ZM209.041 0.499997H210.041V-0.500003H209.041V0.499997ZM209.041 7.28V8.28H210.041V7.28H209.041ZM197.161 7.28V6.28H196.161V7.28H197.161ZM197.161 27.98H196.161V28.98H197.161V27.98ZM208.801 27.98H209.801V26.98H208.801V27.98ZM208.801 35V36H209.801V35H208.801ZM196.621 35L196.118 35.8646L196.351 36H196.621V35ZM189.601 30.92H188.601V31.4954L189.098 31.7846L189.601 30.92ZM230.941 4.64H231.941V4.07893L231.462 3.78653L230.941 4.64ZM224.161 0.499997L224.682 -0.353471L224.442 -0.500003H224.161V0.499997ZM211.741 0.499997V-0.500003H210.741V0.499997H211.741ZM211.741 7.28H210.741V8.28H211.741V7.28ZM223.381 7.28H224.381V6.28H223.381V7.28ZM223.381 27.98V28.98H224.381V27.98H223.381ZM211.741 27.98V26.98H210.741V27.98H211.741ZM211.741 35H210.741V36H211.741V35ZM224.161 35V36H224.438L224.676 35.8568L224.161 35ZM230.941 30.92L231.456 31.7768L231.941 31.4853V30.92H230.941ZM190.109 5.50136L197.129 1.36136L196.113 -0.361369L189.093 3.77863L190.109 5.50136ZM196.621 1.5H209.041V-0.500003H196.621V1.5ZM208.041 0.499997V7.28H210.041V0.499997H208.041ZM209.041 6.28H197.161V8.28H209.041V6.28ZM196.161 7.28V27.98H198.161V7.28H196.161ZM197.161 28.98H208.801V26.98H197.161V28.98ZM207.801 27.98V35H209.801V27.98H207.801ZM208.801 34H196.621V36H208.801V34ZM197.123 34.1354L190.103 30.0554L189.098 31.7846L196.118 35.8646L197.123 34.1354ZM190.601 30.92V4.64H188.601V30.92H190.601ZM231.462 3.78653L224.682 -0.353471L223.64 1.35347L230.42 5.49347L231.462 3.78653ZM224.161 -0.500003H211.741V1.5H224.161V-0.500003ZM210.741 0.499997V7.28H212.741V0.499997H210.741ZM211.741 8.28H223.381V6.28H211.741V8.28ZM222.381 7.28V27.98H224.381V7.28H222.381ZM223.381 26.98H211.741V28.98H223.381V26.98ZM210.741 27.98V35H212.741V27.98H210.741ZM211.741 36H224.161V34H211.741V36ZM224.676 35.8568L231.456 31.7768L230.425 30.0632L223.645 34.1432L224.676 35.8568ZM231.941 30.92V4.64H229.941V30.92H231.941ZM259.707 0.499997V-0.500003H258.707V0.499997H259.707ZM266.547 0.499997L267.233 -0.227995L266.944 -0.500003H266.547V0.499997ZM278.907 12.14H279.907V11.7081L279.593 11.412L278.907 12.14ZM278.907 21.2L278.213 21.92L279.907 23.5529V21.2H278.907ZM267.267 9.98L267.961 9.26002L266.267 7.62715V9.98H267.267ZM267.267 35V36H268.267V35H267.267ZM259.707 35H258.707V36H259.707V35ZM293.487 25.28L292.81 26.0162L294.487 27.5575V25.28H293.487ZM293.487 0.499997V-0.500003H292.487V0.499997H293.487ZM301.047 0.499997H302.047V-0.500003H301.047V0.499997ZM301.047 35V36H302.047V35H301.047ZM293.967 35L293.274 35.721L293.564 36H293.967V35ZM281.607 23.12H280.607V23.5459L280.914 23.841L281.607 23.12ZM281.607 14.36L282.284 13.6238L280.607 12.0825V14.36H281.607ZM259.707 1.5H266.547V-0.500003H259.707V1.5ZM265.861 1.22799L278.221 12.868L279.593 11.412L267.233 -0.227995L265.861 1.22799ZM277.907 12.14V21.2H279.907V12.14H277.907ZM279.601 20.48L267.961 9.26002L266.573 10.7L278.213 21.92L279.601 20.48ZM266.267 9.98V35H268.267V9.98H266.267ZM267.267 34H259.707V36H267.267V34ZM260.707 35V0.499997H258.707V35H260.707ZM294.487 25.28V0.499997H292.487V25.28H294.487ZM293.487 1.5H301.047V-0.500003H293.487V1.5ZM300.047 0.499997V35H302.047V0.499997H300.047ZM301.047 34H293.967V36H301.047V34ZM294.66 34.279L282.3 22.399L280.914 23.841L293.274 35.721L294.66 34.279ZM282.607 23.12V14.36H280.607V23.12H282.607ZM280.93 15.0962L292.81 26.0162L294.164 24.5438L282.284 13.6238L280.93 15.0962ZM311.827 4.64L311.319 3.77863L310.827 4.06879V4.64H311.827ZM318.847 0.499997V-0.500003H318.574L318.339 -0.361369L318.847 0.499997ZM331.267 0.499997H332.267V-0.500003H331.267V0.499997ZM331.267 7.28V8.28H332.267V7.28H331.267ZM319.387 7.28V6.28H318.387V7.28H319.387ZM319.387 27.98H318.387V28.98H319.387V27.98ZM331.027 27.98H332.027V26.98H331.027V27.98ZM331.027 35V36H332.027V35H331.027ZM318.847 35L318.345 35.8646L318.578 36H318.847V35ZM311.827 30.92H310.827V31.4954L311.325 31.7846L311.827 30.92ZM353.167 4.64H354.167V4.07893L353.688 3.78653L353.167 4.64ZM346.387 0.499997L346.908 -0.353471L346.669 -0.500003H346.387V0.499997ZM333.967 0.499997V-0.500003H332.967V0.499997H333.967ZM333.967 7.28H332.967V8.28H333.967V7.28ZM345.607 7.28H346.607V6.28H345.607V7.28ZM345.607 27.98V28.98H346.607V27.98H345.607ZM333.967 27.98V26.98H332.967V27.98H333.967ZM333.967 35H332.967V36H333.967V35ZM346.387 35V36H346.665L346.903 35.8568L346.387 35ZM353.167 30.92L353.683 31.7768L354.167 31.4853V30.92H353.167ZM312.335 5.50136L319.355 1.36136L318.339 -0.361369L311.319 3.77863L312.335 5.50136ZM318.847 1.5H331.267V-0.500003H318.847V1.5ZM330.267 0.499997V7.28H332.267V0.499997H330.267ZM331.267 6.28H319.387V8.28H331.267V6.28ZM318.387 7.28V27.98H320.387V7.28H318.387ZM319.387 28.98H331.027V26.98H319.387V28.98ZM330.027 27.98V35H332.027V27.98H330.027ZM331.027 34H318.847V36H331.027V34ZM319.35 34.1354L312.33 30.0554L311.325 31.7846L318.345 35.8646L319.35 34.1354ZM312.827 30.92V4.64H310.827V30.92H312.827ZM353.688 3.78653L346.908 -0.353471L345.866 1.35347L352.646 5.49347L353.688 3.78653ZM346.387 -0.500003H333.967V1.5H346.387V-0.500003ZM332.967 0.499997V7.28H334.967V0.499997H332.967ZM333.967 8.28H345.607V6.28H333.967V8.28ZM344.607 7.28V27.98H346.607V7.28H344.607ZM345.607 26.98H333.967V28.98H345.607V26.98ZM332.967 27.98V35H334.967V27.98H332.967ZM333.967 36H346.387V34H333.967V36ZM346.903 35.8568L353.683 31.7768L352.652 30.0632L345.872 34.1432L346.903 35.8568ZM354.167 30.92V4.64H352.167V30.92H354.167ZM362.745 0.499997V-0.500003H361.745V0.499997H362.745ZM370.305 0.499997H371.305V-0.500003H370.305V0.499997ZM370.305 35V36H371.305V35H370.305ZM362.745 35H361.745V36H362.745V35ZM362.745 1.5H370.305V-0.500003H362.745V1.5ZM369.305 0.499997V35H371.305V0.499997H369.305ZM370.305 34H362.745V36H370.305V34ZM363.745 35V0.499997H361.745V35H363.745ZM382.553 0.499997L383.412 -0.0126675L383.003 -0.697334L382.245 -0.451159L382.553 0.499997ZM394.913 21.2H395.913V20.9242L395.772 20.6873L394.913 21.2ZM394.913 35L394.054 35.5112L395.913 38.6374V35H394.913ZM375.713 2.72L375.405 1.76884L374.214 2.15529L374.854 3.2312L375.713 2.72ZM410.273 0.499997L410.584 -0.450355L409.826 -0.698615L409.416 -0.0144986L410.273 0.499997ZM397.853 21.2L396.996 20.6855L396.853 20.923V21.2H397.853ZM397.853 35H396.853V38.6374L398.713 35.5112L397.853 35ZM417.053 2.72L417.913 3.2312L418.551 2.15815L417.364 1.76965L417.053 2.72ZM381.695 1.01266L394.055 21.7127L395.772 20.6873L383.412 -0.0126675L381.695 1.01266ZM393.913 21.2V35H395.913V21.2H393.913ZM395.773 34.4888L376.573 2.20879L374.854 3.2312L394.054 35.5112L395.773 34.4888ZM376.022 3.67115L382.862 1.45115L382.245 -0.451159L375.405 1.76884L376.022 3.67115ZM409.416 -0.0144986L396.996 20.6855L398.711 21.7145L411.131 1.01449L409.416 -0.0144986ZM396.853 21.2V35H398.853V21.2H396.853ZM398.713 35.5112L417.913 3.2312L416.194 2.20879L396.994 34.4888L398.713 35.5112ZM417.364 1.76965L410.584 -0.450355L409.962 1.45035L416.742 3.67035L417.364 1.76965ZM422.452 4.64L421.944 3.77863L421.452 4.06879V4.64H422.452ZM429.472 0.499997V-0.500003H429.199L428.964 -0.361369L429.472 0.499997ZM441.892 0.499997H442.892V-0.500003H441.892V0.499997ZM441.892 7.28V8.28H442.892V7.28H441.892ZM430.012 7.28V6.28H429.012V7.28H430.012ZM430.012 27.98H429.012V28.98H430.012V27.98ZM441.652 27.98H442.652V26.98H441.652V27.98ZM441.652 35V36H442.652V35H441.652ZM429.472 35L428.97 35.8646L429.203 36H429.472V35ZM422.452 30.92H421.452V31.4954L421.95 31.7846L422.452 30.92ZM463.792 4.64H464.792V4.07893L464.313 3.78653L463.792 4.64ZM457.012 0.499997L457.533 -0.353471L457.294 -0.500003H457.012V0.499997ZM444.592 0.499997V-0.500003H443.592V0.499997H444.592ZM444.592 7.28H443.592V8.28H444.592V7.28ZM456.232 7.28H457.232V6.28H456.232V7.28ZM456.232 27.98V28.98H457.232V27.98H456.232ZM444.592 27.98V26.98H443.592V27.98H444.592ZM444.592 35H443.592V36H444.592V35ZM457.012 35V36H457.29L457.528 35.8568L457.012 35ZM463.792 30.92L464.308 31.7768L464.792 31.4853V30.92H463.792ZM422.96 5.50136L429.98 1.36136L428.964 -0.361369L421.944 3.77863L422.96 5.50136ZM429.472 1.5H441.892V-0.500003H429.472V1.5ZM440.892 0.499997V7.28H442.892V0.499997H440.892ZM441.892 6.28H430.012V8.28H441.892V6.28ZM429.012 7.28V27.98H431.012V7.28H429.012ZM430.012 28.98H441.652V26.98H430.012V28.98ZM440.652 27.98V35H442.652V27.98H440.652ZM441.652 34H429.472V36H441.652V34ZM429.975 34.1354L422.955 30.0554L421.95 31.7846L428.97 35.8646L429.975 34.1354ZM423.452 30.92V4.64H421.452V30.92H423.452ZM464.313 3.78653L457.533 -0.353471L456.491 1.35347L463.271 5.49347L464.313 3.78653ZM457.012 -0.500003H444.592V1.5H457.012V-0.500003ZM443.592 0.499997V7.28H445.592V0.499997H443.592ZM444.592 8.28H456.232V6.28H444.592V8.28ZM455.232 7.28V27.98H457.232V7.28H455.232ZM456.232 26.98H444.592V28.98H456.232V26.98ZM443.592 27.98V35H445.592V27.98H443.592ZM444.592 36H457.012V34H444.592V36ZM457.528 35.8568L464.308 31.7768L463.277 30.0632L456.497 34.1432L457.528 35.8568ZM464.792 30.92V4.64H462.792V30.92H464.792Z" fill="white"/>
</svg>
