<?xml version="1.0" encoding="UTF-8" standalone="no"?>
<!-- Created with Inkscape (http://www.inkscape.org/) -->

<svg
   version="1.1"
   id="svg2"
   width="417.06668"
   height="152.53333"
   viewBox="0 0 417.06668 152.53333"
   sodipodi:docname="triangulorectblue.svg"
   inkscape:version="1.2.2 (732a01da63, 2022-12-09)"
   xmlns:inkscape="http://www.inkscape.org/namespaces/inkscape"
   xmlns:sodipodi="http://sodipodi.sourceforge.net/DTD/sodipodi-0.dtd"
   xmlns="http://www.w3.org/2000/svg"
   xmlns:svg="http://www.w3.org/2000/svg">
  <defs
     id="defs6" />
  <sodipodi:namedview
     id="namedview4"
     pagecolor="#505050"
     bordercolor="#eeeeee"
     borderopacity="1"
     inkscape:showpageshadow="0"
     inkscape:pageopacity="0"
     inkscape:pagecheckerboard="0"
     inkscape:deskcolor="#505050"
     showgrid="false"
     inkscape:zoom="2"
     inkscape:cx="170"
     inkscape:cy="52.5"
     inkscape:window-width="1920"
     inkscape:window-height="1009"
     inkscape:window-x="-8"
     inkscape:window-y="-8"
     inkscape:window-maximized="1"
     inkscape:current-layer="g2494" />
  <g
     inkscape:groupmode="layer"
     inkscape:label="Image"
     id="g8">
    <g
       id="g2494"
       transform="translate(-0.00221793,-0.00221566)">
      <path
         style="fill:#000000;stroke-width:1.06667"
         d="M 0.2226554,151.33203 0.62308857,150.13073 208.04488,75.097787 416.07606,-0.13046885 l 0.83906,0.0300782 0.15938,0.03398443 -0.008,76.33307122 V 152.53333 H 208.44445 -0.17777779 Z M 417.1521,76.456842 417.07,1.7558739 416.99161,1.6054243 411.19993,3.9590245 212.79993,75.695369 14.4,147.43171 l -3.2,1.39713 -3.1999997,1.39713 203.4666697,0.087 205.60429,0.14683 z"
         id="path2496"
         sodipodi:nodetypes="cccccccccccccccccccccc" />
      <path
         style="opacity:0.90303;fill:#4951ff;fill-opacity:1;stroke-width:0.5"
         d="M 172.9961,150.34084 5.937268,150.46875 129.90613,105.6173 c 27.06672,-9.792627 1.19786,-0.42478 175.00012,-63.335309 60.63718,-21.948606 109.00084,-39.3257638 111.96094,-41.0063382 0.77872,-0.44211387 0.49226,4.5662662 0.34685,74.6556872 l -0.15468,74.5548 -42.49502,0.0971 c -22.61879,0.0517 -112.77747,-0.3104 -201.56824,-0.24242 z"
         id="path962"
         transform="translate(0.00221793,0.00221566)"
         sodipodi:nodetypes="scsssscsss" />
    </g>
  </g>
</svg>
