<svg width="390" height="35" viewBox="0 0 390 35" fill="none" xmlns="http://www.w3.org/2000/svg">
<path d="M7.39969 35L0.379688 2.72L7.39969 0.499997L12.7997 26.72L19.8197 18.5V28.7L14.2397 35H7.39969ZM34.9397 35H28.0997L22.5197 28.7V18.5L29.2997 26.72L34.9397 0.499997L41.7197 2.72L34.9397 35ZM48.8906 0.499997H56.4506V14.36H68.0906V21.2H56.4506V35H48.8906V0.499997ZM90.2306 0.499997H82.6706V14.36H71.0306V21.2H82.6706V35H90.2306V0.499997ZM101.011 4.64V35H108.571V21.2H120.211V14.36H108.571V7.28H120.211V0.499997H107.851L101.011 4.64ZM142.351 4.64V35H134.791V21.2H122.911V14.36H134.791V7.28H122.911V0.499997H135.271L142.351 4.64ZM189.566 7.28H172.286V35H164.006V7.28H148.226V0.499997H189.566V7.28ZM195.567 4.64V17.3L202.407 21.38H214.767V14.36H202.887V7.58H214.767V0.499997H202.407L195.567 4.64ZM236.907 18.5V30.92L229.827 35H217.707V28.22H229.347V21.38H217.467V14.36H229.827L236.907 18.5ZM203.127 24.08H195.567V30.92L202.587 35H214.767V28.22H203.127V24.08ZM236.907 11.66H229.347V7.58H217.467V0.499997H229.827L236.907 4.64V11.66ZM245.913 4.64V35H253.473V21.2H265.113V14.36H253.473V7.28H265.113V0.499997H252.753L245.913 4.64ZM287.253 4.64V35H279.693V21.2H267.813V14.36H279.693V7.28H267.813V0.499997H280.173L287.253 4.64ZM298.031 0.499997H317.471V7.28H305.831V14.36H317.471V21.38H305.831V35H298.031V0.499997ZM339.611 17.3V4.64L332.591 0.499997H320.171V7.28H331.811V14.36H320.171V21.38H332.591L339.611 17.3ZM347.426 0.499997H366.866V7.28H355.226V14.36H366.866V21.38H355.226V35H347.426V0.499997ZM389.006 17.3V4.64L381.986 0.499997H369.566V7.28H381.206V14.36H369.566V21.38H381.986L389.006 17.3Z" fill="black"/>
</svg>
