<svg width="150" height="150" viewBox="0 0 150 150" fill="none" xmlns="http://www.w3.org/2000/svg">
<path d="M75.3015 0.000446771C34.1457 0.000446771 0.603016 33.3753 0.603016 74.3252C0.603016 87.4502 4.07035 100.2 10.5528 111.45L0 150L39.5729 139.65C50.5025 145.575 62.7889 148.725 75.3015 148.725C116.457 148.725 150 115.35 150 74.4002C150 54.5253 142.236 35.8503 128.141 21.8254C121.23 14.8798 112.999 9.37293 103.927 5.62581C94.855 1.8787 85.124 -0.0336008 75.3015 0.000446771ZM75.3769 12.5254C91.9598 12.5254 107.487 18.9754 119.246 30.6754C125.017 36.4155 129.592 43.2327 132.71 50.736C135.827 58.2393 137.425 66.2811 137.412 74.4002C137.412 108.45 109.523 136.125 75.3015 136.125C64.1457 136.125 53.2161 133.2 43.7186 127.5L41.4573 126.225L17.9397 132.375L24.196 109.575L22.6884 107.175C16.4619 97.3402 13.1684 85.9489 13.191 74.3252C13.2663 40.2753 41.0804 12.5254 75.3769 12.5254ZM48.8442 39.9753C47.6382 39.9753 45.603 40.4253 43.8693 42.3003C42.211 44.1753 37.3116 48.7503 37.3116 57.8253C37.3116 66.9753 44.0201 75.7502 44.8492 77.0252C45.9045 78.3002 58.1156 97.0502 76.8844 105C81.3316 107.025 84.799 108.15 87.5126 108.975C91.9598 110.4 96.0301 110.175 99.2713 109.725C102.889 109.2 110.276 105.225 111.859 100.875C113.442 96.5252 113.442 92.8502 112.99 92.0252C112.462 91.2752 111.256 90.8252 109.372 90.0002C107.487 88.9502 98.2914 84.4502 96.6332 83.8502C94.8995 83.2502 93.8442 82.9502 92.4121 84.7502C91.206 86.6252 87.5879 90.8252 86.5327 92.0252C85.402 93.3002 84.3467 93.4502 82.5377 92.5502C80.5779 91.5752 74.5477 89.6252 67.4623 83.3252C61.8844 78.3752 58.1909 72.3002 57.0603 70.4252C56.1558 68.6252 56.9849 67.5003 57.8894 66.6753C58.7186 65.8503 59.9246 64.5003 60.6784 63.3753C61.6583 62.3253 61.9598 61.5003 62.5628 60.3003C63.1658 59.0253 62.8643 57.9753 62.4121 57.0753C61.9598 56.2503 58.191 46.9503 56.608 43.2753C55.1005 39.6753 53.593 40.1253 52.3869 40.0503C51.3317 40.0503 50.1256 39.9753 48.8442 39.9753Z" fill="white"/>
</svg>
